<svg width="24" height="24" viewBox="0 0 24 24" fill="none" xmlns="http://www.w3.org/2000/svg">
    <mask id="df3t439s1a" style="mask-type:alpha" maskUnits="userSpaceOnUse" x="0" y="0" width="24" height="24">
        <path fill="#D9D9D9" d="M0 0h24v24H0z"/>
    </mask>
    <g mask="url(#df3t439s1a)">
        <path d="M9.116 17c-.46 0-.845-.154-1.153-.462a1.565 1.565 0 0 1-.463-1.154V4.616c0-.46.154-.845.463-1.153A1.565 1.565 0 0 1 9.116 3h7.768c.46 0 .845.154 1.154.462.308.309.462.693.462 1.153v10.77c0 .46-.154.844-.462 1.153a1.565 1.565 0 0 1-1.154.462H9.116zm0-1h7.768a.588.588 0 0 0 .424-.192.588.588 0 0 0 .192-.424V4.616a.588.588 0 0 0-.192-.424.588.588 0 0 0-.424-.192H9.116a.588.588 0 0 0-.424.192.588.588 0 0 0-.192.423v10.77c0 .154.064.295.192.423s.27.192.424.192zm-3 4c-.46 0-.845-.154-1.153-.462a1.564 1.564 0 0 1-.463-1.153V7.115c0-.142.048-.26.143-.356A.484.484 0 0 1 5 6.615c.142 0 .261.048.357.144a.484.484 0 0 1 .143.356v11.27c0 .154.064.295.192.423s.27.192.423.192h8.27c.142 0 .26.048.356.143a.484.484 0 0 1 .143.357.484.484 0 0 1-.143.357.484.484 0 0 1-.357.143H6.116z" fill="#333"/>
    </g>
</svg>
