<?xml version="1.0" encoding="UTF-8"?>
<svg id="Layer_1" data-name="Layer 1" xmlns="http://www.w3.org/2000/svg" xmlns:xlink="http://www.w3.org/1999/xlink" version="1.1" viewBox="0 0 430 110">
  <defs>
    <style>
      .cls-1 {
        fill: url(#linear-gradient);
        stroke-width: 0px;
      }
    </style>
    <linearGradient id="linear-gradient" x1="215" y1="46.9" x2="213.1" y2="227.3" gradientUnits="userSpaceOnUse">
      <stop offset="0" stop-color="#d0301e" stop-opacity="0"/>
      <stop offset=".5" stop-color="rgba(203, 26, 14, .5)" stop-opacity=".5"/>
      <stop offset=".8" stop-color="rgba(201, 11, 4, .9)" stop-opacity=".9"/>
      <stop offset="1" stop-color="#c80600"/>
    </linearGradient>
  </defs>
  <path class="cls-1" d="M140.9,81.9c-.7,0-1.3.6-1.3,1.3s.6,1.3,1.3,1.3,1.3-.6,1.3-1.3-.6-1.3-1.3-1.3ZM142,86.2h-2.3v11h2.3v-11ZM139.7,111.3h2.3v-8h-2.3v8ZM140.9,98.9c-.7,0-1.3.6-1.3,1.3s.6,1.3,1.3,1.3,1.3-.6,1.3-1.3-.6-1.3-1.3-1.3ZM140.9,64.7c-.7,0-1.3.6-1.3,1.3s.6,1.3,1.3,1.3,1.3-.6,1.3-1.3-.6-1.3-1.3-1.3ZM142,80.1v-11h-2.3v11h2.3ZM140.9,48.1c-.7,0-1.3.6-1.3,1.3s.6,1.3,1.3,1.3,1.3-.6,1.3-1.3-.6-1.3-1.3-1.3ZM142,52h-2.3v11h2.3v-11ZM136.7,94.7h-2.3v11h2.3v-11ZM135.6,107.5c-.7,0-1.3.6-1.3,1.3s.6,1.3,1.3,1.3,1.3-.6,1.3-1.3-.6-1.3-1.3-1.3ZM130.6,48.1c-.7,0-1.3.6-1.3,1.3s.6,1.3,1.3,1.3,1.3-.6,1.3-1.3-.6-1.3-1.3-1.3ZM146.8,107.5c-.7,0-1.3.6-1.3,1.3s.6,1.3,1.3,1.3,1.3-.6,1.3-1.3-.6-1.3-1.3-1.3ZM135.6,56.2c-.7,0-1.3.6-1.3,1.3s.6,1.3,1.3,1.3,1.3-.6,1.3-1.3-.6-1.3-1.3-1.3ZM131.7,52h-2.3v11h2.3v-11ZM135.6,90.4c-.7,0-1.3.6-1.3,1.3s.6,1.3,1.3,1.3,1.3-.6,1.3-1.3-.6-1.3-1.3-1.3ZM130.6,64.7c-.7,0-1.3.6-1.3,1.3s.6,1.3,1.3,1.3,1.3-.6,1.3-1.3-.6-1.3-1.3-1.3ZM136.7,60.5h-2.3v11h2.3v-11ZM136.7,77.6h-2.3v11h2.3v-11ZM135.6,73.3c-.7,0-1.3.6-1.3,1.3s.6,1.3,1.3,1.3,1.3-.6,1.3-1.3-.6-1.3-1.3-1.3ZM152,64.7c-.7,0-1.3.6-1.3,1.3s.6,1.3,1.3,1.3,1.3-.6,1.3-1.3-.6-1.3-1.3-1.3ZM152,81.9c-.7,0-1.3.6-1.3,1.3s.6,1.3,1.3,1.3,1.3-.6,1.3-1.3-.6-1.3-1.3-1.3ZM153.1,52h-2.3v11h2.3v-11ZM153.1,69.1h-2.3v11h2.3v-11ZM152,48.1c-.7,0-1.3.6-1.3,1.3s.6,1.3,1.3,1.3,1.3-.6,1.3-1.3-.6-1.3-1.3-1.3ZM158.3,77.6h-2.3v11h2.3v-11ZM157.2,90.4c-.7,0-1.3.6-1.3,1.3s.6,1.3,1.3,1.3,1.3-.6,1.3-1.3-.6-1.3-1.3-1.3ZM158.3,94.7h-2.3v11h2.3v-11ZM157.2,107.5c-.7,0-1.3.6-1.3,1.3s.6,1.3,1.3,1.3,1.3-.6,1.3-1.3-.6-1.3-1.3-1.3ZM150.9,111.3h2.3v-8h-2.3v8ZM146.8,73.3c-.7,0-1.3.6-1.3,1.3s.6,1.3,1.3,1.3,1.3-.6,1.3-1.3-.6-1.3-1.3-1.3ZM147.9,77.6h-2.3v11h2.3v-11ZM147.9,60.5h-2.3v11h2.3v-11ZM146.8,90.4c-.7,0-1.3.6-1.3,1.3s.6,1.3,1.3,1.3,1.3-.6,1.3-1.3-.6-1.3-1.3-1.3ZM152,98.9c-.7,0-1.3.6-1.3,1.3s.6,1.3,1.3,1.3,1.3-.6,1.3-1.3-.6-1.3-1.3-1.3ZM153.1,86.2h-2.3v11h2.3v-11ZM147.9,94.7h-2.3v11h2.3v-11ZM209.2,56.2c-.7,0-1.3.6-1.3,1.3s.6,1.3,1.3,1.3,1.3-.6,1.3-1.3-.6-1.3-1.3-1.3ZM120.7,64.7c-.7,0-1.3.6-1.3,1.3s.6,1.3,1.3,1.3,1.3-.6,1.3-1.3-.6-1.3-1.3-1.3ZM111.6,52h-2.3v11h2.3v-11ZM115.5,90.4c-.7,0-1.3.6-1.3,1.3s.6,1.3,1.3,1.3,1.3-.6,1.3-1.3-.6-1.3-1.3-1.3ZM116.6,94.7h-2.3v11h2.3v-11ZM110.4,48.1c-.7,0-1.3.6-1.3,1.3s.6,1.3,1.3,1.3,1.3-.6,1.3-1.3-.6-1.3-1.3-1.3ZM115.5,107.5c-.7,0-1.3.6-1.3,1.3s.6,1.3,1.3,1.3,1.3-.6,1.3-1.3-.6-1.3-1.3-1.3ZM119.6,111.3h2.3v-8h-2.3v8ZM115.5,56.2c-.7,0-1.3.6-1.3,1.3s.6,1.3,1.3,1.3,1.3-.6,1.3-1.3-.6-1.3-1.3-1.3ZM131.7,69.1h-2.3v11h2.3v-11ZM115.5,73.3c-.7,0-1.3.6-1.3,1.3s.6,1.3,1.3,1.3,1.3-.6,1.3-1.3-.6-1.3-1.3-1.3ZM116.6,60.5h-2.3v11h2.3v-11ZM105.2,56.2c-.7,0-1.3.6-1.3,1.3s.6,1.3,1.3,1.3,1.3-.6,1.3-1.3-.6-1.3-1.3-1.3ZM109.3,111.3h2.3v-8h-2.3v8ZM110.4,64.7c-.7,0-1.3.6-1.3,1.3s.6,1.3,1.3,1.3,1.3-.6,1.3-1.3-.6-1.3-1.3-1.3ZM106.3,60.5h-2.3v11h2.3v-11ZM110.4,98.9c-.7,0-1.3.6-1.3,1.3s.6,1.3,1.3,1.3,1.3-.6,1.3-1.3-.6-1.3-1.3-1.3ZM111.6,69.1h-2.3v11h2.3v-11ZM111.6,86.2h-2.3v11h2.3v-11ZM110.4,81.9c-.7,0-1.3.6-1.3,1.3s.6,1.3,1.3,1.3,1.3-.6,1.3-1.3-.6-1.3-1.3-1.3ZM116.6,77.6h-2.3v11h2.3v-11ZM125.2,90.4c-.7,0-1.3.6-1.3,1.3s.6,1.3,1.3,1.3,1.3-.6,1.3-1.3-.6-1.3-1.3-1.3ZM125.2,73.3c-.7,0-1.3.6-1.3,1.3s.6,1.3,1.3,1.3,1.3-.6,1.3-1.3-.6-1.3-1.3-1.3ZM125.3,56.2c-.7,0-1.3.6-1.3,1.3s.6,1.3,1.3,1.3,1.3-.6,1.3-1.3-.6-1.3-1.3-1.3ZM126.3,77.6h-2.3v11h2.3v-11ZM126.4,60.5h-2.3v11h2.3v-11ZM130.6,81.9c-.7,0-1.3.6-1.3,1.3s.6,1.3,1.3,1.3,1.3-.6,1.3-1.3-.6-1.3-1.3-1.3ZM131.7,86.2h-2.3v11h2.3v-11ZM129.4,111.3h2.3v-8h-2.3v8ZM130.5,98.9c-.7,0-1.3.6-1.3,1.3s.6,1.3,1.3,1.3,1.3-.6,1.3-1.3-.6-1.3-1.3-1.3ZM121.8,86.2h-2.3v11h2.3v-11ZM120.7,81.9c-.7,0-1.3.6-1.3,1.3s.6,1.3,1.3,1.3,1.3-.6,1.3-1.3-.6-1.3-1.3-1.3ZM121.9,80.1v-11h-2.3v11h2.3ZM157.2,73.3c-.7,0-1.3.6-1.3,1.3s.6,1.3,1.3,1.3,1.3-.6,1.3-1.3-.6-1.3-1.3-1.3ZM120.7,98.9c-.7,0-1.3.6-1.3,1.3s.6,1.3,1.3,1.3,1.3-.6,1.3-1.3-.6-1.3-1.3-1.3ZM121.8,52h-2.3v11h2.3v-11ZM125.2,107.5c-.7,0-1.3.6-1.3,1.3s.6,1.3,1.3,1.3,1.3-.6,1.3-1.3-.6-1.3-1.3-1.3ZM120.7,48.1c-.7,0-1.3.6-1.3,1.3s.6,1.3,1.3,1.3,1.3-.6,1.3-1.3-.6-1.3-1.3-1.3ZM126.3,94.7h-2.3v11h2.3v-11ZM182.6,81.9c-.7,0-1.3.6-1.3,1.3s.6,1.3,1.3,1.3,1.3-.6,1.3-1.3-.6-1.3-1.3-1.3ZM192.9,81.9c-.7,0-1.3.6-1.3,1.3s.6,1.3,1.3,1.3,1.3-.6,1.3-1.3-.6-1.3-1.3-1.3ZM192.9,64.7c-.7,0-1.3.6-1.3,1.3s.6,1.3,1.3,1.3,1.3-.6,1.3-1.3-.6-1.3-1.3-1.3ZM194,80.1v-11h-2.3v11h2.3ZM194,86.2h-2.3v11h2.3v-11ZM199.9,94.7h-2.3v11h2.3v-11ZM198.8,107.5c-.7,0-1.3.6-1.3,1.3s.6,1.3,1.3,1.3,1.3-.6,1.3-1.3-.6-1.3-1.3-1.3ZM192.9,98.9c-.7,0-1.3.6-1.3,1.3s.6,1.3,1.3,1.3,1.3-.6,1.3-1.3-.6-1.3-1.3-1.3ZM194,52h-2.3v11h2.3v-11ZM192.9,48.1c-.7,0-1.3.6-1.3,1.3s.6,1.3,1.3,1.3,1.3-.6,1.3-1.3-.6-1.3-1.3-1.3ZM182.6,48.1c-.7,0-1.3.6-1.3,1.3s.6,1.3,1.3,1.3,1.3-.6,1.3-1.3-.6-1.3-1.3-1.3ZM187.6,90.4c-.7,0-1.3.6-1.3,1.3s.6,1.3,1.3,1.3,1.3-.6,1.3-1.3-.6-1.3-1.3-1.3ZM187.6,107.5c-.7,0-1.3.6-1.3,1.3s.6,1.3,1.3,1.3,1.3-.6,1.3-1.3-.6-1.3-1.3-1.3ZM188.8,94.7h-2.3v11h2.3v-11ZM198.8,90.4c-.7,0-1.3.6-1.3,1.3s.6,1.3,1.3,1.3,1.3-.6,1.3-1.3-.6-1.3-1.3-1.3ZM191.7,111.3h2.3v-8h-2.3v8ZM187.6,56.2c-.7,0-1.3.6-1.3,1.3s.6,1.3,1.3,1.3,1.3-.6,1.3-1.3-.6-1.3-1.3-1.3ZM158.3,60.5h-2.3v11h2.3v-11ZM188.8,60.5h-2.3v11h2.3v-11ZM183.7,52h-2.3v11h2.3v-11ZM187.6,73.3c-.7,0-1.3.6-1.3,1.3s.6,1.3,1.3,1.3,1.3-.6,1.3-1.3-.6-1.3-1.3-1.3ZM204,48.1c-.7,0-1.3.6-1.3,1.3s.6,1.3,1.3,1.3,1.3-.6,1.3-1.3-.6-1.3-1.3-1.3ZM209.2,107.5c-.7,0-1.3.6-1.3,1.3s.6,1.3,1.3,1.3,1.3-.6,1.3-1.3-.6-1.3-1.3-1.3ZM204,64.7c-.7,0-1.3.6-1.3,1.3s.6,1.3,1.3,1.3,1.3-.6,1.3-1.3-.6-1.3-1.3-1.3ZM205.1,52h-2.3v11h2.3v-11ZM210.4,94.7h-2.3v11h2.3v-11ZM199.9,77.6h-2.3v11h2.3v-11ZM210.4,60.5h-2.3v11h2.3v-11ZM209.2,90.4c-.7,0-1.3.6-1.3,1.3s.6,1.3,1.3,1.3,1.3-.6,1.3-1.3-.6-1.3-1.3-1.3ZM210.4,77.6h-2.3v11h2.3v-11ZM209.2,73.3c-.7,0-1.3.6-1.3,1.3s.6,1.3,1.3,1.3,1.3-.6,1.3-1.3-.6-1.3-1.3-1.3ZM198.8,56.2c-.7,0-1.3.6-1.3,1.3s.6,1.3,1.3,1.3,1.3-.6,1.3-1.3-.6-1.3-1.3-1.3ZM199.9,60.5h-2.3v11h2.3v-11ZM202.9,111.3h2.3v-8h-2.3v8ZM198.8,73.3c-.7,0-1.3.6-1.3,1.3s.6,1.3,1.3,1.3,1.3-.6,1.3-1.3-.6-1.3-1.3-1.3ZM205.1,86.2h-2.3v11h2.3v-11ZM204,81.9c-.7,0-1.3.6-1.3,1.3s.6,1.3,1.3,1.3,1.3-.6,1.3-1.3-.6-1.3-1.3-1.3ZM204,98.9c-.7,0-1.3.6-1.3,1.3s.6,1.3,1.3,1.3,1.3-.6,1.3-1.3-.6-1.3-1.3-1.3ZM205.1,69.1h-2.3v11h2.3v-11ZM188.8,77.6h-2.3v11h2.3v-11ZM168.6,94.7h-2.3v11h2.3v-11ZM167.5,90.4c-.7,0-1.3.6-1.3,1.3s.6,1.3,1.3,1.3,1.3-.6,1.3-1.3-.6-1.3-1.3-1.3ZM168.6,77.6h-2.3v11h2.3v-11ZM167.5,107.5c-.7,0-1.3.6-1.3,1.3s.6,1.3,1.3,1.3,1.3-.6,1.3-1.3-.6-1.3-1.3-1.3ZM171.6,111.3h2.3v-8h-2.3v8ZM172.7,98.9c-.7,0-1.3.6-1.3,1.3s.6,1.3,1.3,1.3,1.3-.6,1.3-1.3-.6-1.3-1.3-1.3ZM167.5,56.2c-.7,0-1.3.6-1.3,1.3s.6,1.3,1.3,1.3,1.3-.6,1.3-1.3-.6-1.3-1.3-1.3ZM167.5,73.3c-.7,0-1.3.6-1.3,1.3s.6,1.3,1.3,1.3,1.3-.6,1.3-1.3-.6-1.3-1.3-1.3ZM168.6,60.5h-2.3v11h2.3v-11ZM162.4,48.1c-.7,0-1.3.6-1.3,1.3s.6,1.3,1.3,1.3,1.3-.6,1.3-1.3-.6-1.3-1.3-1.3ZM163.6,52h-2.3v11h2.3v-11ZM161.3,111.3h2.3v-8h-2.3v8ZM162.4,98.9c-.7,0-1.3.6-1.3,1.3s.6,1.3,1.3,1.3,1.3-.6,1.3-1.3-.6-1.3-1.3-1.3ZM157.2,56.2c-.7,0-1.3.6-1.3,1.3s.6,1.3,1.3,1.3,1.3-.6,1.3-1.3-.6-1.3-1.3-1.3ZM163.6,86.2h-2.3v11h2.3v-11ZM162.4,81.9c-.7,0-1.3.6-1.3,1.3s.6,1.3,1.3,1.3,1.3-.6,1.3-1.3-.6-1.3-1.3-1.3ZM162.4,64.7c-.7,0-1.3.6-1.3,1.3s.6,1.3,1.3,1.3,1.3-.6,1.3-1.3-.6-1.3-1.3-1.3ZM163.6,69.1h-2.3v11h2.3v-11ZM177.2,107.5c-.7,0-1.3.6-1.3,1.3s.6,1.3,1.3,1.3,1.3-.6,1.3-1.3-.6-1.3-1.3-1.3ZM178.4,60.5h-2.3v11h2.3v-11ZM177.3,56.2c-.7,0-1.3.6-1.3,1.3s.6,1.3,1.3,1.3,1.3-.6,1.3-1.3-.6-1.3-1.3-1.3ZM181.4,111.3h2.3v-8h-2.3v8ZM177.2,73.3c-.7,0-1.3.6-1.3,1.3s.6,1.3,1.3,1.3,1.3-.6,1.3-1.3-.6-1.3-1.3-1.3ZM182.6,98.9c-.7,0-1.3.6-1.3,1.3s.6,1.3,1.3,1.3,1.3-.6,1.3-1.3-.6-1.3-1.3-1.3ZM183.7,69.1h-2.3v11h2.3v-11ZM105.2,73.3c-.7,0-1.3.6-1.3,1.3s.6,1.3,1.3,1.3,1.3-.6,1.3-1.3-.6-1.3-1.3-1.3ZM178.3,77.6h-2.3v11h2.3v-11ZM183.7,86.2h-2.3v11h2.3v-11ZM172.7,81.9c-.7,0-1.3.6-1.3,1.3s.6,1.3,1.3,1.3,1.3-.6,1.3-1.3-.6-1.3-1.3-1.3ZM173.9,80.1v-11h-2.3v11h2.3ZM173.8,52h-2.3v11h2.3v-11ZM172.7,64.7c-.7,0-1.3.6-1.3,1.3s.6,1.3,1.3,1.3,1.3-.6,1.3-1.3-.6-1.3-1.3-1.3ZM173.8,86.2h-2.3v11h2.3v-11ZM172.7,48.1c-.7,0-1.3.6-1.3,1.3s.6,1.3,1.3,1.3,1.3-.6,1.3-1.3-.6-1.3-1.3-1.3ZM177.2,90.4c-.7,0-1.3.6-1.3,1.3s.6,1.3,1.3,1.3,1.3-.6,1.3-1.3-.6-1.3-1.3-1.3ZM178.3,94.7h-2.3v11h2.3v-11ZM182.6,64.7c-.7,0-1.3.6-1.3,1.3s.6,1.3,1.3,1.3,1.3-.6,1.3-1.3-.6-1.3-1.3-1.3ZM146.8,56.2c-.7,0-1.3.6-1.3,1.3s.6,1.3,1.3,1.3,1.3-.6,1.3-1.3-.6-1.3-1.3-1.3ZM37.5,98.9c-.7,0-1.3.6-1.3,1.3s.6,1.3,1.3,1.3,1.3-.6,1.3-1.3-.6-1.3-1.3-1.3ZM32.3,90.4c-.7,0-1.3.6-1.3,1.3s.6,1.3,1.3,1.3,1.3-.6,1.3-1.3-.6-1.3-1.3-1.3ZM33.4,77.6h-2.3v11h2.3v-11ZM27.2,64.7c-.7,0-1.3.6-1.3,1.3s.6,1.3,1.3,1.3,1.3-.6,1.3-1.3-.6-1.3-1.3-1.3ZM32.3,107.5c-.7,0-1.3.6-1.3,1.3s.6,1.3,1.3,1.3,1.3-.6,1.3-1.3-.6-1.3-1.3-1.3ZM36.4,111.3h2.3v-8h-2.3v8ZM32.3,56.2c-.7,0-1.3.6-1.3,1.3s.6,1.3,1.3,1.3,1.3-.6,1.3-1.3-.6-1.3-1.3-1.3ZM32.3,73.3c-.7,0-1.3.6-1.3,1.3s.6,1.3,1.3,1.3,1.3-.6,1.3-1.3-.6-1.3-1.3-1.3ZM33.4,60.5h-2.3v11h2.3v-11ZM33.4,94.7h-2.3v11h2.3v-11ZM22,73.3c-.7,0-1.3.6-1.3,1.3s.6,1.3,1.3,1.3,1.3-.6,1.3-1.3-.6-1.3-1.3-1.3ZM23.1,60.5h-2.3v11h2.3v-11ZM28.4,69.1h-2.3v11h2.3v-11ZM22,56.2c-.7,0-1.3.6-1.3,1.3s.6,1.3,1.3,1.3,1.3-.6,1.3-1.3-.6-1.3-1.3-1.3ZM23.1,77.6h-2.3v11h2.3v-11ZM27.2,81.9c-.7,0-1.3.6-1.3,1.3s.6,1.3,1.3,1.3,1.3-.6,1.3-1.3-.6-1.3-1.3-1.3ZM28.3,86.2h-2.3v11h2.3v-11ZM26.1,111.3h2.3v-8h-2.3v8ZM27.2,98.9c-.7,0-1.3.6-1.3,1.3s.6,1.3,1.3,1.3,1.3-.6,1.3-1.3-.6-1.3-1.3-1.3ZM47.3,81.9c-.7,0-1.3.6-1.3,1.3s.6,1.3,1.3,1.3,1.3-.6,1.3-1.3-.6-1.3-1.3-1.3ZM38.6,86.2h-2.3v11h2.3v-11ZM48.4,86.2h-2.3v11h2.3v-11ZM47.2,50.6c.7,0,1.3-.6,1.3-1.3s-.6-1.3-1.3-1.3-1.3.6-1.3,1.3.6,1.3,1.3,1.3ZM46.2,62.9h2.3v-11h-2.3v11ZM46.2,111.3h2.3v-8h-2.3v8ZM52.4,107.5c-.7,0-1.3.6-1.3,1.3s.6,1.3,1.3,1.3,1.3-.6,1.3-1.3-.6-1.3-1.3-1.3ZM22,90.4c-.7,0-1.3.6-1.3,1.3s.6,1.3,1.3,1.3,1.3-.6,1.3-1.3-.6-1.3-1.3-1.3ZM47.3,64.7c-.7,0-1.3.6-1.3,1.3s.6,1.3,1.3,1.3,1.3-.6,1.3-1.3-.6-1.3-1.3-1.3ZM48.4,69.1h-2.3v11h2.3v-11ZM47.3,98.9c-.7,0-1.3.6-1.3,1.3s.6,1.3,1.3,1.3,1.3-.6,1.3-1.3-.6-1.3-1.3-1.3ZM43.2,94.7h-2.3v11h2.3v-11ZM42.1,107.5c-.7,0-1.3.6-1.3,1.3s.6,1.3,1.3,1.3,1.3-.6,1.3-1.3-.6-1.3-1.3-1.3ZM37.5,81.9c-.7,0-1.3.6-1.3,1.3s.6,1.3,1.3,1.3,1.3-.6,1.3-1.3-.6-1.3-1.3-1.3ZM42.1,90.4c-.7,0-1.3.6-1.3,1.3s.6,1.3,1.3,1.3,1.3-.6,1.3-1.3-.6-1.3-1.3-1.3ZM43.2,60.5h-2.3v11h2.3v-11ZM53.5,94.7h-2.3v11h2.3v-11ZM43.2,77.6h-2.3v11h2.3v-11ZM42.1,73.3c-.7,0-1.3.6-1.3,1.3s.6,1.3,1.3,1.3,1.3-.6,1.3-1.3-.6-1.3-1.3-1.3ZM42.1,56.2c-.7,0-1.3.6-1.3,1.3s.6,1.3,1.3,1.3,1.3-.6,1.3-1.3-.6-1.3-1.3-1.3ZM23.1,94.7h-2.3v11h2.3v-11ZM2.4,93.4H.2v11h2.3v-11ZM.2,76.4v11h2.3v-11H.2ZM1.3,74.6c.7,0,1.3-.6,1.3-1.3s-.6-1.3-1.3-1.3-1.3.6-1.3,1.3.6,1.3,1.3,1.3ZM5.4,111.3h2.3v-8h-2.3v8ZM6.5,98.9c-.7,0-1.3.6-1.3,1.3s.6,1.3,1.3,1.3,1.3-.6,1.3-1.3-.6-1.3-1.3-1.3ZM6.5,81.9c-.7,0-1.3.6-1.3,1.3s.6,1.3,1.3,1.3,1.3-.6,1.3-1.3-.6-1.3-1.3-1.3ZM1.3,89.1c-.7,0-1.3.6-1.3,1.3s.6,1.3,1.3,1.3,1.3-.6,1.3-1.3-.6-1.3-1.3-1.3ZM28.4,52h-2.3v11h2.3v-11ZM7.6,86.2h-2.3v11h2.3v-11ZM426.7,76.4v11h2.3v-11h-2.3ZM412.3,50.6c.7,0,1.3-.6,1.3-1.3s-.6-1.3-1.3-1.3-1.3.6-1.3,1.3.6,1.3,1.3,1.3ZM36.4,80.1h2.3v-11h-2.3v11ZM413.4,52h-2.3v11h2.3v-11ZM427.8,74.6c.7,0,1.3-.6,1.3-1.3s-.6-1.3-1.3-1.3-1.3.6-1.3,1.3.6,1.3,1.3,1.3ZM37.5,67.3c.7,0,1.3-.6,1.3-1.3s-.6-1.3-1.3-1.3-1.3.6-1.3,1.3.6,1.3,1.3,1.3ZM38.6,52h-2.3v11h2.3v-11ZM411.2,80.1h2.3v-11h-2.3v11ZM1.3,106.2c-.7,0-1.3.6-1.3,1.3s.6,1.3,1.3,1.3,1.3-.6,1.3-1.3-.6-1.3-1.3-1.3ZM18,86.2h-2.3v11h2.3v-11ZM7.6,69.1h-2.3v11h2.3v-11ZM15.7,111.3h2.3v-8h-2.3v8ZM18,69.1h-2.3v11h2.3v-11ZM16.8,98.9c-.7,0-1.3.6-1.3,1.3s.6,1.3,1.3,1.3,1.3-.6,1.3-1.3-.6-1.3-1.3-1.3ZM16.8,48.1c-.7,0-1.3.6-1.3,1.3s.6,1.3,1.3,1.3,1.3-.6,1.3-1.3-.6-1.3-1.3-1.3ZM22,107.5c-.7,0-1.3.6-1.3,1.3s.6,1.3,1.3,1.3,1.3-.6,1.3-1.3-.6-1.3-1.3-1.3ZM18,52h-2.3v11h2.3v-11ZM16.8,64.7c-.7,0-1.3.6-1.3,1.3s.6,1.3,1.3,1.3,1.3-.6,1.3-1.3-.6-1.3-1.3-1.3ZM16.8,81.9c-.7,0-1.3.6-1.3,1.3s.6,1.3,1.3,1.3,1.3-.6,1.3-1.3-.6-1.3-1.3-1.3ZM11.6,90.4c-.7,0-1.3.6-1.3,1.3s.6,1.3,1.3,1.3,1.3-.6,1.3-1.3-.6-1.3-1.3-1.3ZM12.7,94.7h-2.3v11h2.3v-11ZM11.6,107.5c-.7,0-1.3.6-1.3,1.3s.6,1.3,1.3,1.3,1.3-.6,1.3-1.3-.6-1.3-1.3-1.3ZM6.5,64.7c-.7,0-1.3.6-1.3,1.3s.6,1.3,1.3,1.3,1.3-.6,1.3-1.3-.6-1.3-1.3-1.3ZM12.7,77.6h-2.3v11h2.3v-11ZM12.7,60.5h-2.3v11h2.3v-11ZM11.6,56.2c-.7,0-1.3.6-1.3,1.3s.6,1.3,1.3,1.3,1.3-.6,1.3-1.3-.6-1.3-1.3-1.3ZM11.6,73.3c-.7,0-1.3.6-1.3,1.3s.6,1.3,1.3,1.3,1.3-.6,1.3-1.3-.6-1.3-1.3-1.3ZM57.8,81.9c-.7,0-1.3.6-1.3,1.3s.6,1.3,1.3,1.3,1.3-.6,1.3-1.3-.6-1.3-1.3-1.3ZM87.7,111.3h2.3v-8h-2.3v8ZM90,86.2h-2.3v11h2.3v-11ZM88.8,98.9c-.7,0-1.3.6-1.3,1.3s.6,1.3,1.3,1.3,1.3-.6,1.3-1.3-.6-1.3-1.3-1.3ZM84.7,60.5h-2.3v11h2.3v-11ZM83.6,56.2c-.7,0-1.3.6-1.3,1.3s.6,1.3,1.3,1.3,1.3-.6,1.3-1.3-.6-1.3-1.3-1.3ZM88.8,64.7c-.7,0-1.3.6-1.3,1.3s.6,1.3,1.3,1.3,1.3-.6,1.3-1.3-.6-1.3-1.3-1.3ZM88.8,81.9c-.7,0-1.3.6-1.3,1.3s.6,1.3,1.3,1.3,1.3-.6,1.3-1.3-.6-1.3-1.3-1.3ZM90,52h-2.3v11h2.3v-11ZM79.7,69.1h-2.3v11h2.3v-11ZM78.6,64.7c-.7,0-1.3.6-1.3,1.3s.6,1.3,1.3,1.3,1.3-.6,1.3-1.3-.6-1.3-1.3-1.3ZM78.6,48.1c-.7,0-1.3.6-1.3,1.3s.6,1.3,1.3,1.3,1.3-.6,1.3-1.3-.6-1.3-1.3-1.3ZM79.7,52h-2.3v11h2.3v-11ZM88.8,48.1c-.7,0-1.3.6-1.3,1.3s.6,1.3,1.3,1.3,1.3-.6,1.3-1.3-.6-1.3-1.3-1.3ZM83.6,107.5c-.7,0-1.3.6-1.3,1.3s.6,1.3,1.3,1.3,1.3-.6,1.3-1.3-.6-1.3-1.3-1.3ZM84.7,77.6h-2.3v11h2.3v-11ZM83.6,73.3c-.7,0-1.3.6-1.3,1.3s.6,1.3,1.3,1.3,1.3-.6,1.3-1.3-.6-1.3-1.3-1.3ZM84.7,94.7h-2.3v11h2.3v-11ZM83.6,90.4c-.7,0-1.3.6-1.3,1.3s.6,1.3,1.3,1.3,1.3-.6,1.3-1.3-.6-1.3-1.3-1.3ZM90,80.1v-11h-2.3v11h2.3ZM101.1,69.1h-2.3v11h2.3v-11ZM101.1,86.2h-2.3v11h2.3v-11ZM101.1,52h-2.3v11h2.3v-11ZM100,81.9c-.7,0-1.3.6-1.3,1.3s.6,1.3,1.3,1.3,1.3-.6,1.3-1.3-.6-1.3-1.3-1.3ZM100,64.7c-.7,0-1.3.6-1.3,1.3s.6,1.3,1.3,1.3,1.3-.6,1.3-1.3-.6-1.3-1.3-1.3ZM100,48.1c-.7,0-1.3.6-1.3,1.3s.6,1.3,1.3,1.3,1.3-.6,1.3-1.3-.6-1.3-1.3-1.3ZM105.2,90.4c-.7,0-1.3.6-1.3,1.3s.6,1.3,1.3,1.3,1.3-.6,1.3-1.3-.6-1.3-1.3-1.3ZM106.3,94.7h-2.3v11h2.3v-11ZM94.7,107.5c-.7,0-1.3.6-1.3,1.3s.6,1.3,1.3,1.3,1.3-.6,1.3-1.3-.6-1.3-1.3-1.3ZM105.2,107.5c-.7,0-1.3.6-1.3,1.3s.6,1.3,1.3,1.3,1.3-.6,1.3-1.3-.6-1.3-1.3-1.3ZM95.9,77.6h-2.3v11h2.3v-11ZM94.7,73.3c-.7,0-1.3.6-1.3,1.3s.6,1.3,1.3,1.3,1.3-.6,1.3-1.3-.6-1.3-1.3-1.3ZM94.7,90.4c-.7,0-1.3.6-1.3,1.3s.6,1.3,1.3,1.3,1.3-.6,1.3-1.3-.6-1.3-1.3-1.3ZM95.9,94.7h-2.3v11h2.3v-11ZM98.8,111.3h2.3v-8h-2.3v8ZM95.9,60.5h-2.3v11h2.3v-11ZM100,98.9c-.7,0-1.3.6-1.3,1.3s.6,1.3,1.3,1.3,1.3-.6,1.3-1.3-.6-1.3-1.3-1.3ZM94.7,56.2c-.7,0-1.3.6-1.3,1.3s.6,1.3,1.3,1.3,1.3-.6,1.3-1.3-.6-1.3-1.3-1.3ZM74.5,94.7h-2.3v11h2.3v-11ZM58.9,69.1h-2.3v11h2.3v-11ZM57.8,64.7c-.7,0-1.3.6-1.3,1.3s.6,1.3,1.3,1.3,1.3-.6,1.3-1.3-.6-1.3-1.3-1.3ZM62.9,107.5c-.7,0-1.3.6-1.3,1.3s.6,1.3,1.3,1.3,1.3-.6,1.3-1.3-.6-1.3-1.3-1.3ZM106.3,77.6h-2.3v11h2.3v-11ZM62.9,73.3c-.7,0-1.3.6-1.3,1.3s.6,1.3,1.3,1.3,1.3-.6,1.3-1.3-.6-1.3-1.3-1.3ZM64,94.7h-2.3v11h2.3v-11ZM58.9,86.2h-2.3v11h2.3v-11ZM64,60.5h-2.3v11h2.3v-11ZM62.9,90.4c-.7,0-1.3.6-1.3,1.3s.6,1.3,1.3,1.3,1.3-.6,1.3-1.3-.6-1.3-1.3-1.3ZM64,77.6h-2.3v11h2.3v-11ZM52.4,56.2c-.7,0-1.3.6-1.3,1.3s.6,1.3,1.3,1.3,1.3-.6,1.3-1.3-.6-1.3-1.3-1.3ZM57.8,98.9c-.7,0-1.3.6-1.3,1.3s.6,1.3,1.3,1.3,1.3-.6,1.3-1.3-.6-1.3-1.3-1.3ZM53.5,60.5h-2.3v11h2.3v-11ZM53.5,77.6h-2.3v11h2.3v-11ZM52.4,73.3c-.7,0-1.3.6-1.3,1.3s.6,1.3,1.3,1.3,1.3-.6,1.3-1.3-.6-1.3-1.3-1.3ZM56.7,111.3h2.3v-8h-2.3v8ZM57.8,50.6c.7,0,1.3-.6,1.3-1.3s-.6-1.3-1.3-1.3-1.3.6-1.3,1.3.6,1.3,1.3,1.3ZM78.6,81.9c-.7,0-1.3.6-1.3,1.3s.6,1.3,1.3,1.3,1.3-.6,1.3-1.3-.6-1.3-1.3-1.3ZM56.7,62.9h2.3v-11h-2.3v11ZM73.3,73.3c-.7,0-1.3.6-1.3,1.3s.6,1.3,1.3,1.3,1.3-.6,1.3-1.3-.6-1.3-1.3-1.3ZM74.5,77.6h-2.3v11h2.3v-11ZM73.3,90.4c-.7,0-1.3.6-1.3,1.3s.6,1.3,1.3,1.3,1.3-.6,1.3-1.3-.6-1.3-1.3-1.3ZM74.5,60.5h-2.3v11h2.3v-11ZM52.4,90.4c-.7,0-1.3.6-1.3,1.3s.6,1.3,1.3,1.3,1.3-.6,1.3-1.3-.6-1.3-1.3-1.3ZM79.7,86.2h-2.3v11h2.3v-11ZM78.5,98.9c-.7,0-1.3.6-1.3,1.3s.6,1.3,1.3,1.3,1.3-.6,1.3-1.3-.6-1.3-1.3-1.3ZM73.3,56.2c-.7,0-1.3.6-1.3,1.3s.6,1.3,1.3,1.3,1.3-.6,1.3-1.3-.6-1.3-1.3-1.3ZM77.4,111.3h2.3v-8h-2.3v8ZM69.2,69.1h-2.3v11h2.3v-11ZM68.1,81.9c-.7,0-1.3.6-1.3,1.3s.6,1.3,1.3,1.3,1.3-.6,1.3-1.3-.6-1.3-1.3-1.3ZM68.1,98.9c-.7,0-1.3.6-1.3,1.3s.6,1.3,1.3,1.3,1.3-.6,1.3-1.3-.6-1.3-1.3-1.3ZM69.2,86.2h-2.3v11h2.3v-11ZM67,111.3h2.3v-8h-2.3v8ZM68.1,48.1c-.7,0-1.3.6-1.3,1.3s.6,1.3,1.3,1.3,1.3-.6,1.3-1.3-.6-1.3-1.3-1.3ZM69.2,52h-2.3v11h2.3v-11ZM68.1,64.7c-.7,0-1.3.6-1.3,1.3s.6,1.3,1.3,1.3,1.3-.6,1.3-1.3-.6-1.3-1.3-1.3ZM62.9,56.2c-.7,0-1.3.6-1.3,1.3s.6,1.3,1.3,1.3,1.3-.6,1.3-1.3-.6-1.3-1.3-1.3ZM73.3,107.5c-.7,0-1.3.6-1.3,1.3s.6,1.3,1.3,1.3,1.3-.6,1.3-1.3-.6-1.3-1.3-1.3ZM354.9,107.5c-.7,0-1.3.6-1.3,1.3s.6,1.3,1.3,1.3,1.3-.6,1.3-1.3-.6-1.3-1.3-1.3ZM356,94.7h-2.3v11h2.3v-11ZM354.9,90.4c-.7,0-1.3.6-1.3,1.3s.6,1.3,1.3,1.3,1.3-.6,1.3-1.3-.6-1.3-1.3-1.3ZM349.8,48.1c-.7,0-1.3.6-1.3,1.3s.6,1.3,1.3,1.3,1.3-.6,1.3-1.3-.6-1.3-1.3-1.3ZM354.9,73.3c-.7,0-1.3.6-1.3,1.3s.6,1.3,1.3,1.3,1.3-.6,1.3-1.3-.6-1.3-1.3-1.3ZM356,77.6h-2.3v11h2.3v-11ZM359,111.3h2.3v-8h-2.3v8ZM213.3,111.3h2.3v-8h-2.3v8ZM372,86.2h-2.3v11h2.3v-11ZM356,60.5h-2.3v11h2.3v-11ZM348.7,111.3h2.3v-8h-2.3v8ZM344.6,56.2c-.7,0-1.3.6-1.3,1.3s.6,1.3,1.3,1.3,1.3-.6,1.3-1.3-.6-1.3-1.3-1.3ZM345.7,60.5h-2.3v11h2.3v-11ZM344.6,73.3c-.7,0-1.3.6-1.3,1.3s.6,1.3,1.3,1.3,1.3-.6,1.3-1.3-.6-1.3-1.3-1.3ZM351,69.1h-2.3v11h2.3v-11ZM349.8,64.7c-.7,0-1.3.6-1.3,1.3s.6,1.3,1.3,1.3,1.3-.6,1.3-1.3-.6-1.3-1.3-1.3ZM349.8,81.9c-.7,0-1.3.6-1.3,1.3s.6,1.3,1.3,1.3,1.3-.6,1.3-1.3-.6-1.3-1.3-1.3ZM351,86.2h-2.3v11h2.3v-11ZM349.8,98.9c-.7,0-1.3.6-1.3,1.3s.6,1.3,1.3,1.3,1.3-.6,1.3-1.3-.6-1.3-1.3-1.3ZM365.6,56.2c-.7,0-1.3.6-1.3,1.3s.6,1.3,1.3,1.3,1.3-.6,1.3-1.3-.6-1.3-1.3-1.3ZM365.6,90.4c-.7,0-1.3.6-1.3,1.3s.6,1.3,1.3,1.3,1.3-.6,1.3-1.3-.6-1.3-1.3-1.3ZM360.1,98.9c-.7,0-1.3.6-1.3,1.3s.6,1.3,1.3,1.3,1.3-.6,1.3-1.3-.6-1.3-1.3-1.3ZM366.7,60.5h-2.3v11h2.3v-11ZM366.7,77.6h-2.3v11h2.3v-11ZM345.7,77.6h-2.3v11h2.3v-11ZM370.9,98.9c-.7,0-1.3.6-1.3,1.3s.6,1.3,1.3,1.3,1.3-.6,1.3-1.3-.6-1.3-1.3-1.3ZM369.7,111.3h2.3v-8h-2.3v8ZM369.7,62.9h2.3v-11h-2.3v11ZM370.8,50.6c.7,0,1.3-.6,1.3-1.3s-.6-1.3-1.3-1.3-1.3.6-1.3,1.3.6,1.3,1.3,1.3ZM365.6,73.3c-.7,0-1.3.6-1.3,1.3s.6,1.3,1.3,1.3,1.3-.6,1.3-1.3-.6-1.3-1.3-1.3ZM360.1,81.9c-.7,0-1.3.6-1.3,1.3s.6,1.3,1.3,1.3,1.3-.6,1.3-1.3-.6-1.3-1.3-1.3ZM360.1,64.7c-.7,0-1.3.6-1.3,1.3s.6,1.3,1.3,1.3,1.3-.6,1.3-1.3-.6-1.3-1.3-1.3ZM361.3,69.1h-2.3v11h2.3v-11ZM366.7,94.7h-2.3v11h2.3v-11ZM361.3,86.2h-2.3v11h2.3v-11ZM365.6,107.5c-.7,0-1.3.6-1.3,1.3s.6,1.3,1.3,1.3,1.3-.6,1.3-1.3-.6-1.3-1.3-1.3ZM360.1,48.1c-.7,0-1.3.6-1.3,1.3s.6,1.3,1.3,1.3,1.3-.6,1.3-1.3-.6-1.3-1.3-1.3ZM361.3,52h-2.3v11h2.3v-11ZM318.5,81.9c-.7,0-1.3.6-1.3,1.3s.6,1.3,1.3,1.3,1.3-.6,1.3-1.3-.6-1.3-1.3-1.3ZM327.6,111.3h2.3v-8h-2.3v8ZM323.5,73.3c-.7,0-1.3.6-1.3,1.3s.6,1.3,1.3,1.3,1.3-.6,1.3-1.3-.6-1.3-1.3-1.3ZM329.9,52h-2.3v11h2.3v-11ZM328.7,98.9c-.7,0-1.3.6-1.3,1.3s.6,1.3,1.3,1.3,1.3-.6,1.3-1.3-.6-1.3-1.3-1.3ZM323.6,56.2c-.7,0-1.3.6-1.3,1.3s.6,1.3,1.3,1.3,1.3-.6,1.3-1.3-.6-1.3-1.3-1.3ZM329.9,86.2h-2.3v11h2.3v-11ZM328.7,64.7c-.7,0-1.3.6-1.3,1.3s.6,1.3,1.3,1.3,1.3-.6,1.3-1.3-.6-1.3-1.3-1.3ZM329.9,80.1v-11h-2.3v11h2.3ZM328.7,81.9c-.7,0-1.3.6-1.3,1.3s.6,1.3,1.3,1.3,1.3-.6,1.3-1.3-.6-1.3-1.3-1.3ZM324.6,60.5h-2.3v11h2.3v-11ZM324.6,77.6h-2.3v11h2.3v-11ZM319.6,52h-2.3v11h2.3v-11ZM318.5,64.7c-.7,0-1.3.6-1.3,1.3s.6,1.3,1.3,1.3,1.3-.6,1.3-1.3-.6-1.3-1.3-1.3ZM319.6,69.1h-2.3v11h2.3v-11ZM318.5,48.1c-.7,0-1.3.6-1.3,1.3s.6,1.3,1.3,1.3,1.3-.6,1.3-1.3-.6-1.3-1.3-1.3ZM323.5,90.4c-.7,0-1.3.6-1.3,1.3s.6,1.3,1.3,1.3,1.3-.6,1.3-1.3-.6-1.3-1.3-1.3ZM323.5,107.5c-.7,0-1.3.6-1.3,1.3s.6,1.3,1.3,1.3,1.3-.6,1.3-1.3-.6-1.3-1.3-1.3ZM344.6,90.4c-.7,0-1.3.6-1.3,1.3s.6,1.3,1.3,1.3,1.3-.6,1.3-1.3-.6-1.3-1.3-1.3ZM324.6,94.7h-2.3v11h2.3v-11ZM339.4,81.9c-.7,0-1.3.6-1.3,1.3s.6,1.3,1.3,1.3,1.3-.6,1.3-1.3-.6-1.3-1.3-1.3ZM339.4,64.7c-.7,0-1.3.6-1.3,1.3s.6,1.3,1.3,1.3,1.3-.6,1.3-1.3-.6-1.3-1.3-1.3ZM340.5,80.1v-11h-2.3v11h2.3ZM340.5,86.2h-2.3v11h2.3v-11ZM340.5,52h-2.3v11h2.3v-11ZM339.4,98.9c-.7,0-1.3.6-1.3,1.3s.6,1.3,1.3,1.3,1.3-.6,1.3-1.3-.6-1.3-1.3-1.3ZM345.7,94.7h-2.3v11h2.3v-11ZM344.6,107.5c-.7,0-1.3.6-1.3,1.3s.6,1.3,1.3,1.3,1.3-.6,1.3-1.3-.6-1.3-1.3-1.3ZM339.4,48.1c-.7,0-1.3.6-1.3,1.3s.6,1.3,1.3,1.3,1.3-.6,1.3-1.3-.6-1.3-1.3-1.3ZM334.4,60.5h-2.3v11h2.3v-11ZM334.4,94.7h-2.3v11h2.3v-11ZM334.4,77.6h-2.3v11h2.3v-11ZM333.3,90.4c-.7,0-1.3.6-1.3,1.3s.6,1.3,1.3,1.3,1.3-.6,1.3-1.3-.6-1.3-1.3-1.3ZM333.3,107.5c-.7,0-1.3.6-1.3,1.3s.6,1.3,1.3,1.3,1.3-.6,1.3-1.3-.6-1.3-1.3-1.3ZM333.3,73.3c-.7,0-1.3.6-1.3,1.3s.6,1.3,1.3,1.3,1.3-.6,1.3-1.3-.6-1.3-1.3-1.3ZM338.2,111.3h2.3v-8h-2.3v8ZM333.3,56.2c-.7,0-1.3.6-1.3,1.3s.6,1.3,1.3,1.3,1.3-.6,1.3-1.3-.6-1.3-1.3-1.3ZM328.7,48.1c-.7,0-1.3.6-1.3,1.3s.6,1.3,1.3,1.3,1.3-.6,1.3-1.3-.6-1.3-1.3-1.3ZM351,52h-2.3v11h2.3v-11ZM407.1,107.5c-.7,0-1.3.6-1.3,1.3s.6,1.3,1.3,1.3,1.3-.6,1.3-1.3-.6-1.3-1.3-1.3ZM408.2,77.6h-2.3v11h2.3v-11ZM407.1,73.3c-.7,0-1.3.6-1.3,1.3s.6,1.3,1.3,1.3,1.3-.6,1.3-1.3-.6-1.3-1.3-1.3ZM408.2,94.7h-2.3v11h2.3v-11ZM407.1,90.4c-.7,0-1.3.6-1.3,1.3s.6,1.3,1.3,1.3,1.3-.6,1.3-1.3-.6-1.3-1.3-1.3ZM412.3,98.9c-.7,0-1.3.6-1.3,1.3s.6,1.3,1.3,1.3,1.3-.6,1.3-1.3-.6-1.3-1.3-1.3ZM411.2,111.3h2.3v-8h-2.3v8ZM408.2,60.5h-2.3v11h2.3v-11ZM407.1,56.2c-.7,0-1.3.6-1.3,1.3s.6,1.3,1.3,1.3,1.3-.6,1.3-1.3-.6-1.3-1.3-1.3ZM401.9,81.9c-.7,0-1.3.6-1.3,1.3s.6,1.3,1.3,1.3,1.3-.6,1.3-1.3-.6-1.3-1.3-1.3ZM400.8,111.3h2.3v-8h-2.3v8ZM403,86.2h-2.3v11h2.3v-11ZM401.9,98.9c-.7,0-1.3.6-1.3,1.3s.6,1.3,1.3,1.3,1.3-.6,1.3-1.3-.6-1.3-1.3-1.3ZM396.7,56.2c-.7,0-1.3.6-1.3,1.3s.6,1.3,1.3,1.3,1.3-.6,1.3-1.3-.6-1.3-1.3-1.3ZM403,69.1h-2.3v11h2.3v-11ZM401.9,64.7c-.7,0-1.3.6-1.3,1.3s.6,1.3,1.3,1.3,1.3-.6,1.3-1.3-.6-1.3-1.3-1.3ZM413.4,86.2h-2.3v11h2.3v-11ZM403,52h-2.3v11h2.3v-11ZM401.9,48.1c-.7,0-1.3.6-1.3,1.3s.6,1.3,1.3,1.3,1.3-.6,1.3-1.3-.6-1.3-1.3-1.3ZM412.3,81.9c-.7,0-1.3.6-1.3,1.3s.6,1.3,1.3,1.3,1.3-.6,1.3-1.3-.6-1.3-1.3-1.3ZM423.7,86.2h-2.3v11h2.3v-11ZM422.6,81.9c-.7,0-1.3.6-1.3,1.3s.6,1.3,1.3,1.3,1.3-.6,1.3-1.3-.6-1.3-1.3-1.3ZM422.6,98.9c-.7,0-1.3.6-1.3,1.3s.6,1.3,1.3,1.3,1.3-.6,1.3-1.3-.6-1.3-1.3-1.3ZM423.7,69.1h-2.3v11h2.3v-11ZM427.8,89.1c-.7,0-1.3.6-1.3,1.3s.6,1.3,1.3,1.3,1.3-.6,1.3-1.3-.6-1.3-1.3-1.3ZM422.6,64.7c-.7,0-1.3.6-1.3,1.3s.6,1.3,1.3,1.3,1.3-.6,1.3-1.3-.6-1.3-1.3-1.3ZM421.4,111.3h2.3v-8h-2.3v8ZM428.9,93.4h-2.3v11h2.3v-11ZM427.8,106.2c-.7,0-1.3.6-1.3,1.3s.6,1.3,1.3,1.3,1.3-.6,1.3-1.3-.6-1.3-1.3-1.3ZM416.2,71.5h2.3v-11h-2.3v11ZM417.2,58.8c.7,0,1.3-.6,1.3-1.3s-.6-1.3-1.3-1.3-1.3.6-1.3,1.3.6,1.3,1.3,1.3ZM397.8,60.5h-2.3v11h2.3v-11ZM413.1,65c-.7,0-1.3.6-1.3,1.3s.6,1.3,1.3,1.3,1.3-.6,1.3-1.3-.6-1.3-1.3-1.3ZM417.4,73.3c-.7,0-1.3.6-1.3,1.3s.6,1.3,1.3,1.3,1.3-.6,1.3-1.3-.6-1.3-1.3-1.3ZM417.3,107.5c-.7,0-1.3.6-1.3,1.3s.6,1.3,1.3,1.3,1.3-.6,1.3-1.3-.6-1.3-1.3-1.3ZM418.5,94.7h-2.3v11h2.3v-11ZM418.5,77.6h-2.3v11h2.3v-11ZM417.4,90.4c-.7,0-1.3.6-1.3,1.3s.6,1.3,1.3,1.3,1.3-.6,1.3-1.3-.6-1.3-1.3-1.3ZM381.2,98.9c-.7,0-1.3.6-1.3,1.3s.6,1.3,1.3,1.3,1.3-.6,1.3-1.3-.6-1.3-1.3-1.3ZM396.7,73.3c-.7,0-1.3.6-1.3,1.3s.6,1.3,1.3,1.3,1.3-.6,1.3-1.3-.6-1.3-1.3-1.3ZM382.3,86.2h-2.3v11h2.3v-11ZM375.9,56.2c-.7,0-1.3.6-1.3,1.3s.6,1.3,1.3,1.3,1.3-.6,1.3-1.3-.6-1.3-1.3-1.3ZM380,111.3h2.3v-8h-2.3v8ZM370.9,81.9c-.7,0-1.3.6-1.3,1.3s.6,1.3,1.3,1.3,1.3-.6,1.3-1.3-.6-1.3-1.3-1.3ZM382.3,52h-2.3v11h2.3v-11ZM382.3,69.1h-2.3v11h2.3v-11ZM381.2,48.1c-.7,0-1.3.6-1.3,1.3s.6,1.3,1.3,1.3,1.3-.6,1.3-1.3-.6-1.3-1.3-1.3ZM381.2,64.7c-.7,0-1.3.6-1.3,1.3s.6,1.3,1.3,1.3,1.3-.6,1.3-1.3-.6-1.3-1.3-1.3ZM375.9,90.4c-.7,0-1.3.6-1.3,1.3s.6,1.3,1.3,1.3,1.3-.6,1.3-1.3-.6-1.3-1.3-1.3ZM370.9,64.7c-.7,0-1.3.6-1.3,1.3s.6,1.3,1.3,1.3,1.3-.6,1.3-1.3-.6-1.3-1.3-1.3ZM377.1,60.5h-2.3v11h2.3v-11ZM372,69.1h-2.3v11h2.3v-11ZM377.1,94.7h-2.3v11h2.3v-11ZM375.9,107.5c-.7,0-1.3.6-1.3,1.3s.6,1.3,1.3,1.3,1.3-.6,1.3-1.3-.6-1.3-1.3-1.3ZM375.9,73.3c-.7,0-1.3.6-1.3,1.3s.6,1.3,1.3,1.3,1.3-.6,1.3-1.3-.6-1.3-1.3-1.3ZM386.3,107.5c-.7,0-1.3.6-1.3,1.3s.6,1.3,1.3,1.3,1.3-.6,1.3-1.3-.6-1.3-1.3-1.3ZM377.1,77.6h-2.3v11h2.3v-11ZM381.2,81.9c-.7,0-1.3.6-1.3,1.3s.6,1.3,1.3,1.3,1.3-.6,1.3-1.3-.6-1.3-1.3-1.3ZM391.6,64.7c-.7,0-1.3.6-1.3,1.3s.6,1.3,1.3,1.3,1.3-.6,1.3-1.3-.6-1.3-1.3-1.3ZM391.6,48.1c-.7,0-1.3.6-1.3,1.3s.6,1.3,1.3,1.3,1.3-.6,1.3-1.3-.6-1.3-1.3-1.3ZM392.8,52h-2.3v11h2.3v-11ZM391.6,81.9c-.7,0-1.3.6-1.3,1.3s.6,1.3,1.3,1.3,1.3-.6,1.3-1.3-.6-1.3-1.3-1.3ZM392.8,69.1h-2.3v11h2.3v-11ZM387.5,94.7h-2.3v11h2.3v-11ZM397.8,77.6h-2.3v11h2.3v-11ZM396.7,107.5c-.7,0-1.3.6-1.3,1.3s.6,1.3,1.3,1.3,1.3-.6,1.3-1.3-.6-1.3-1.3-1.3ZM397.8,94.7h-2.3v11h2.3v-11ZM396.7,90.4c-.7,0-1.3.6-1.3,1.3s.6,1.3,1.3,1.3,1.3-.6,1.3-1.3-.6-1.3-1.3-1.3ZM387.5,77.6h-2.3v11h2.3v-11ZM387.5,60.5h-2.3v11h2.3v-11ZM392.7,86.2h-2.3v11h2.3v-11ZM386.4,90.4c-.7,0-1.3.6-1.3,1.3s.6,1.3,1.3,1.3,1.3-.6,1.3-1.3-.6-1.3-1.3-1.3ZM386.4,73.3c-.7,0-1.3.6-1.3,1.3s.6,1.3,1.3,1.3,1.3-.6,1.3-1.3-.6-1.3-1.3-1.3ZM391.6,98.9c-.7,0-1.3.6-1.3,1.3s.6,1.3,1.3,1.3,1.3-.6,1.3-1.3-.6-1.3-1.3-1.3ZM390.4,111.3h2.3v-8h-2.3v8ZM386.4,56.2c-.7,0-1.3.6-1.3,1.3s.6,1.3,1.3,1.3,1.3-.6,1.3-1.3-.6-1.3-1.3-1.3ZM354.9,56.2c-.7,0-1.3.6-1.3,1.3s.6,1.3,1.3,1.3,1.3-.6,1.3-1.3-.6-1.3-1.3-1.3ZM244.9,64.7c-.7,0-1.3.6-1.3,1.3s.6,1.3,1.3,1.3,1.3-.6,1.3-1.3-.6-1.3-1.3-1.3ZM246,52h-2.3v11h2.3v-11ZM246.1,80.1v-11h-2.3v11h2.3ZM244.9,81.9c-.7,0-1.3.6-1.3,1.3s.6,1.3,1.3,1.3,1.3-.6,1.3-1.3-.6-1.3-1.3-1.3ZM244.9,48.1c-.7,0-1.3.6-1.3,1.3s.6,1.3,1.3,1.3,1.3-.6,1.3-1.3-.6-1.3-1.3-1.3ZM250.8,90.4c-.7,0-1.3.6-1.3,1.3s.6,1.3,1.3,1.3,1.3-.6,1.3-1.3-.6-1.3-1.3-1.3ZM251.9,77.6h-2.3v11h2.3v-11ZM250.8,73.3c-.7,0-1.3.6-1.3,1.3s.6,1.3,1.3,1.3,1.3-.6,1.3-1.3-.6-1.3-1.3-1.3ZM250.8,107.5c-.7,0-1.3.6-1.3,1.3s.6,1.3,1.3,1.3,1.3-.6,1.3-1.3-.6-1.3-1.3-1.3ZM251.9,94.7h-2.3v11h2.3v-11ZM239.6,90.4c-.7,0-1.3.6-1.3,1.3s.6,1.3,1.3,1.3,1.3-.6,1.3-1.3-.6-1.3-1.3-1.3ZM240.8,77.6h-2.3v11h2.3v-11ZM240.8,94.7h-2.3v11h2.3v-11ZM239.6,73.3c-.7,0-1.3.6-1.3,1.3s.6,1.3,1.3,1.3,1.3-.6,1.3-1.3-.6-1.3-1.3-1.3ZM243.8,111.3h2.3v-8h-2.3v8ZM240.8,60.5h-2.3v11h2.3v-11ZM244.9,98.9c-.7,0-1.3.6-1.3,1.3s.6,1.3,1.3,1.3,1.3-.6,1.3-1.3-.6-1.3-1.3-1.3ZM246,86.2h-2.3v11h2.3v-11ZM239.6,56.2c-.7,0-1.3.6-1.3,1.3s.6,1.3,1.3,1.3,1.3-.6,1.3-1.3-.6-1.3-1.3-1.3ZM262.4,94.7h-2.3v11h2.3v-11ZM239.6,107.5c-.7,0-1.3.6-1.3,1.3s.6,1.3,1.3,1.3,1.3-.6,1.3-1.3-.6-1.3-1.3-1.3ZM262.4,77.6h-2.3v11h2.3v-11ZM261.2,90.4c-.7,0-1.3.6-1.3,1.3s.6,1.3,1.3,1.3,1.3-.6,1.3-1.3-.6-1.3-1.3-1.3ZM261.2,107.5c-.7,0-1.3.6-1.3,1.3s.6,1.3,1.3,1.3,1.3-.6,1.3-1.3-.6-1.3-1.3-1.3ZM262.4,60.5h-2.3v11h2.3v-11ZM261.2,56.2c-.7,0-1.3.6-1.3,1.3s.6,1.3,1.3,1.3,1.3-.6,1.3-1.3-.6-1.3-1.3-1.3ZM265.3,111.3h2.3v-8h-2.3v8ZM261.2,73.3c-.7,0-1.3.6-1.3,1.3s.6,1.3,1.3,1.3,1.3-.6,1.3-1.3-.6-1.3-1.3-1.3ZM256,48.1c-.7,0-1.3.6-1.3,1.3s.6,1.3,1.3,1.3,1.3-.6,1.3-1.3-.6-1.3-1.3-1.3ZM256,98.9c-.7,0-1.3.6-1.3,1.3s.6,1.3,1.3,1.3,1.3-.6,1.3-1.3-.6-1.3-1.3-1.3ZM251.9,60.5h-2.3v11h2.3v-11ZM254.9,111.3h2.3v-8h-2.3v8ZM257.1,86.2h-2.3v11h2.3v-11ZM250.8,56.2c-.7,0-1.3.6-1.3,1.3s.6,1.3,1.3,1.3,1.3-.6,1.3-1.3-.6-1.3-1.3-1.3ZM256,64.7c-.7,0-1.3.6-1.3,1.3s.6,1.3,1.3,1.3,1.3-.6,1.3-1.3-.6-1.3-1.3-1.3ZM257.1,52h-2.3v11h2.3v-11ZM256,81.9c-.7,0-1.3.6-1.3,1.3s.6,1.3,1.3,1.3,1.3-.6,1.3-1.3-.6-1.3-1.3-1.3ZM257.1,69.1h-2.3v11h2.3v-11ZM219.5,90.4c-.7,0-1.3.6-1.3,1.3s.6,1.3,1.3,1.3,1.3-.6,1.3-1.3-.6-1.3-1.3-1.3ZM219.5,73.3c-.7,0-1.3.6-1.3,1.3s.6,1.3,1.3,1.3,1.3-.6,1.3-1.3-.6-1.3-1.3-1.3ZM220.6,77.6h-2.3v11h2.3v-11ZM220.6,60.5h-2.3v11h2.3v-11ZM266.5,98.9c-.7,0-1.3.6-1.3,1.3s.6,1.3,1.3,1.3,1.3-.6,1.3-1.3-.6-1.3-1.3-1.3ZM223.6,111.3h2.3v-8h-2.3v8ZM224.7,98.9c-.7,0-1.3.6-1.3,1.3s.6,1.3,1.3,1.3,1.3-.6,1.3-1.3-.6-1.3-1.3-1.3ZM225.8,86.2h-2.3v11h2.3v-11ZM220.6,94.7h-2.3v11h2.3v-11ZM224.7,81.9c-.7,0-1.3.6-1.3,1.3s.6,1.3,1.3,1.3,1.3-.6,1.3-1.3-.6-1.3-1.3-1.3ZM219.5,56.2c-.7,0-1.3.6-1.3,1.3s.6,1.3,1.3,1.3,1.3-.6,1.3-1.3-.6-1.3-1.3-1.3ZM215.6,86.2h-2.3v11h2.3v-11ZM214.5,81.9c-.7,0-1.3.6-1.3,1.3s.6,1.3,1.3,1.3,1.3-.6,1.3-1.3-.6-1.3-1.3-1.3ZM215.6,69.1h-2.3v11h2.3v-11ZM219.5,107.5c-.7,0-1.3.6-1.3,1.3s.6,1.3,1.3,1.3,1.3-.6,1.3-1.3-.6-1.3-1.3-1.3ZM214.5,98.9c-.7,0-1.3.6-1.3,1.3s.6,1.3,1.3,1.3,1.3-.6,1.3-1.3-.6-1.3-1.3-1.3ZM214.5,48.1c-.7,0-1.3.6-1.3,1.3s.6,1.3,1.3,1.3,1.3-.6,1.3-1.3-.6-1.3-1.3-1.3ZM214.5,64.7c-.7,0-1.3.6-1.3,1.3s.6,1.3,1.3,1.3,1.3-.6,1.3-1.3-.6-1.3-1.3-1.3ZM215.6,52h-2.3v11h2.3v-11ZM235.8,86.2h-2.3v11h2.3v-11ZM230.4,60.5h-2.3v11h2.3v-11ZM234.6,48.1c-.7,0-1.3.6-1.3,1.3s.6,1.3,1.3,1.3,1.3-.6,1.3-1.3-.6-1.3-1.3-1.3ZM233.4,111.3h2.3v-8h-2.3v8ZM229.3,56.2c-.7,0-1.3.6-1.3,1.3s.6,1.3,1.3,1.3,1.3-.6,1.3-1.3-.6-1.3-1.3-1.3ZM234.6,98.9c-.7,0-1.3.6-1.3,1.3s.6,1.3,1.3,1.3,1.3-.6,1.3-1.3-.6-1.3-1.3-1.3ZM234.6,64.7c-.7,0-1.3.6-1.3,1.3s.6,1.3,1.3,1.3,1.3-.6,1.3-1.3-.6-1.3-1.3-1.3ZM235.8,52h-2.3v11h2.3v-11ZM235.8,69.1h-2.3v11h2.3v-11ZM234.6,81.9c-.7,0-1.3.6-1.3,1.3s.6,1.3,1.3,1.3,1.3-.6,1.3-1.3-.6-1.3-1.3-1.3ZM230.4,94.7h-2.3v11h2.3v-11ZM224.7,48.1c-.7,0-1.3.6-1.3,1.3s.6,1.3,1.3,1.3,1.3-.6,1.3-1.3-.6-1.3-1.3-1.3ZM229.2,107.5c-.7,0-1.3.6-1.3,1.3s.6,1.3,1.3,1.3,1.3-.6,1.3-1.3-.6-1.3-1.3-1.3ZM225.8,52h-2.3v11h2.3v-11ZM224.7,64.7c-.7,0-1.3.6-1.3,1.3s.6,1.3,1.3,1.3,1.3-.6,1.3-1.3-.6-1.3-1.3-1.3ZM230.4,77.6h-2.3v11h2.3v-11ZM225.9,80.1v-11h-2.3v11h2.3ZM229.2,73.3c-.7,0-1.3.6-1.3,1.3s.6,1.3,1.3,1.3,1.3-.6,1.3-1.3-.6-1.3-1.3-1.3ZM229.2,90.4c-.7,0-1.3.6-1.3,1.3s.6,1.3,1.3,1.3,1.3-.6,1.3-1.3-.6-1.3-1.3-1.3ZM272.6,94.7h-2.3v11h2.3v-11ZM303.9,60.5h-2.3v11h2.3v-11ZM296.9,48.1c-.7,0-1.3.6-1.3,1.3s.6,1.3,1.3,1.3,1.3-.6,1.3-1.3-.6-1.3-1.3-1.3ZM302.8,107.5c-.7,0-1.3.6-1.3,1.3s.6,1.3,1.3,1.3,1.3-.6,1.3-1.3-.6-1.3-1.3-1.3ZM296.9,64.7c-.7,0-1.3.6-1.3,1.3s.6,1.3,1.3,1.3,1.3-.6,1.3-1.3-.6-1.3-1.3-1.3ZM303.9,77.6h-2.3v11h2.3v-11ZM302.8,73.3c-.7,0-1.3.6-1.3,1.3s.6,1.3,1.3,1.3,1.3-.6,1.3-1.3-.6-1.3-1.3-1.3ZM298.1,80.1v-11h-2.3v11h2.3ZM303.9,94.7h-2.3v11h2.3v-11ZM302.8,90.4c-.7,0-1.3.6-1.3,1.3s.6,1.3,1.3,1.3,1.3-.6,1.3-1.3-.6-1.3-1.3-1.3ZM298,52h-2.3v11h2.3v-11ZM292.8,60.5h-2.3v11h2.3v-11ZM291.7,56.2c-.7,0-1.3.6-1.3,1.3s.6,1.3,1.3,1.3,1.3-.6,1.3-1.3-.6-1.3-1.3-1.3ZM291.7,73.3c-.7,0-1.3.6-1.3,1.3s.6,1.3,1.3,1.3,1.3-.6,1.3-1.3-.6-1.3-1.3-1.3ZM296.9,81.9c-.7,0-1.3.6-1.3,1.3s.6,1.3,1.3,1.3,1.3-.6,1.3-1.3-.6-1.3-1.3-1.3ZM292.8,77.6h-2.3v11h2.3v-11ZM298,86.2h-2.3v11h2.3v-11ZM291.7,90.4c-.7,0-1.3.6-1.3,1.3s.6,1.3,1.3,1.3,1.3-.6,1.3-1.3-.6-1.3-1.3-1.3ZM296.9,98.9c-.7,0-1.3.6-1.3,1.3s.6,1.3,1.3,1.3,1.3-.6,1.3-1.3-.6-1.3-1.3-1.3ZM295.8,111.3h2.3v-8h-2.3v8ZM313.3,73.3c-.7,0-1.3.6-1.3,1.3s.6,1.3,1.3,1.3,1.3-.6,1.3-1.3-.6-1.3-1.3-1.3ZM314.4,77.6h-2.3v11h2.3v-11ZM313.3,90.4c-.7,0-1.3.6-1.3,1.3s.6,1.3,1.3,1.3,1.3-.6,1.3-1.3-.6-1.3-1.3-1.3ZM313.3,107.5c-.7,0-1.3.6-1.3,1.3s.6,1.3,1.3,1.3,1.3-.6,1.3-1.3-.6-1.3-1.3-1.3ZM314.4,94.7h-2.3v11h2.3v-11ZM317.4,111.3h2.3v-8h-2.3v8ZM314.4,60.5h-2.3v11h2.3v-11ZM318.5,98.9c-.7,0-1.3.6-1.3,1.3s.6,1.3,1.3,1.3,1.3-.6,1.3-1.3-.6-1.3-1.3-1.3ZM313.3,56.2c-.7,0-1.3.6-1.3,1.3s.6,1.3,1.3,1.3,1.3-.6,1.3-1.3-.6-1.3-1.3-1.3ZM308,98.9c-.7,0-1.3.6-1.3,1.3s.6,1.3,1.3,1.3,1.3-.6,1.3-1.3-.6-1.3-1.3-1.3ZM309.2,86.2h-2.3v11h2.3v-11ZM302.8,56.2c-.7,0-1.3.6-1.3,1.3s.6,1.3,1.3,1.3,1.3-.6,1.3-1.3-.6-1.3-1.3-1.3ZM308,81.9c-.7,0-1.3.6-1.3,1.3s.6,1.3,1.3,1.3,1.3-.6,1.3-1.3-.6-1.3-1.3-1.3ZM306.9,111.3h2.3v-8h-2.3v8ZM308,64.7c-.7,0-1.3.6-1.3,1.3s.6,1.3,1.3,1.3,1.3-.6,1.3-1.3-.6-1.3-1.3-1.3ZM309.2,52h-2.3v11h2.3v-11ZM267.6,86.2h-2.3v11h2.3v-11ZM309.2,69.1h-2.3v11h2.3v-11ZM308,48.1c-.7,0-1.3.6-1.3,1.3s.6,1.3,1.3,1.3,1.3-.6,1.3-1.3-.6-1.3-1.3-1.3ZM271.6,56.2c-.7,0-1.3.6-1.3,1.3s.6,1.3,1.3,1.3,1.3-.6,1.3-1.3-.6-1.3-1.3-1.3ZM272.6,60.5h-2.3v11h2.3v-11ZM271.5,73.3c-.7,0-1.3.6-1.3,1.3s.6,1.3,1.3,1.3,1.3-.6,1.3-1.3-.6-1.3-1.3-1.3ZM275.6,111.3h2.3v-8h-2.3v8ZM277.9,80.1v-11h-2.3v11h2.3ZM276.7,98.9c-.7,0-1.3.6-1.3,1.3s.6,1.3,1.3,1.3,1.3-.6,1.3-1.3-.6-1.3-1.3-1.3ZM272.6,77.6h-2.3v11h2.3v-11ZM276.7,81.9c-.7,0-1.3.6-1.3,1.3s.6,1.3,1.3,1.3,1.3-.6,1.3-1.3-.6-1.3-1.3-1.3ZM276.7,64.7c-.7,0-1.3.6-1.3,1.3s.6,1.3,1.3,1.3,1.3-.6,1.3-1.3-.6-1.3-1.3-1.3ZM277.9,86.2h-2.3v11h2.3v-11ZM266.5,64.7c-.7,0-1.3.6-1.3,1.3s.6,1.3,1.3,1.3,1.3-.6,1.3-1.3-.6-1.3-1.3-1.3ZM267.6,69.1h-2.3v11h2.3v-11ZM271.5,90.4c-.7,0-1.3.6-1.3,1.3s.6,1.3,1.3,1.3,1.3-.6,1.3-1.3-.6-1.3-1.3-1.3ZM266.5,81.9c-.7,0-1.3.6-1.3,1.3s.6,1.3,1.3,1.3,1.3-.6,1.3-1.3-.6-1.3-1.3-1.3ZM267.6,52h-2.3v11h2.3v-11ZM319.6,86.2h-2.3v11h2.3v-11ZM271.5,107.5c-.7,0-1.3.6-1.3,1.3s.6,1.3,1.3,1.3,1.3-.6,1.3-1.3-.6-1.3-1.3-1.3ZM266.5,48.1c-.7,0-1.3.6-1.3,1.3s.6,1.3,1.3,1.3,1.3-.6,1.3-1.3-.6-1.3-1.3-1.3ZM286.6,48.1c-.7,0-1.3.6-1.3,1.3s.6,1.3,1.3,1.3,1.3-.6,1.3-1.3-.6-1.3-1.3-1.3ZM287.8,86.2h-2.3v11h2.3v-11ZM286.6,81.9c-.7,0-1.3.6-1.3,1.3s.6,1.3,1.3,1.3,1.3-.6,1.3-1.3-.6-1.3-1.3-1.3ZM287.8,69.1h-2.3v11h2.3v-11ZM285.5,111.3h2.3v-8h-2.3v8ZM286.6,98.9c-.7,0-1.3.6-1.3,1.3s.6,1.3,1.3,1.3,1.3-.6,1.3-1.3-.6-1.3-1.3-1.3ZM292.8,94.7h-2.3v11h2.3v-11ZM277.9,52h-2.3v11h2.3v-11ZM287.8,52h-2.3v11h2.3v-11ZM286.6,64.7c-.7,0-1.3.6-1.3,1.3s.6,1.3,1.3,1.3,1.3-.6,1.3-1.3-.6-1.3-1.3-1.3ZM291.7,107.5c-.7,0-1.3.6-1.3,1.3s.6,1.3,1.3,1.3,1.3-.6,1.3-1.3-.6-1.3-1.3-1.3ZM281.2,107.5c-.7,0-1.3.6-1.3,1.3s.6,1.3,1.3,1.3,1.3-.6,1.3-1.3-.6-1.3-1.3-1.3ZM281.3,56.2c-.7,0-1.3.6-1.3,1.3s.6,1.3,1.3,1.3,1.3-.6,1.3-1.3-.6-1.3-1.3-1.3ZM276.7,48.1c-.7,0-1.3.6-1.3,1.3s.6,1.3,1.3,1.3,1.3-.6,1.3-1.3-.6-1.3-1.3-1.3ZM281.2,90.4c-.7,0-1.3.6-1.3,1.3s.6,1.3,1.3,1.3,1.3-.6,1.3-1.3-.6-1.3-1.3-1.3ZM282.4,94.7h-2.3v11h2.3v-11ZM282.4,60.5h-2.3v11h2.3v-11ZM281.2,73.3c-.7,0-1.3.6-1.3,1.3s.6,1.3,1.3,1.3,1.3-.6,1.3-1.3-.6-1.3-1.3-1.3ZM282.4,77.6h-2.3v11h2.3v-11Z"/>
</svg>