<svg width="24" height="24" viewBox="0 0 24 24" fill="none" xmlns="http://www.w3.org/2000/svg">
    <path d="M7.615 20c-.444 0-.824-.159-1.14-.475A1.556 1.556 0 0 1 6 18.384V5.999h-.5a.483.483 0 0 1-.356-.144A.485.485 0 0 1 5 5.498c0-.141.048-.26.144-.356A.485.485 0 0 1 5.5 5H9c0-.206.077-.386.23-.54a.739.739 0 0 1 .54-.229h4.46c.207 0 .387.077.54.23A.74.74 0 0 1 15 5h3.5c.142 0 .26.047.356.143A.485.485 0 0 1 19 5.5c0 .142-.048.26-.144.356a.484.484 0 0 1-.356.143H18v12.385c0 .444-.158.824-.474 1.14a1.555 1.555 0 0 1-1.142.475H7.616zM17 6H7v12.384a.6.6 0 0 0 .173.442.6.6 0 0 0 .442.173h8.77a.6.6 0 0 0 .442-.173.6.6 0 0 0 .173-.442V5.999zm-6.692 11c.142 0 .261-.049.357-.145a.485.485 0 0 0 .143-.356v-8a.483.483 0 0 0-.144-.356.485.485 0 0 0-.357-.144.483.483 0 0 0-.356.144.485.485 0 0 0-.143.356v8c0 .142.048.26.144.357a.484.484 0 0 0 .356.143zm3.385 0c.142 0 .26-.049.356-.145a.485.485 0 0 0 .143-.356v-8a.484.484 0 0 0-.144-.356.484.484 0 0 0-.356-.144.483.483 0 0 0-.357.144.485.485 0 0 0-.143.356v8c0 .142.048.26.144.357a.485.485 0 0 0 .357.143z" fill="#333"/>
</svg>
