<svg width="382" height="55" viewBox="0 0 380 55" fill="none" xmlns="http://www.w3.org/2000/svg">
  <path d="M173 12.5H19C10.9919 12.5 4.5 18.9919 4.5 27V70C4.5 75.2467 8.7533 79.5 14 79.5H202.5V42C202.5 25.7076 189.292 12.5 173 12.5Z" fill="#E5E5E5" stroke="#BBBBBB"/>
  <path d="M352 0.5H228.424C212.4 0.5 197.5 8.73376 188.973 22.3008C187.931 23.959 186.788 25.5588 185.478 27.0353C182.799 30.055 177.54 35.654 171.375 40.5021C165.236 45.3303 158.09 49.5 151.653 49.5H151.576H151.498H151.419H151.337H151.253H151.167H151.08H150.99H150.899H150.806H150.711H150.614H150.515H150.415H150.312H150.208H150.102H149.994H149.884H149.773H149.66H149.545H149.428H149.309H149.189H149.066H148.942H148.817H148.689H148.56H148.429H148.297H148.162H148.026H147.888H147.749H147.608H147.465H147.32H147.174H147.026H146.877H146.726H146.573H146.419H146.263H146.105H145.946H145.785H145.622H145.458H145.292H145.125H144.956H144.786H144.614H144.44H144.265H144.088H143.91H143.731H143.549H143.367H143.182H142.997H142.809H142.621H142.43H142.239H142.046H141.851H141.655H141.457H141.258H141.058H140.856H140.653H140.448H140.242H140.035H139.826H139.615H139.404H139.191H138.976H138.761H138.543H138.325H138.105H137.884H137.662H137.438H137.213H136.986H136.759H136.53H136.299H136.068H135.835H135.601H135.365H135.129H134.891H134.652H134.411H134.17H133.927H133.683H133.438H133.191H132.944H132.695H132.445H132.194H131.941H131.688H131.433H131.177H130.92H130.662H130.403H130.143H129.881H129.619H129.355H129.09H128.824H128.558H128.29H128.021H127.75H127.479H127.207H126.934H126.66H126.384H126.108H125.831H125.552H125.273H124.993H124.711H124.429H124.146H123.861H123.576H123.29H123.003H122.715H122.426H122.136H121.845H121.553H121.261H120.967H120.673H120.377H120.081H119.784H119.486H119.187H118.888H118.587H118.286H117.984H117.681H117.377H117.072H116.767H116.461H116.154H115.846H115.537H115.228H114.918H114.607H114.295H113.983H113.67H113.356H113.041H112.726H112.41H112.093H111.776H111.458H111.139H110.82H110.499H110.179H109.857H109.535H109.212H108.889H108.565H108.24H107.915H107.589H107.263H106.936H106.608H106.28H105.951H105.621H105.291H104.961H104.63H104.298H103.966H103.633H103.3H102.966H102.632H102.297H101.962H101.626H101.29H100.953H100.616H100.279H99.9406H99.602H99.263H98.9236H98.5838H98.2435H97.9028H97.5617H97.2202H96.8783H96.536H96.1934H95.8503H95.5069H95.1631H94.819H94.4745H94.1296H93.7845H93.439H93.0931H92.747H92.4005H92.0538H91.7068H91.3594H91.0118H90.6639H90.3157H89.9673H89.6186H89.2697H88.9205H88.5711H88.2215H87.8716H87.5215H87.1712H86.8207H86.4701H86.1192H85.7681H85.4169H85.0655H84.7139H84.3622H84.0103H83.6583H83.3062H82.9539H82.6015H82.249H81.8964H81.5436H81.1908H80.8379H80.4849H80.1319H79.7787H79.4255H79.0723H78.719H78.3657H78.0123H77.6589H77.3055H76.952H76.5986H76.2451H75.8917H75.5382H75.1848H74.8315H74.4781H74.1248H73.7715H73.4183H73.0651H72.712H72.359H72.0061H71.6532H71.3005H70.9478H70.5952H70.2428H69.8905H69.5383H69.1862H68.8343H68.4825H68.1309H67.7794H67.4281H67.077H66.726H66.3752H66.0247H65.6743H65.3241H64.9742H64.6245H64.2749H63.9257H63.5766H63.2278H62.8793H62.531H62.183H61.8353H61.4879H61.1407H60.7938H60.4472H60.101H59.755H59.4094H59.0641H58.7191H58.3745H58.0302H57.6863H57.3427H56.9995H56.6567H56.3142H55.9722H55.6305H55.2892H54.9484H54.6079H54.2679H53.9283H53.5892H53.2505H52.9122H52.5743H52.237H51.9001H51.5637H51.2278H50.8923H50.5574H50.2229H49.889H49.5555H49.2227H48.8903H48.5584H48.2271H47.8964H47.5662H47.2365H46.9075H46.579H46.2511H45.9237H45.597H45.2709H44.9454H44.6205H44.2962H43.9725H43.6495H43.3271H43.0054H42.6844H42.364H42.0442H41.7251H41.4068H41.0891H40.7721H40.4558H40.1402H39.8253H39.5112H39.1978H38.8851H38.5731H38.2619H37.9515H37.6418H37.3329H37.0248H36.7175H36.4109H36.1052H35.8002H35.4961H35.1927H34.8902H34.5885H34.2877H33.9877H33.6885H33.3903H33.0928H32.7963H32.5006H32.2058H31.9119H31.6189H31.3268H31.0356H30.7453H30.4559H30.1675H29.88H29.5935H29.3079H29.0232H28.7396H28.4568H28.1751H27.8944H27.6146H27.3359H27.0581H26.7814H26.5056H26.231H25.9573H25.6846H25.4131H25.1425H24.873H24.6046H24.3373H24.071H23.8058H23.5417H23.2787H23.0168H22.7561H22.4964H22.2379H21.9805H21.7242H21.4691H21.2151H20.9623H20.7106H20.4602H20.2109H19.9628H19.7158H19.4701H19.2256H18.9823H18.7402H18.4993H18.2597H18.0213H17.7841H17.5482H17.3136H17.0803H16.8481H16.6173H16.3878H16.1595H15.9326H15.707H15.4826H15.2596H15.0379H14.8176H14.5986H14.3809H14.1646H13.9496H13.7361H13.5238H13.313H13.1035H12.8955H12.6888H12.4836H12.2798H12.0773H11.8763H11.6768H11.4786H11.282H11.0867H10.893H10.7007H10.5099H10.3205H10.1327H9.94629C4.70309 49.5 0.5 53.7498 0.5 59V87C0.5 92.2467 4.7533 96.5 10 96.5H381.5V30C381.5 13.7076 368.292 0.5 352 0.5Z" fill="url(#paint0_linear_9579_30323)" stroke="#E4E4E4"/>
  <defs>
    <linearGradient id="paint0_linear_9579_30323" x1="382" y1="48.5" x2="-19.9998" y2="48.5" gradientUnits="userSpaceOnUse">
      <stop stop-color="#A60502"/>
      <stop offset="1" stop-color="#910502"/>
    </linearGradient>
  </defs>
</svg>
