<svg width="25" height="24" viewBox="0 0 25 24" fill="none" xmlns="http://www.w3.org/2000/svg">
    <mask id="6gwkfjqkva" style="mask-type:alpha" maskUnits="userSpaceOnUse" x="0" y="0" width="25" height="24">
        <path fill="#D9D9D9" d="M.5 0h24v24H.5z"/>
    </mask>
    <g mask="url(#6gwkfjqkva)">
        <path d="M17.11 21a2.292 2.292 0 0 1-1.687-.695 2.305 2.305 0 0 1-.692-1.69c0-.1.044-.352.133-.757l-7.199-4.274c-.215.25-.48.446-.793.588a2.415 2.415 0 0 1-1.006.212 2.261 2.261 0 0 1-1.676-.701A2.315 2.315 0 0 1 3.5 12c0-.654.23-1.215.69-1.683a2.261 2.261 0 0 1 1.675-.701c.358 0 .694.07 1.007.212.314.142.578.338.793.588l7.199-4.255a2.24 2.24 0 0 1-.133-.776c0-.663.232-1.226.697-1.69A2.307 2.307 0 0 1 17.12 3c.664 0 1.226.232 1.688.697.461.464.692 1.029.692 1.692 0 .664-.232 1.226-.695 1.688a2.305 2.305 0 0 1-1.69.692c-.361 0-.694-.074-1-.222a2.402 2.402 0 0 1-.78-.597l-7.199 4.273A2.238 2.238 0 0 1 8.27 12a2.238 2.238 0 0 1-.133.777l7.199 4.273c.215-.25.475-.449.78-.597a2.257 2.257 0 0 1 1-.222c.663 0 1.226.232 1.69.696.463.465.695 1.03.695 1.693a2.29 2.29 0 0 1-.697 1.688 2.312 2.312 0 0 1-1.692.692zm.006-1c.392 0 .72-.133.986-.398a1.34 1.34 0 0 0 .398-.986 1.34 1.34 0 0 0-.398-.987 1.34 1.34 0 0 0-.986-.398 1.34 1.34 0 0 0-.987.398 1.34 1.34 0 0 0-.398.986c0 .393.132.722.398.987.265.265.594.398.986.398zm-11.25-6.616c.397 0 .73-.132 1-.398A1.33 1.33 0 0 0 7.268 12a1.33 1.33 0 0 0-.404-.986 1.368 1.368 0 0 0-1-.398c-.386 0-.71.132-.973.398A1.35 1.35 0 0 0 4.5 12c0 .392.13.721.393.986.261.266.586.398.973.398zm11.25-6.615c.392 0 .72-.132.986-.398a1.34 1.34 0 0 0 .398-.987 1.34 1.34 0 0 0-.398-.986A1.34 1.34 0 0 0 17.116 4a1.34 1.34 0 0 0-.987.398 1.34 1.34 0 0 0-.398.987c0 .392.132.72.398.986.265.266.594.398.986.398z" fill="#F4F4F4"/>
    </g>
</svg>
