<svg width="390" height="55" viewBox="0 0 390 55" fill="none" xmlns="http://www.w3.org/2000/svg">

  <g mask="url(#mask0_9579_30312)">
    <path d="M208 12.5H362C370.008 12.5 376.5 18.9919 376.5 27V70C376.5 75.2467 372.247 79.5 367 79.5H178.5V42C178.5 25.7076 191.708 12.5 208 12.5Z" fill="#E5E5E5" stroke="#BBBBBB"/>
    <path d="M29 0.5H152.576C168.6 0.5 183.5 8.73376 192.027 22.3008C193.069 23.959 194.212 25.5588 195.522 27.0353C198.201 30.055 203.46 35.654 209.625 40.5021C215.764 45.3303 222.91 49.5 229.347 49.5H229.424H229.502H229.581H229.663H229.747H229.833H229.92H230.01H230.101H230.194H230.289H230.386H230.485H230.585H230.688H230.792H230.898H231.006H231.116H231.227H231.34H231.455H231.572H231.691H231.811H231.934H232.058H232.183H232.311H232.44H232.571H232.703H232.838H232.974H233.112H233.251H233.392H233.535H233.68H233.826H233.974H234.123H234.274H234.427H234.581H234.737H234.895H235.054H235.215H235.378H235.542H235.708H235.875H236.044H236.214H236.386H236.56H236.735H236.912H237.09H237.269H237.451H237.633H237.818H238.003H238.191H238.379H238.57H238.761H238.954H239.149H239.345H239.543H239.742H239.942H240.144H240.347H240.552H240.758H240.965H241.174H241.385H241.596H241.809H242.024H242.239H242.457H242.675H242.895H243.116H243.338H243.562H243.787H244.014H244.241H244.47H244.701H244.932H245.165H245.399H245.635H245.871H246.109H246.348H246.589H246.83H247.073H247.317H247.562H247.809H248.056H248.305H248.555H248.806H249.059H249.312H249.567H249.823H250.08H250.338H250.597H250.857H251.119H251.381H251.645H251.91H252.176H252.442H252.71H252.979H253.25H253.521H253.793H254.066H254.34H254.616H254.892H255.169H255.448H255.727H256.007H256.289H256.571H256.854H257.139H257.424H257.71H257.997H258.285H258.574H258.864H259.155H259.447H259.739H260.033H260.327H260.623H260.919H261.216H261.514H261.813H262.112H262.413H262.714H263.016H263.319H263.623H263.928H264.233H264.539H264.846H265.154H265.463H265.772H266.082H266.393H266.705H267.017H267.33H267.644H267.959H268.274H268.59H268.907H269.224H269.542H269.861H270.18H270.501H270.821H271.143H271.465H271.788H272.111H272.435H272.76H273.085H273.411H273.737H274.064H274.392H274.72H275.049H275.379H275.709H276.039H276.37H276.702H277.034H277.367H277.7H278.034H278.368H278.703H279.038H279.374H279.71H280.047H280.384H280.721H281.059H281.398H281.737H282.076H282.416H282.757H283.097H283.438H283.78H284.122H284.464H284.807H285.15H285.493H285.837H286.181H286.526H286.87H287.216H287.561H287.907H288.253H288.599H288.946H289.293H289.641H289.988H290.336H290.684H291.033H291.381H291.73H292.079H292.429H292.779H293.128H293.478H293.829H294.179H294.53H294.881H295.232H295.583H295.935H296.286H296.638H296.99H297.342H297.694H298.046H298.398H298.751H299.104H299.456H299.809H300.162H300.515H300.868H301.221H301.574H301.928H302.281H302.634H302.988H303.341H303.695H304.048H304.401H304.755H305.108H305.462H305.815H306.169H306.522H306.875H307.228H307.582H307.935H308.288H308.641H308.994H309.347H309.7H310.052H310.405H310.757H311.11H311.462H311.814H312.166H312.518H312.869H313.221H313.572H313.923H314.274H314.625H314.975H315.326H315.676H316.026H316.376H316.725H317.074H317.423H317.772H318.121H318.469H318.817H319.165H319.512H319.859H320.206H320.553H320.899H321.245H321.591H321.936H322.281H322.626H322.97H323.314H323.657H324H324.343H324.686H325.028H325.37H325.711H326.052H326.392H326.732H327.072H327.411H327.75H328.088H328.426H328.763H329.1H329.436H329.772H330.108H330.443H330.777H331.111H331.444H331.777H332.11H332.442H332.773H333.104H333.434H333.763H334.093H334.421H334.749H335.076H335.403H335.729H336.055H336.38H336.704H337.027H337.35H337.673H337.995H338.316H338.636H338.956H339.275H339.593H339.911H340.228H340.544H340.86H341.175H341.489H341.802H342.115H342.427H342.738H343.048H343.358H343.667H343.975H344.283H344.589H344.895H345.2H345.504H345.807H346.11H346.411H346.712H347.012H347.311H347.61H347.907H348.204H348.499H348.794H349.088H349.381H349.673H349.964H350.255H350.544H350.832H351.12H351.407H351.692H351.977H352.26H352.543H352.825H353.106H353.385H353.664H353.942H354.219H354.494H354.769H355.043H355.315H355.587H355.857H356.127H356.395H356.663H356.929H357.194H357.458H357.721H357.983H358.244H358.504H358.762H359.02H359.276H359.531H359.785H360.038H360.289H360.54H360.789H361.037H361.284H361.53H361.774H362.018H362.26H362.501H362.74H362.979H363.216H363.452H363.686H363.92H364.152H364.383H364.612H364.84H365.067H365.293H365.517H365.74H365.962H366.182H366.401H366.619H366.835H367.05H367.264H367.476H367.687H367.896H368.104H368.311H368.516H368.72H368.923H369.124H369.323H369.521H369.718H369.913H370.107H370.299H370.49H370.679H370.867H371.054C376.297 49.5 380.5 53.7498 380.5 59V87C380.5 92.2467 376.247 96.5 371 96.5H-0.5V30C-0.5 13.7076 12.7076 0.5 29 0.5Z" fill="url(#paint0_linear_9579_30312)" stroke="#E4E4E4"/>
  </g>
  <defs>
    <linearGradient id="paint0_linear_9579_30312" x1="-1" y1="48.5" x2="401" y2="48.5" gradientUnits="userSpaceOnUse">
      <stop stop-color="#A60502"/>
      <stop offset="1" stop-color="#910502"/>
    </linearGradient>
  </defs>
</svg>
