<?xml version="1.0" encoding="UTF-8"?>
<svg id="Layer_1" data-name="Layer 1" xmlns="http://www.w3.org/2000/svg" xmlns:xlink="http://www.w3.org/1999/xlink" version="1.1" viewBox="0 0 430 110">
  <defs>
    <style>
      .cls-1 {
        clip-path: url(#clippath);
      }

      .cls-2 {
        fill: none;
      }

      .cls-2, .cls-3, .cls-4, .cls-5, .cls-6, .cls-7, .cls-8, .cls-9, .cls-10 {
        stroke-width: 0px;
      }

      .cls-3 {
        fill: url(#linear-gradient);
      }

      .cls-11 {
        opacity: .8;
      }

      .cls-4 {
        fill: url(#linear-gradient-4);
      }

      .cls-5 {
        fill: url(#linear-gradient-2);
      }

      .cls-6 {
        fill: url(#linear-gradient-3);
      }

      .cls-7 {
        fill: url(#linear-gradient-8);
      }

      .cls-8 {
        fill: url(#linear-gradient-7);
      }

      .cls-9 {
        fill: url(#linear-gradient-5);
      }

      .cls-10 {
        fill: url(#linear-gradient-6);
      }

      .cls-12 {
        isolation: isolate;
      }

      .cls-13 {
        mix-blend-mode: multiply;
        opacity: .3;
      }
    </style>
    <clipPath id="clippath">
      <rect class="cls-2" width="430" height="110"/>
    </clipPath>
    <linearGradient id="linear-gradient" x1="1091.9" y1="-1445" x2="1091.9" y2="-1327.1" gradientTransform="translate(1139.1 1484.1) rotate(-180) scale(1 -1)" gradientUnits="userSpaceOnUse">
      <stop offset="0" stop-color="#d0301e" stop-opacity="0"/>
      <stop offset="1" stop-color="#c80600"/>
    </linearGradient>
    <linearGradient id="linear-gradient-2" x1="1117.1" x2="1117.1" xlink:href="#linear-gradient"/>
    <linearGradient id="linear-gradient-3" x1="1065.8" x2="1065.8" xlink:href="#linear-gradient"/>
    <linearGradient id="linear-gradient-4" x1="1031.4" x2="1031.4" xlink:href="#linear-gradient"/>
    <linearGradient id="linear-gradient-5" x1="896.4" x2="896.4" xlink:href="#linear-gradient"/>
    <linearGradient id="linear-gradient-6" x1="745" x2="745" xlink:href="#linear-gradient"/>
    <linearGradient id="linear-gradient-7" x1="711.3" y1="-1412.1" x2="711.3" y2="-1324" xlink:href="#linear-gradient"/>
    <linearGradient id="linear-gradient-8" x1="1137.8" y1="-1412.1" x2="1137.8" y2="-1324" xlink:href="#linear-gradient"/>
  </defs>
  <g class="cls-1">
    <g id="Layer_1-2" data-name="Layer 1">
      <g class="cls-12">
        <g id="Layer_1-2" data-name="Layer 1-2">
          <g id="Layer_1-2-2" data-name="Layer 1-2">
            <g class="cls-11">
              <g>
                <g class="cls-13">
                  <path class="cls-3" d="M47.2,48.1c-.7,0-1.3.6-1.3,1.3s.6,1.3,1.3,1.3,1.3-.6,1.3-1.3-.6-1.3-1.3-1.3M52.4,110.1c.7,0,1.3-.6,1.3-1.3s-.6-1.3-1.3-1.3-1.3.6-1.3,1.3.6,1.3,1.3,1.3M53.5,122.8v-11h-2.3v11h2.3ZM52.4,127.2c.7,0,1.3-.6,1.3-1.3s-.6-1.3-1.3-1.3-1.3.6-1.3,1.3.6,1.3,1.3,1.3M53.5,139.9v-11h-2.3v11h2.3ZM51.2,111.9v11h2.3v-11h-2.3ZM52.4,144.3c.7,0,1.3-.6,1.3-1.3s-.6-1.3-1.3-1.3-1.3.6-1.3,1.3.6,1.3,1.3,1.3M53.5,157v-11h-2.3v11h2.3ZM52.4,93c.7,0,1.3-.6,1.3-1.3s-.6-1.3-1.3-1.3-1.3.6-1.3,1.3.6,1.3,1.3,1.3M53.5,105.7v-11h-2.3v11h2.3ZM52.4,75.9c.7,0,1.3-.6,1.3-1.3s-.6-1.3-1.3-1.3-1.3.6-1.3,1.3.6,1.3,1.3,1.3M53.5,88.6v-11h-2.3v11h2.3ZM52.4,58.8c.7,0,1.3-.6,1.3-1.3s-.6-1.3-1.3-1.3-1.3.6-1.3,1.3.6,1.3,1.3,1.3M53.5,71.5v-11h-2.3v11h2.3ZM51.2,43.4v11h2.3v-11h-2.3ZM52.4,39.1c-.7,0-1.3.6-1.3,1.3s.6,1.3,1.3,1.3,1.3-.6,1.3-1.3-.6-1.3-1.3-1.3M47.3,81.9c-.7,0-1.3.6-1.3,1.3s.6,1.3,1.3,1.3,1.3-.6,1.3-1.3-.6-1.3-1.3-1.3M46.2,69.1v11h2.3v-11h-2.3ZM47.3,64.7c-.7,0-1.3.6-1.3,1.3s.6,1.3,1.3,1.3,1.3-.6,1.3-1.3-.6-1.3-1.3-1.3M46.2,52v11h2.3v-11h-2.3ZM48.4,80.1v-11h-2.3v11h2.3ZM47.3,98.9c-.7,0-1.3.6-1.3,1.3s.6,1.3,1.3,1.3,1.3-.6,1.3-1.3-.6-1.3-1.3-1.3M46.2,86.2v11h2.3v-11h-2.3ZM47.3,116.1c-.7,0-1.3.6-1.3,1.3s.6,1.3,1.3,1.3,1.3-.6,1.3-1.3-.6-1.3-1.3-1.3M46.2,103.3v11h2.3v-11h-2.3ZM47.3,133.1c-.7,0-1.3.6-1.3,1.3s.6,1.3,1.3,1.3,1.3-.6,1.3-1.3-.6-1.3-1.3-1.3M46.2,120.4v11h2.3v-11h-2.3ZM48.4,148.5v-11h-2.3v11h2.3ZM47.3,152.8c.7,0,1.3-.6,1.3-1.3s-.6-1.3-1.3-1.3-1.3.6-1.3,1.3.6,1.3,1.3,1.3M42.1,110.1c.7,0,1.3-.6,1.3-1.3s-.6-1.3-1.3-1.3-1.3.6-1.3,1.3.6,1.3,1.3,1.3M43.2,122.8v-11h-2.3v11h2.3ZM42.1,127.2c.7,0,1.3-.6,1.3-1.3s-.6-1.3-1.3-1.3-1.3.6-1.3,1.3.6,1.3,1.3,1.3M43.2,139.9v-11h-2.3v11h2.3ZM40.9,111.9v11h2.3v-11h-2.3ZM42.1,144.3c.7,0,1.3-.6,1.3-1.3s-.6-1.3-1.3-1.3-1.3.6-1.3,1.3.6,1.3,1.3,1.3M43.2,157v-11h-2.3v11h2.3ZM42.1,93c.7,0,1.3-.6,1.3-1.3s-.6-1.3-1.3-1.3-1.3.6-1.3,1.3.6,1.3,1.3,1.3M43.2,105.7v-11h-2.3v11h2.3ZM42.1,75.9c.7,0,1.3-.6,1.3-1.3s-.6-1.3-1.3-1.3-1.3.6-1.3,1.3.6,1.3,1.3,1.3M43.2,88.6v-11h-2.3v11h2.3ZM42.1,58.8c.7,0,1.3-.6,1.3-1.3s-.6-1.3-1.3-1.3-1.3.6-1.3,1.3.6,1.3,1.3,1.3M43.2,71.5v-11h-2.3v11h2.3ZM40.9,43.4v11h2.3v-11h-2.3ZM42.1,39.1c-.7,0-1.3.6-1.3,1.3s.6,1.3,1.3,1.3,1.3-.6,1.3-1.3-.6-1.3-1.3-1.3"/>
                </g>
                <g class="cls-13">
                  <path class="cls-5" d="M38.8,83.1c0,.7-.6,1.3-1.3,1.3s-1.3-.6-1.3-1.3.6-1.3,1.3-1.3,1.3.6,1.3,1.3M36.4,69.1v11h2.3v-11h-2.3ZM37.5,64.7c-.7,0-1.3.6-1.3,1.3s.6,1.3,1.3,1.3,1.3-.6,1.3-1.3-.6-1.3-1.3-1.3M36.4,52v11h2.3v-11h-2.3ZM38.6,80.1v-11h-2.3v11h2.3ZM37.5,98.9c-.7,0-1.3.6-1.3,1.3s.6,1.3,1.3,1.3,1.3-.6,1.3-1.3-.6-1.3-1.3-1.3M36.4,86.2v11h2.3v-11h-2.3ZM37.5,116.1c-.7,0-1.3.6-1.3,1.3s.6,1.3,1.3,1.3,1.3-.6,1.3-1.3-.6-1.3-1.3-1.3M36.4,103.3v11h2.3v-11h-2.3ZM37.5,133.1c-.7,0-1.3.6-1.3,1.3s.6,1.3,1.3,1.3,1.3-.6,1.3-1.3-.6-1.3-1.3-1.3M36.4,120.4v11h2.3v-11h-2.3ZM38.6,148.5v-11h-2.3v11h2.3ZM37.5,152.8c.7,0,1.3-.6,1.3-1.3s-.6-1.3-1.3-1.3-1.3.6-1.3,1.3.6,1.3,1.3,1.3M32.3,110.1c.7,0,1.3-.6,1.3-1.3s-.6-1.3-1.3-1.3-1.3.6-1.3,1.3.6,1.3,1.3,1.3M33.4,122.8v-11h-2.3v11h2.3ZM32.3,127.2c.7,0,1.3-.6,1.3-1.3s-.6-1.3-1.3-1.3-1.3.6-1.3,1.3.6,1.3,1.3,1.3M33.4,139.9v-11h-2.3v11h2.3ZM31.1,111.9v11h2.3v-11h-2.3ZM32.3,144.3c.7,0,1.3-.6,1.3-1.3s-.6-1.3-1.3-1.3-1.3.6-1.3,1.3.6,1.3,1.3,1.3M33.4,157v-11h-2.3v11h2.3ZM32.3,93c.7,0,1.3-.6,1.3-1.3s-.6-1.3-1.3-1.3-1.3.6-1.3,1.3.6,1.3,1.3,1.3M33.4,105.7v-11h-2.3v11h2.3ZM32.3,75.9c.7,0,1.3-.6,1.3-1.3s-.6-1.3-1.3-1.3-1.3.6-1.3,1.3.6,1.3,1.3,1.3M33.4,88.6v-11h-2.3v11h2.3ZM32.3,58.8c.7,0,1.3-.6,1.3-1.3s-.6-1.3-1.3-1.3-1.3.6-1.3,1.3.6,1.3,1.3,1.3M33.4,71.5v-11h-2.3v11h2.3ZM31.1,43.4v11h2.3v-11h-2.3ZM32.3,39.1c-.7,0-1.3.6-1.3,1.3s.6,1.3,1.3,1.3,1.3-.6,1.3-1.3-.6-1.3-1.3-1.3M27.2,81.9c-.7,0-1.3.6-1.3,1.3s.6,1.3,1.3,1.3,1.3-.6,1.3-1.3-.6-1.3-1.3-1.3M26.1,69.1v11h2.3v-11h-2.3ZM27.2,64.7c-.7,0-1.3.6-1.3,1.3s.6,1.3,1.3,1.3,1.3-.6,1.3-1.3-.6-1.3-1.3-1.3M26.1,52v11h2.3v-11h-2.3ZM28.4,80.1v-11h-2.3v11h2.3ZM27.2,98.9c-.7,0-1.3.6-1.3,1.3s.6,1.3,1.3,1.3,1.3-.6,1.3-1.3-.6-1.3-1.3-1.3M26.1,86.2v11h2.3v-11h-2.3ZM27.2,116.1c-.7,0-1.3.6-1.3,1.3s.6,1.3,1.3,1.3,1.3-.6,1.3-1.3-.6-1.3-1.3-1.3M26.1,103.3v11h2.3v-11h-2.3ZM27.2,133.1c-.7,0-1.3.6-1.3,1.3s.6,1.3,1.3,1.3,1.3-.6,1.3-1.3-.6-1.3-1.3-1.3M26.1,120.4v11h2.3v-11h-2.3ZM28.3,148.5v-11h-2.3v11h2.3ZM27.2,152.8c.7,0,1.3-.6,1.3-1.3s-.6-1.3-1.3-1.3-1.3.6-1.3,1.3.6,1.3,1.3,1.3M22,110.1c.7,0,1.3-.6,1.3-1.3s-.6-1.3-1.3-1.3-1.3.6-1.3,1.3.6,1.3,1.3,1.3M23.1,122.8v-11h-2.3v11h2.3ZM22,127.2c.7,0,1.3-.6,1.3-1.3s-.6-1.3-1.3-1.3-1.3.6-1.3,1.3.6,1.3,1.3,1.3M23.1,139.9v-11h-2.3v11h2.3ZM20.8,111.9v11h2.3v-11h-2.3ZM22,144.3c.7,0,1.3-.6,1.3-1.3s-.6-1.3-1.3-1.3-1.3.6-1.3,1.3.6,1.3,1.3,1.3M23.1,157v-11h-2.3v11h2.3ZM22,93c.7,0,1.3-.6,1.3-1.3s-.6-1.3-1.3-1.3-1.3.6-1.3,1.3.6,1.3,1.3,1.3M23.1,105.7v-11h-2.3v11h2.3ZM22,75.9c.7,0,1.3-.6,1.3-1.3s-.6-1.3-1.3-1.3-1.3.6-1.3,1.3.6,1.3,1.3,1.3M23.1,88.6v-11h-2.3v11h2.3ZM22,58.8c.7,0,1.3-.6,1.3-1.3s-.6-1.3-1.3-1.3-1.3.6-1.3,1.3.6,1.3,1.3,1.3M11.6,58.8c.7,0,1.3-.6,1.3-1.3s-.6-1.3-1.3-1.3-1.3.6-1.3,1.3.6,1.3,1.3,1.3M23.1,71.5v-11h-2.3v11h2.3ZM20.9,43.4v11h2.3v-11h-2.3ZM22,39.1c-.7,0-1.3.6-1.3,1.3s.6,1.3,1.3,1.3,1.3-.6,1.3-1.3-.6-1.3-1.3-1.3M16.8,81.9c-.7,0-1.3.6-1.3,1.3s.6,1.3,1.3,1.3,1.3-.6,1.3-1.3-.6-1.3-1.3-1.3M15.7,69.1v11h2.3v-11h-2.3ZM16.8,64.7c-.7,0-1.3.6-1.3,1.3s.6,1.3,1.3,1.3,1.3-.6,1.3-1.3-.6-1.3-1.3-1.3M16.8,48.1c-.7,0-1.3.6-1.3,1.3s.6,1.3,1.3,1.3,1.3-.6,1.3-1.3-.6-1.3-1.3-1.3M15.7,52v11h2.3v-11h-2.3ZM18,80.1v-11h-2.3v11h2.3ZM16.8,98.9c-.7,0-1.3.6-1.3,1.3s.6,1.3,1.3,1.3,1.3-.6,1.3-1.3-.6-1.3-1.3-1.3M15.7,86.2v11h2.3v-11h-2.3ZM16.8,116.1c-.7,0-1.3.6-1.3,1.3s.6,1.3,1.3,1.3,1.3-.6,1.3-1.3-.6-1.3-1.3-1.3M15.7,103.3v11h2.3v-11h-2.3ZM16.8,133.1c-.7,0-1.3.6-1.3,1.3s.6,1.3,1.3,1.3,1.3-.6,1.3-1.3-.6-1.3-1.3-1.3M15.6,120.4v11h2.3v-11h-2.3ZM18,148.5v-11h-2.3v11h2.3ZM16.8,152.8c.7,0,1.3-.6,1.3-1.3s-.6-1.3-1.3-1.3-1.3.6-1.3,1.3.6,1.3,1.3,1.3M11.6,110.1c.7,0,1.3-.6,1.3-1.3s-.6-1.3-1.3-1.3-1.3.6-1.3,1.3.6,1.3,1.3,1.3M12.7,122.8v-11h-2.3v11h2.3ZM11.6,127.2c.7,0,1.3-.6,1.3-1.3s-.6-1.3-1.3-1.3-1.3.6-1.3,1.3.6,1.3,1.3,1.3M12.7,139.9v-11h-2.3v11h2.3ZM10.4,111.9v11h2.3v-11h-2.3ZM11.6,144.3c.7,0,1.3-.6,1.3-1.3s-.6-1.3-1.3-1.3-1.3.6-1.3,1.3.6,1.3,1.3,1.3M12.7,157v-11h-2.3v11h2.3ZM11.6,93c.7,0,1.3-.6,1.3-1.3s-.6-1.3-1.3-1.3-1.3.6-1.3,1.3.6,1.3,1.3,1.3M12.7,105.7v-11h-2.3v11h2.3ZM11.6,75.9c.7,0,1.3-.6,1.3-1.3s-.6-1.3-1.3-1.3-1.3.6-1.3,1.3.6,1.3,1.3,1.3M12.7,88.6v-11h-2.3v11h2.3ZM12.7,71.5v-11h-2.3v11h2.3ZM6.5,81.9c-.7,0-1.3.6-1.3,1.3s.6,1.3,1.3,1.3,1.3-.6,1.3-1.3-.6-1.3-1.3-1.3M5.4,69.1v11h2.3v-11h-2.3ZM6.5,64.7c-.7,0-1.3.6-1.3,1.3s.6,1.3,1.3,1.3,1.3-.6,1.3-1.3-.6-1.3-1.3-1.3M7.6,80.1v-11h-2.3v11h2.3ZM6.5,98.9c-.7,0-1.3.6-1.3,1.3s.6,1.3,1.3,1.3,1.3-.6,1.3-1.3-.6-1.3-1.3-1.3M5.4,86.2v11h2.3v-11h-2.3ZM6.5,116.1c-.7,0-1.3.6-1.3,1.3s.6,1.3,1.3,1.3,1.3-.6,1.3-1.3-.6-1.3-1.3-1.3M5.4,103.3v11h2.3v-11h-2.3ZM6.5,133.1c-.7,0-1.3.6-1.3,1.3s.6,1.3,1.3,1.3,1.3-.6,1.3-1.3-.6-1.3-1.3-1.3M5.4,120.4v11h2.3v-11h-2.3ZM7.6,148.5v-11h-2.3v11h2.3ZM6.5,152.8c.7,0,1.3-.6,1.3-1.3s-.6-1.3-1.3-1.3-1.3.6-1.3,1.3.6,1.3,1.3,1.3"/>
                </g>
              </g>
              <g class="cls-13">
                <path class="cls-6" d="M88.8,81.9c-.7,0-1.3.6-1.3,1.3s.6,1.3,1.3,1.3,1.3-.6,1.3-1.3-.6-1.3-1.3-1.3M87.7,69.1v11h2.3v-11h-2.3ZM88.8,64.7c-.7,0-1.3.6-1.3,1.3s.6,1.3,1.3,1.3,1.3-.6,1.3-1.3-.6-1.3-1.3-1.3M87.7,52v11h2.3v-11h-2.3ZM90,80.1v-11h-2.3v11h2.3ZM88.8,98.9c-.7,0-1.3.6-1.3,1.3s.6,1.3,1.3,1.3,1.3-.6,1.3-1.3-.6-1.3-1.3-1.3M87.7,86.2v11h2.3v-11h-2.3ZM88.8,116.1c-.7,0-1.3.6-1.3,1.3s.6,1.3,1.3,1.3,1.3-.6,1.3-1.3-.6-1.3-1.3-1.3M87.7,103.3v11h2.3v-11h-2.3ZM88.8,133.1c-.7,0-1.3.6-1.3,1.3s.6,1.3,1.3,1.3,1.3-.6,1.3-1.3-.6-1.3-1.3-1.3M87.7,120.4v11h2.3v-11h-2.3ZM90,148.5v-11h-2.3v11h2.3ZM88.8,152.8c.7,0,1.3-.6,1.3-1.3s-.6-1.3-1.3-1.3-1.3.6-1.3,1.3.6,1.3,1.3,1.3M83.6,110.1c.7,0,1.3-.6,1.3-1.3s-.6-1.3-1.3-1.3-1.3.6-1.3,1.3.6,1.3,1.3,1.3M84.7,122.8v-11h-2.3v11h2.3ZM83.6,127.2c.7,0,1.3-.6,1.3-1.3s-.6-1.3-1.3-1.3-1.3.6-1.3,1.3.6,1.3,1.3,1.3M84.7,139.9v-11h-2.3v11h2.3ZM82.5,111.9v11h2.3v-11h-2.3ZM83.6,144.3c.7,0,1.3-.6,1.3-1.3s-.6-1.3-1.3-1.3-1.3.6-1.3,1.3.6,1.3,1.3,1.3M84.7,157v-11h-2.3v11h2.3ZM83.6,93c.7,0,1.3-.6,1.3-1.3s-.6-1.3-1.3-1.3-1.3.6-1.3,1.3.6,1.3,1.3,1.3M84.7,105.7v-11h-2.3v11h2.3ZM83.6,75.9c.7,0,1.3-.6,1.3-1.3s-.6-1.3-1.3-1.3-1.3.6-1.3,1.3.6,1.3,1.3,1.3M84.7,88.6v-11h-2.3v11h2.3ZM83.6,58.8c.7,0,1.3-.6,1.3-1.3s-.6-1.3-1.3-1.3-1.3.6-1.3,1.3.6,1.3,1.3,1.3M84.7,71.5v-11h-2.3v11h2.3ZM82.5,43.4v11h2.3v-11h-2.3ZM83.6,39.1c-.7,0-1.3.6-1.3,1.3s.6,1.3,1.3,1.3,1.3-.6,1.3-1.3-.6-1.3-1.3-1.3M78.6,81.9c-.7,0-1.3.6-1.3,1.3s.6,1.3,1.3,1.3,1.3-.6,1.3-1.3-.6-1.3-1.3-1.3M77.5,69.1v11h2.3v-11h-2.3ZM78.6,64.7c-.7,0-1.3.6-1.3,1.3s.6,1.3,1.3,1.3,1.3-.6,1.3-1.3-.6-1.3-1.3-1.3M88.8,48.1c-.7,0-1.3.6-1.3,1.3s.6,1.3,1.3,1.3,1.3-.6,1.3-1.3-.6-1.3-1.3-1.3M78.6,48.1c-.7,0-1.3.6-1.3,1.3s.6,1.3,1.3,1.3,1.3-.6,1.3-1.3-.6-1.3-1.3-1.3M57.8,48.1c-.7,0-1.3.6-1.3,1.3s.6,1.3,1.3,1.3,1.3-.6,1.3-1.3-.6-1.3-1.3-1.3M68.1,48.1c-.7,0-1.3.6-1.3,1.3s.6,1.3,1.3,1.3,1.3-.6,1.3-1.3-.6-1.3-1.3-1.3M77.5,52v11h2.3v-11h-2.3ZM79.7,80.1v-11h-2.3v11h2.3ZM78.5,98.9c-.7,0-1.3.6-1.3,1.3s.6,1.3,1.3,1.3,1.3-.6,1.3-1.3-.6-1.3-1.3-1.3M77.5,86.2v11h2.3v-11h-2.3ZM78.5,116.1c-.7,0-1.3.6-1.3,1.3s.6,1.3,1.3,1.3,1.3-.6,1.3-1.3-.6-1.3-1.3-1.3M77.4,103.3v11h2.3v-11h-2.3ZM78.5,133.1c-.7,0-1.3.6-1.3,1.3s.6,1.3,1.3,1.3,1.3-.6,1.3-1.3-.6-1.3-1.3-1.3M77.4,120.4v11h2.3v-11h-2.3ZM79.7,148.5v-11h-2.3v11h2.3ZM78.5,152.8c.7,0,1.3-.6,1.3-1.3s-.6-1.3-1.3-1.3-1.3.6-1.3,1.3.6,1.3,1.3,1.3M73.3,110.1c.7,0,1.3-.6,1.3-1.3s-.6-1.3-1.3-1.3-1.3.6-1.3,1.3.6,1.3,1.3,1.3M74.4,122.8v-11h-2.3v11h2.3ZM73.3,127.2c.7,0,1.3-.6,1.3-1.3s-.6-1.3-1.3-1.3-1.3.6-1.3,1.3.6,1.3,1.3,1.3M74.4,139.9v-11h-2.3v11h2.3ZM72.2,111.9v11h2.3v-11h-2.3ZM73.3,144.3c.7,0,1.3-.6,1.3-1.3s-.6-1.3-1.3-1.3-1.3.6-1.3,1.3.6,1.3,1.3,1.3M74.4,157v-11h-2.3v11h2.3ZM73.3,93c.7,0,1.3-.6,1.3-1.3s-.6-1.3-1.3-1.3-1.3.6-1.3,1.3.6,1.3,1.3,1.3M74.5,105.7v-11h-2.3v11h2.3ZM73.3,75.9c.7,0,1.3-.6,1.3-1.3s-.6-1.3-1.3-1.3-1.3.6-1.3,1.3.6,1.3,1.3,1.3M74.5,88.6v-11h-2.3v11h2.3ZM73.3,58.8c.7,0,1.3-.6,1.3-1.3s-.6-1.3-1.3-1.3-1.3.6-1.3,1.3.6,1.3,1.3,1.3M74.5,71.5v-11h-2.3v11h2.3ZM72.2,43.4v11h2.3v-11h-2.3ZM73.3,39.1c-.7,0-1.3.6-1.3,1.3s.6,1.3,1.3,1.3,1.3-.6,1.3-1.3-.6-1.3-1.3-1.3M68.1,81.9c-.7,0-1.3.6-1.3,1.3s.6,1.3,1.3,1.3,1.3-.6,1.3-1.3-.6-1.3-1.3-1.3M67,69.1v11h2.3v-11h-2.3ZM68.1,64.7c-.7,0-1.3.6-1.3,1.3s.6,1.3,1.3,1.3,1.3-.6,1.3-1.3-.6-1.3-1.3-1.3M67,52v11h2.3v-11h-2.3ZM69.2,80.1v-11h-2.3v11h2.3ZM68.1,98.9c-.7,0-1.3.6-1.3,1.3s.6,1.3,1.3,1.3,1.3-.6,1.3-1.3-.6-1.3-1.3-1.3M67,86.2v11h2.3v-11h-2.3ZM68.1,116.1c-.7,0-1.3.6-1.3,1.3s.6,1.3,1.3,1.3,1.3-.6,1.3-1.3-.6-1.3-1.3-1.3M67,103.3v11h2.3v-11h-2.3ZM68.1,133.1c-.7,0-1.3.6-1.3,1.3s.6,1.3,1.3,1.3,1.3-.6,1.3-1.3-.6-1.3-1.3-1.3M67,120.4v11h2.3v-11h-2.3ZM69.2,148.5v-11h-2.3v11h2.3ZM68.1,152.8c.7,0,1.3-.6,1.3-1.3s-.6-1.3-1.3-1.3-1.3.6-1.3,1.3.6,1.3,1.3,1.3M62.9,110.1c.7,0,1.3-.6,1.3-1.3s-.6-1.3-1.3-1.3-1.3.6-1.3,1.3.6,1.3,1.3,1.3M64,122.8v-11h-2.3v11h2.3ZM62.9,127.2c.7,0,1.3-.6,1.3-1.3s-.6-1.3-1.3-1.3-1.3.6-1.3,1.3.6,1.3,1.3,1.3M64,139.9v-11h-2.3v11h2.3ZM61.7,111.9v11h2.3v-11h-2.3ZM62.9,144.3c.7,0,1.3-.6,1.3-1.3s-.6-1.3-1.3-1.3-1.3.6-1.3,1.3.6,1.3,1.3,1.3M64,157v-11h-2.3v11h2.3ZM62.9,93c.7,0,1.3-.6,1.3-1.3s-.6-1.3-1.3-1.3-1.3.6-1.3,1.3.6,1.3,1.3,1.3M64,105.7v-11h-2.3v11h2.3ZM62.9,75.9c.7,0,1.3-.6,1.3-1.3s-.6-1.3-1.3-1.3-1.3.6-1.3,1.3.6,1.3,1.3,1.3M64,88.6v-11h-2.3v11h2.3ZM62.9,58.8c.7,0,1.3-.6,1.3-1.3s-.6-1.3-1.3-1.3-1.3.6-1.3,1.3.6,1.3,1.3,1.3M64,71.5v-11h-2.3v11h2.3ZM61.8,43.4v11h2.3v-11h-2.3ZM62.9,39.1c-.7,0-1.3.6-1.3,1.3s.6,1.3,1.3,1.3,1.3-.6,1.3-1.3-.6-1.3-1.3-1.3M57.8,81.9c-.7,0-1.3.6-1.3,1.3s.6,1.3,1.3,1.3,1.3-.6,1.3-1.3-.6-1.3-1.3-1.3M56.7,69.1v11h2.3v-11h-2.3ZM57.8,64.7c-.7,0-1.3.6-1.3,1.3s.6,1.3,1.3,1.3,1.3-.6,1.3-1.3-.6-1.3-1.3-1.3M56.7,52v11h2.3v-11h-2.3ZM58.9,80.1v-11h-2.3v11h2.3ZM57.8,98.9c-.7,0-1.3.6-1.3,1.3s.6,1.3,1.3,1.3,1.3-.6,1.3-1.3-.6-1.3-1.3-1.3M56.7,86.2v11h2.3v-11h-2.3ZM57.8,116.1c-.7,0-1.3.6-1.3,1.3s.6,1.3,1.3,1.3,1.3-.6,1.3-1.3-.6-1.3-1.3-1.3M56.7,103.3v11h2.3v-11h-2.3ZM57.8,133.1c-.7,0-1.3.6-1.3,1.3s.6,1.3,1.3,1.3,1.3-.6,1.3-1.3-.6-1.3-1.3-1.3M56.7,120.4v11h2.3v-11h-2.3ZM58.9,148.5v-11h-2.3v11h2.3ZM57.8,152.8c.7,0,1.3-.6,1.3-1.3s-.6-1.3-1.3-1.3-1.3.6-1.3,1.3.6,1.3,1.3,1.3"/>
              </g>
              <g class="cls-13">
                <path class="cls-4" d="M120.7,81.9c-.7,0-1.3.6-1.3,1.3s.6,1.3,1.3,1.3,1.3-.6,1.3-1.3-.6-1.3-1.3-1.3M119.6,69.1v11h2.3v-11h-2.3ZM120.7,64.7c-.7,0-1.3.6-1.3,1.3s.6,1.3,1.3,1.3,1.3-.6,1.3-1.3-.6-1.3-1.3-1.3M119.6,52v11h2.3v-11h-2.3ZM121.9,80.1v-11h-2.3v11h2.3ZM120.7,98.9c-.7,0-1.3.6-1.3,1.3s.6,1.3,1.3,1.3,1.3-.6,1.3-1.3-.6-1.3-1.3-1.3M119.6,86.2v11h2.3v-11h-2.3ZM120.7,116.1c-.7,0-1.3.6-1.3,1.3s.6,1.3,1.3,1.3,1.3-.6,1.3-1.3-.6-1.3-1.3-1.3M119.6,103.3v11h2.3v-11h-2.3ZM120.7,133.1c-.7,0-1.3.6-1.3,1.3s.6,1.3,1.3,1.3,1.3-.6,1.3-1.3-.6-1.3-1.3-1.3M119.6,120.4v11h2.3v-11h-2.3ZM121.8,148.5v-11h-2.3v11h2.3ZM120.7,152.8c.7,0,1.3-.6,1.3-1.3s-.6-1.3-1.3-1.3-1.3.6-1.3,1.3.6,1.3,1.3,1.3M115.5,110.1c.7,0,1.3-.6,1.3-1.3s-.6-1.3-1.3-1.3-1.3.6-1.3,1.3.6,1.3,1.3,1.3M116.6,122.8v-11h-2.3v11h2.3ZM115.5,127.2c.7,0,1.3-.6,1.3-1.3s-.6-1.3-1.3-1.3-1.3.6-1.3,1.3.6,1.3,1.3,1.3M116.6,139.9v-11h-2.3v11h2.3ZM114.3,111.9v11h2.3v-11h-2.3ZM115.5,144.3c.7,0,1.3-.6,1.3-1.3s-.6-1.3-1.3-1.3-1.3.6-1.3,1.3.6,1.3,1.3,1.3M116.6,157v-11h-2.3v11h2.3ZM115.5,93c.7,0,1.3-.6,1.3-1.3s-.6-1.3-1.3-1.3-1.3.6-1.3,1.3.6,1.3,1.3,1.3M116.6,105.7v-11h-2.3v11h2.3ZM115.5,75.9c.7,0,1.3-.6,1.3-1.3s-.6-1.3-1.3-1.3-1.3.6-1.3,1.3.6,1.3,1.3,1.3M116.6,88.6v-11h-2.3v11h2.3ZM115.5,58.8c.7,0,1.3-.6,1.3-1.3s-.6-1.3-1.3-1.3-1.3.6-1.3,1.3.6,1.3,1.3,1.3M116.6,71.5v-11h-2.3v11h2.3ZM114.3,43.4v11h2.3v-11h-2.3ZM115.5,39.1c-.7,0-1.3.6-1.3,1.3s.6,1.3,1.3,1.3,1.3-.6,1.3-1.3-.6-1.3-1.3-1.3M110.4,81.9c-.7,0-1.3.6-1.3,1.3s.6,1.3,1.3,1.3,1.3-.6,1.3-1.3-.6-1.3-1.3-1.3M109.3,69.1v11h2.3v-11h-2.3ZM110.4,64.7c-.7,0-1.3.6-1.3,1.3s.6,1.3,1.3,1.3,1.3-.6,1.3-1.3-.6-1.3-1.3-1.3M120.7,48.1c-.7,0-1.3.6-1.3,1.3s.6,1.3,1.3,1.3,1.3-.6,1.3-1.3-.6-1.3-1.3-1.3M110.4,48.1c-.7,0-1.3.6-1.3,1.3s.6,1.3,1.3,1.3,1.3-.6,1.3-1.3-.6-1.3-1.3-1.3M100,48.1c-.7,0-1.3.6-1.3,1.3s.6,1.3,1.3,1.3,1.3-.6,1.3-1.3-.6-1.3-1.3-1.3M109.3,52v11h2.3v-11h-2.3ZM111.6,80.1v-11h-2.3v11h2.3ZM110.4,98.9c-.7,0-1.3.6-1.3,1.3s.6,1.3,1.3,1.3,1.3-.6,1.3-1.3-.6-1.3-1.3-1.3M109.3,86.2v11h2.3v-11h-2.3ZM110.4,116.1c-.7,0-1.3.6-1.3,1.3s.6,1.3,1.3,1.3,1.3-.6,1.3-1.3-.6-1.3-1.3-1.3M109.3,103.3v11h2.3v-11h-2.3ZM110.4,133.1c-.7,0-1.3.6-1.3,1.3s.6,1.3,1.3,1.3,1.3-.6,1.3-1.3-.6-1.3-1.3-1.3M109.3,120.4v11h2.3v-11h-2.3ZM111.6,148.5v-11h-2.3v11h2.3ZM110.4,152.8c.7,0,1.3-.6,1.3-1.3s-.6-1.3-1.3-1.3-1.3.6-1.3,1.3.6,1.3,1.3,1.3M105.2,110.1c.7,0,1.3-.6,1.3-1.3s-.6-1.3-1.3-1.3-1.3.6-1.3,1.3.6,1.3,1.3,1.3M106.3,122.8v-11h-2.3v11h2.3ZM105.2,127.2c.7,0,1.3-.6,1.3-1.3s-.6-1.3-1.3-1.3-1.3.6-1.3,1.3.6,1.3,1.3,1.3M106.3,139.9v-11h-2.3v11h2.3ZM104,111.9v11h2.3v-11h-2.3ZM105.2,144.3c.7,0,1.3-.6,1.3-1.3s-.6-1.3-1.3-1.3-1.3.6-1.3,1.3.6,1.3,1.3,1.3M106.3,157v-11h-2.3v11h2.3ZM105.2,93c.7,0,1.3-.6,1.3-1.3s-.6-1.3-1.3-1.3-1.3.6-1.3,1.3.6,1.3,1.3,1.3M106.3,105.7v-11h-2.3v11h2.3ZM105.2,75.9c.7,0,1.3-.6,1.3-1.3s-.6-1.3-1.3-1.3-1.3.6-1.3,1.3.6,1.3,1.3,1.3M106.3,88.6v-11h-2.3v11h2.3ZM105.2,58.8c.7,0,1.3-.6,1.3-1.3s-.6-1.3-1.3-1.3-1.3.6-1.3,1.3.6,1.3,1.3,1.3M106.3,71.5v-11h-2.3v11h2.3ZM104.1,43.4v11h2.3v-11h-2.3ZM105.2,39.1c-.7,0-1.3.6-1.3,1.3s.6,1.3,1.3,1.3,1.3-.6,1.3-1.3-.6-1.3-1.3-1.3M100,81.9c-.7,0-1.3.6-1.3,1.3s.6,1.3,1.3,1.3,1.3-.6,1.3-1.3-.6-1.3-1.3-1.3M98.8,69.1v11h2.3v-11h-2.3ZM100,64.7c-.7,0-1.3.6-1.3,1.3s.6,1.3,1.3,1.3,1.3-.6,1.3-1.3-.6-1.3-1.3-1.3M98.8,52v11h2.3v-11h-2.3ZM101.1,80.1v-11h-2.3v11h2.3ZM100,98.9c-.7,0-1.3.6-1.3,1.3s.6,1.3,1.3,1.3,1.3-.6,1.3-1.3-.6-1.3-1.3-1.3M98.8,86.2v11h2.3v-11h-2.3ZM100,116.1c-.7,0-1.3.6-1.3,1.3s.6,1.3,1.3,1.3,1.3-.6,1.3-1.3-.6-1.3-1.3-1.3M98.8,103.3v11h2.3v-11h-2.3ZM100,133.1c-.7,0-1.3.6-1.3,1.3s.6,1.3,1.3,1.3,1.3-.6,1.3-1.3-.6-1.3-1.3-1.3M98.8,120.4v11h2.3v-11h-2.3ZM101.1,148.5v-11h-2.3v11h2.3ZM100,152.8c.7,0,1.3-.6,1.3-1.3s-.6-1.3-1.3-1.3-1.3.6-1.3,1.3.6,1.3,1.3,1.3M94.7,110.1c.7,0,1.3-.6,1.3-1.3s-.6-1.3-1.3-1.3-1.3.6-1.3,1.3.6,1.3,1.3,1.3M95.9,122.8v-11h-2.3v11h2.3ZM94.7,127.2c.7,0,1.3-.6,1.3-1.3s-.6-1.3-1.3-1.3-1.3.6-1.3,1.3.6,1.3,1.3,1.3M95.9,139.9v-11h-2.3v11h2.3ZM93.6,111.9v11h2.3v-11h-2.3ZM94.7,144.3c.7,0,1.3-.6,1.3-1.3s-.6-1.3-1.3-1.3-1.3.6-1.3,1.3.6,1.3,1.3,1.3M95.9,157v-11h-2.3v11h2.3ZM94.7,93c.7,0,1.3-.6,1.3-1.3s-.6-1.3-1.3-1.3-1.3.6-1.3,1.3.6,1.3,1.3,1.3M95.9,105.7v-11h-2.3v11h2.3ZM94.7,75.9c.7,0,1.3-.6,1.3-1.3s-.6-1.3-1.3-1.3-1.3.6-1.3,1.3.6,1.3,1.3,1.3M95.9,88.6v-11h-2.3v11h2.3ZM94.7,58.8c.7,0,1.3-.6,1.3-1.3s-.6-1.3-1.3-1.3-1.3.6-1.3,1.3.6,1.3,1.3,1.3M95.9,71.5v-11h-2.3v11h2.3ZM93.6,43.4v11h2.3v-11h-2.3ZM94.7,39.1c-.7,0-1.3.6-1.3,1.3s.6,1.3,1.3,1.3,1.3-.6,1.3-1.3-.6-1.3-1.3-1.3"/>
              </g>
              <g class="cls-13">
                <path class="cls-9" d="M360.1,81.9c-.7,0-1.3.6-1.3,1.3s.6,1.3,1.3,1.3,1.3-.6,1.3-1.3-.6-1.3-1.3-1.3M359,69.1v11h2.3v-11h-2.3ZM360.1,64.7c-.7,0-1.3.6-1.3,1.3s.6,1.3,1.3,1.3,1.3-.6,1.3-1.3-.6-1.3-1.3-1.3M359,52v11h2.3v-11h-2.3ZM361.3,80.1v-11h-2.3v11h2.3ZM360.1,98.9c-.7,0-1.3.6-1.3,1.3s.6,1.3,1.3,1.3,1.3-.6,1.3-1.3-.6-1.3-1.3-1.3M359,86.2v11h2.3v-11h-2.3ZM360.1,116.1c-.7,0-1.3.6-1.3,1.3s.6,1.3,1.3,1.3,1.3-.6,1.3-1.3-.6-1.3-1.3-1.3M359,103.3v11h2.3v-11h-2.3ZM360.1,133.1c-.7,0-1.3.6-1.3,1.3s.6,1.3,1.3,1.3,1.3-.6,1.3-1.3-.6-1.3-1.3-1.3M359,120.4v11h2.3v-11h-2.3ZM361.3,148.5v-11h-2.3v11h2.3ZM360.1,152.8c.7,0,1.3-.6,1.3-1.3s-.6-1.3-1.3-1.3-1.3.6-1.3,1.3.6,1.3,1.3,1.3M354.9,110.1c.7,0,1.3-.6,1.3-1.3s-.6-1.3-1.3-1.3-1.3.6-1.3,1.3.6,1.3,1.3,1.3M356,122.8v-11h-2.3v11h2.3ZM354.9,127.2c.7,0,1.3-.6,1.3-1.3s-.6-1.3-1.3-1.3-1.3.6-1.3,1.3.6,1.3,1.3,1.3M356,139.9v-11h-2.3v11h2.3ZM353.7,111.9v11h2.3v-11h-2.3ZM354.9,144.3c.7,0,1.3-.6,1.3-1.3s-.6-1.3-1.3-1.3-1.3.6-1.3,1.3.6,1.3,1.3,1.3M356,157v-11h-2.3v11h2.3ZM354.9,93c.7,0,1.3-.6,1.3-1.3s-.6-1.3-1.3-1.3-1.3.6-1.3,1.3.6,1.3,1.3,1.3M356,105.7v-11h-2.3v11h2.3ZM354.9,75.9c.7,0,1.3-.6,1.3-1.3s-.6-1.3-1.3-1.3-1.3.6-1.3,1.3.6,1.3,1.3,1.3M356,88.6v-11h-2.3v11h2.3ZM354.9,58.8c.7,0,1.3-.6,1.3-1.3s-.6-1.3-1.3-1.3-1.3.6-1.3,1.3.6,1.3,1.3,1.3M356,71.5v-11h-2.3v11h2.3ZM353.8,43.4v11h2.3v-11h-2.3ZM354.9,39.1c-.7,0-1.3.6-1.3,1.3s.6,1.3,1.3,1.3,1.3-.6,1.3-1.3-.6-1.3-1.3-1.3M349.8,81.9c-.7,0-1.3.6-1.3,1.3s.6,1.3,1.3,1.3,1.3-.6,1.3-1.3-.6-1.3-1.3-1.3M348.7,69.1v11h2.3v-11h-2.3ZM349.8,64.7c-.7,0-1.3.6-1.3,1.3s.6,1.3,1.3,1.3,1.3-.6,1.3-1.3-.6-1.3-1.3-1.3M360.1,48.1c-.7,0-1.3.6-1.3,1.3s.6,1.3,1.3,1.3,1.3-.6,1.3-1.3-.6-1.3-1.3-1.3M349.8,48.1c-.7,0-1.3.6-1.3,1.3s.6,1.3,1.3,1.3,1.3-.6,1.3-1.3-.6-1.3-1.3-1.3M339.4,48.1c-.7,0-1.3.6-1.3,1.3s.6,1.3,1.3,1.3,1.3-.6,1.3-1.3-.6-1.3-1.3-1.3M348.7,52v11h2.3v-11h-2.3ZM351,80.1v-11h-2.3v11h2.3ZM349.8,98.9c-.7,0-1.3.6-1.3,1.3s.6,1.3,1.3,1.3,1.3-.6,1.3-1.3-.6-1.3-1.3-1.3M348.7,86.2v11h2.3v-11h-2.3ZM349.8,116.1c-.7,0-1.3.6-1.3,1.3s.6,1.3,1.3,1.3,1.3-.6,1.3-1.3-.6-1.3-1.3-1.3M348.7,103.3v11h2.3v-11h-2.3ZM349.8,133.1c-.7,0-1.3.6-1.3,1.3s.6,1.3,1.3,1.3,1.3-.6,1.3-1.3-.6-1.3-1.3-1.3M348.7,120.4v11h2.3v-11h-2.3ZM351,148.5v-11h-2.3v11h2.3ZM349.8,152.8c.7,0,1.3-.6,1.3-1.3s-.6-1.3-1.3-1.3-1.3.6-1.3,1.3.6,1.3,1.3,1.3M344.6,110.1c.7,0,1.3-.6,1.3-1.3s-.6-1.3-1.3-1.3-1.3.6-1.3,1.3.6,1.3,1.3,1.3M345.7,122.8v-11h-2.3v11h2.3ZM344.6,127.2c.7,0,1.3-.6,1.3-1.3s-.6-1.3-1.3-1.3-1.3.6-1.3,1.3.6,1.3,1.3,1.3M345.7,139.9v-11h-2.3v11h2.3ZM343.5,111.9v11h2.3v-11h-2.3ZM344.6,144.3c.7,0,1.3-.6,1.3-1.3s-.6-1.3-1.3-1.3-1.3.6-1.3,1.3.6,1.3,1.3,1.3M345.7,157v-11h-2.3v11h2.3ZM344.6,93c.7,0,1.3-.6,1.3-1.3s-.6-1.3-1.3-1.3-1.3.6-1.3,1.3.6,1.3,1.3,1.3M345.7,105.7v-11h-2.3v11h2.3ZM344.6,75.9c.7,0,1.3-.6,1.3-1.3s-.6-1.3-1.3-1.3-1.3.6-1.3,1.3.6,1.3,1.3,1.3M345.7,88.6v-11h-2.3v11h2.3ZM344.6,58.8c.7,0,1.3-.6,1.3-1.3s-.6-1.3-1.3-1.3-1.3.6-1.3,1.3.6,1.3,1.3,1.3M345.7,71.5v-11h-2.3v11h2.3ZM343.5,43.4v11h2.3v-11h-2.3ZM344.6,39.1c-.7,0-1.3.6-1.3,1.3s.6,1.3,1.3,1.3,1.3-.6,1.3-1.3-.6-1.3-1.3-1.3M339.4,81.9c-.7,0-1.3.6-1.3,1.3s.6,1.3,1.3,1.3,1.3-.6,1.3-1.3-.6-1.3-1.3-1.3M338.2,69.1v11h2.3v-11h-2.3ZM339.4,64.7c-.7,0-1.3.6-1.3,1.3s.6,1.3,1.3,1.3,1.3-.6,1.3-1.3-.6-1.3-1.3-1.3M338.2,52v11h2.3v-11h-2.3ZM340.5,80.1v-11h-2.3v11h2.3ZM339.4,98.9c-.7,0-1.3.6-1.3,1.3s.6,1.3,1.3,1.3,1.3-.6,1.3-1.3-.6-1.3-1.3-1.3M338.2,86.2v11h2.3v-11h-2.3ZM339.4,116.1c-.7,0-1.3.6-1.3,1.3s.6,1.3,1.3,1.3,1.3-.6,1.3-1.3-.6-1.3-1.3-1.3M338.2,103.3v11h2.3v-11h-2.3ZM339.4,133.1c-.7,0-1.3.6-1.3,1.3s.6,1.3,1.3,1.3,1.3-.6,1.3-1.3-.6-1.3-1.3-1.3M338.2,120.4v11h2.3v-11h-2.3ZM340.5,148.5v-11h-2.3v11h2.3ZM339.4,152.8c.7,0,1.3-.6,1.3-1.3s-.6-1.3-1.3-1.3-1.3.6-1.3,1.3.6,1.3,1.3,1.3M125.2,110.1c.7,0,1.3-.6,1.3-1.3s-.6-1.3-1.3-1.3-1.3.6-1.3,1.3.6,1.3,1.3,1.3M126.3,122.8v-11h-2.3v11h2.3ZM125.2,127.2c.7,0,1.3-.6,1.3-1.3s-.6-1.3-1.3-1.3-1.3.6-1.3,1.3.6,1.3,1.3,1.3M126.3,139.9v-11h-2.3v11h2.3ZM124.1,111.9v11h2.3v-11h-2.3ZM125.2,144.3c.7,0,1.3-.6,1.3-1.3s-.6-1.3-1.3-1.3-1.3.6-1.3,1.3.6,1.3,1.3,1.3M126.3,157v-11h-2.3v11h2.3ZM125.2,93c.7,0,1.3-.6,1.3-1.3s-.6-1.3-1.3-1.3-1.3.6-1.3,1.3.6,1.3,1.3,1.3M126.3,105.7v-11h-2.3v11h2.3ZM125.2,75.9c.7,0,1.3-.6,1.3-1.3s-.6-1.3-1.3-1.3-1.3.6-1.3,1.3.6,1.3,1.3,1.3M126.3,88.6v-11h-2.3v11h2.3ZM125.3,58.8c.7,0,1.3-.6,1.3-1.3s-.6-1.3-1.3-1.3-1.3.6-1.3,1.3.6,1.3,1.3,1.3M126.4,71.5v-11h-2.3v11h2.3ZM124.1,43.4v11h2.3v-11h-2.3ZM125.2,39.1c-.7,0-1.3.6-1.3,1.3s.6,1.3,1.3,1.3,1.3-.6,1.3-1.3-.6-1.3-1.3-1.3M140.9,81.9c-.7,0-1.3.6-1.3,1.3s.6,1.3,1.3,1.3,1.3-.6,1.3-1.3-.6-1.3-1.3-1.3M139.7,69.1v11h2.3v-11h-2.3ZM140.9,64.7c-.7,0-1.3.6-1.3,1.3s.6,1.3,1.3,1.3,1.3-.6,1.3-1.3-.6-1.3-1.3-1.3M139.7,52v11h2.3v-11h-2.3ZM142,80.1v-11h-2.3v11h2.3ZM140.9,98.9c-.7,0-1.3.6-1.3,1.3s.6,1.3,1.3,1.3,1.3-.6,1.3-1.3-.6-1.3-1.3-1.3M139.7,86.2v11h2.3v-11h-2.3ZM140.9,116.1c-.7,0-1.3.6-1.3,1.3s.6,1.3,1.3,1.3,1.3-.6,1.3-1.3-.6-1.3-1.3-1.3M139.7,103.3v11h2.3v-11h-2.3ZM140.9,133.1c-.7,0-1.3.6-1.3,1.3s.6,1.3,1.3,1.3,1.3-.6,1.3-1.3-.6-1.3-1.3-1.3M139.7,120.4v11h2.3v-11h-2.3ZM142,148.5v-11h-2.3v11h2.3ZM140.9,152.8c.7,0,1.3-.6,1.3-1.3s-.6-1.3-1.3-1.3-1.3.6-1.3,1.3.6,1.3,1.3,1.3M135.6,110.1c.7,0,1.3-.6,1.3-1.3s-.6-1.3-1.3-1.3-1.3.6-1.3,1.3.6,1.3,1.3,1.3M136.7,122.8v-11h-2.3v11h2.3ZM135.6,127.2c.7,0,1.3-.6,1.3-1.3s-.6-1.3-1.3-1.3-1.3.6-1.3,1.3.6,1.3,1.3,1.3M136.7,139.9v-11h-2.3v11h2.3ZM134.5,111.9v11h2.3v-11h-2.3ZM135.6,144.3c.7,0,1.3-.6,1.3-1.3s-.6-1.3-1.3-1.3-1.3.6-1.3,1.3.6,1.3,1.3,1.3M136.7,157v-11h-2.3v11h2.3ZM135.6,93c.7,0,1.3-.6,1.3-1.3s-.6-1.3-1.3-1.3-1.3.6-1.3,1.3.6,1.3,1.3,1.3M136.7,105.7v-11h-2.3v11h2.3ZM135.6,75.9c.7,0,1.3-.6,1.3-1.3s-.6-1.3-1.3-1.3-1.3.6-1.3,1.3.6,1.3,1.3,1.3M136.7,88.6v-11h-2.3v11h2.3ZM135.6,58.8c.7,0,1.3-.6,1.3-1.3s-.6-1.3-1.3-1.3-1.3.6-1.3,1.3.6,1.3,1.3,1.3M136.7,71.5v-11h-2.3v11h2.3ZM134.5,43.4v11h2.3v-11h-2.3ZM135.6,39.1c-.7,0-1.3.6-1.3,1.3s.6,1.3,1.3,1.3,1.3-.6,1.3-1.3-.6-1.3-1.3-1.3M130.6,81.9c-.7,0-1.3.6-1.3,1.3s.6,1.3,1.3,1.3,1.3-.6,1.3-1.3-.6-1.3-1.3-1.3M129.5,69.1v11h2.3v-11h-2.3ZM130.6,64.7c-.7,0-1.3.6-1.3,1.3s.6,1.3,1.3,1.3,1.3-.6,1.3-1.3-.6-1.3-1.3-1.3M140.9,48.1c-.7,0-1.3.6-1.3,1.3s.6,1.3,1.3,1.3,1.3-.6,1.3-1.3-.6-1.3-1.3-1.3M130.6,48.1c-.7,0-1.3.6-1.3,1.3s.6,1.3,1.3,1.3,1.3-.6,1.3-1.3-.6-1.3-1.3-1.3M129.5,52v11h2.3v-11h-2.3ZM131.7,80.1v-11h-2.3v11h2.3ZM130.5,98.9c-.7,0-1.3.6-1.3,1.3s.6,1.3,1.3,1.3,1.3-.6,1.3-1.3-.6-1.3-1.3-1.3M129.5,86.2v11h2.3v-11h-2.3ZM130.5,116.1c-.7,0-1.3.6-1.3,1.3s.6,1.3,1.3,1.3,1.3-.6,1.3-1.3-.6-1.3-1.3-1.3M129.4,103.3v11h2.3v-11h-2.3ZM130.5,133.1c-.7,0-1.3.6-1.3,1.3s.6,1.3,1.3,1.3,1.3-.6,1.3-1.3-.6-1.3-1.3-1.3M129.4,120.4v11h2.3v-11h-2.3ZM131.7,148.5v-11h-2.3v11h2.3ZM130.5,152.8c.7,0,1.3-.6,1.3-1.3s-.6-1.3-1.3-1.3-1.3.6-1.3,1.3.6,1.3,1.3,1.3M172.7,81.9c-.7,0-1.3.6-1.3,1.3s.6,1.3,1.3,1.3,1.3-.6,1.3-1.3-.6-1.3-1.3-1.3M171.6,69.1v11h2.3v-11h-2.3ZM172.7,64.7c-.7,0-1.3.6-1.3,1.3s.6,1.3,1.3,1.3,1.3-.6,1.3-1.3-.6-1.3-1.3-1.3M171.6,52v11h2.3v-11h-2.3ZM173.9,80.1v-11h-2.3v11h2.3ZM172.7,98.9c-.7,0-1.3.6-1.3,1.3s.6,1.3,1.3,1.3,1.3-.6,1.3-1.3-.6-1.3-1.3-1.3M171.6,86.2v11h2.3v-11h-2.3ZM172.7,116.1c-.7,0-1.3.6-1.3,1.3s.6,1.3,1.3,1.3,1.3-.6,1.3-1.3-.6-1.3-1.3-1.3M171.6,103.3v11h2.3v-11h-2.3ZM172.7,133.1c-.7,0-1.3.6-1.3,1.3s.6,1.3,1.3,1.3,1.3-.6,1.3-1.3-.6-1.3-1.3-1.3M171.6,120.4v11h2.3v-11h-2.3ZM173.8,148.5v-11h-2.3v11h2.3ZM172.7,152.8c.7,0,1.3-.6,1.3-1.3s-.6-1.3-1.3-1.3-1.3.6-1.3,1.3.6,1.3,1.3,1.3M167.5,110.1c.7,0,1.3-.6,1.3-1.3s-.6-1.3-1.3-1.3-1.3.6-1.3,1.3.6,1.3,1.3,1.3M168.6,122.8v-11h-2.3v11h2.3ZM167.5,127.2c.7,0,1.3-.6,1.3-1.3s-.6-1.3-1.3-1.3-1.3.6-1.3,1.3.6,1.3,1.3,1.3M168.6,139.9v-11h-2.3v11h2.3ZM166.3,111.9v11h2.3v-11h-2.3ZM167.5,144.3c.7,0,1.3-.6,1.3-1.3s-.6-1.3-1.3-1.3-1.3.6-1.3,1.3.6,1.3,1.3,1.3M168.6,157v-11h-2.3v11h2.3ZM167.5,93c.7,0,1.3-.6,1.3-1.3s-.6-1.3-1.3-1.3-1.3.6-1.3,1.3.6,1.3,1.3,1.3M168.6,105.7v-11h-2.3v11h2.3ZM167.5,75.9c.7,0,1.3-.6,1.3-1.3s-.6-1.3-1.3-1.3-1.3.6-1.3,1.3.6,1.3,1.3,1.3M168.6,88.6v-11h-2.3v11h2.3ZM167.5,58.8c.7,0,1.3-.6,1.3-1.3s-.6-1.3-1.3-1.3-1.3.6-1.3,1.3.6,1.3,1.3,1.3M168.6,71.5v-11h-2.3v11h2.3ZM166.3,43.4v11h2.3v-11h-2.3ZM167.5,39.1c-.7,0-1.3.6-1.3,1.3s.6,1.3,1.3,1.3,1.3-.6,1.3-1.3-.6-1.3-1.3-1.3M162.4,81.9c-.7,0-1.3.6-1.3,1.3s.6,1.3,1.3,1.3,1.3-.6,1.3-1.3-.6-1.3-1.3-1.3M161.3,69.1v11h2.3v-11h-2.3ZM162.4,64.7c-.7,0-1.3.6-1.3,1.3s.6,1.3,1.3,1.3,1.3-.6,1.3-1.3-.6-1.3-1.3-1.3M172.7,48.1c-.7,0-1.3.6-1.3,1.3s.6,1.3,1.3,1.3,1.3-.6,1.3-1.3-.6-1.3-1.3-1.3M162.4,48.1c-.7,0-1.3.6-1.3,1.3s.6,1.3,1.3,1.3,1.3-.6,1.3-1.3-.6-1.3-1.3-1.3M152,48.1c-.7,0-1.3.6-1.3,1.3s.6,1.3,1.3,1.3,1.3-.6,1.3-1.3-.6-1.3-1.3-1.3M161.3,52v11h2.3v-11h-2.3ZM163.6,80.1v-11h-2.3v11h2.3ZM162.4,98.9c-.7,0-1.3.6-1.3,1.3s.6,1.3,1.3,1.3,1.3-.6,1.3-1.3-.6-1.3-1.3-1.3M161.3,86.2v11h2.3v-11h-2.3ZM162.4,116.1c-.7,0-1.3.6-1.3,1.3s.6,1.3,1.3,1.3,1.3-.6,1.3-1.3-.6-1.3-1.3-1.3M161.3,103.3v11h2.3v-11h-2.3ZM162.4,133.1c-.7,0-1.3.6-1.3,1.3s.6,1.3,1.3,1.3,1.3-.6,1.3-1.3-.6-1.3-1.3-1.3M161.3,120.4v11h2.3v-11h-2.3ZM163.6,148.5v-11h-2.3v11h2.3ZM162.4,152.8c.7,0,1.3-.6,1.3-1.3s-.6-1.3-1.3-1.3-1.3.6-1.3,1.3.6,1.3,1.3,1.3M157.2,110.1c.7,0,1.3-.6,1.3-1.3s-.6-1.3-1.3-1.3-1.3.6-1.3,1.3.6,1.3,1.3,1.3M158.3,122.8v-11h-2.3v11h2.3ZM157.2,127.2c.7,0,1.3-.6,1.3-1.3s-.6-1.3-1.3-1.3-1.3.6-1.3,1.3.6,1.3,1.3,1.3M158.3,139.9v-11h-2.3v11h2.3ZM156,111.9v11h2.3v-11h-2.3ZM157.2,144.3c.7,0,1.3-.6,1.3-1.3s-.6-1.3-1.3-1.3-1.3.6-1.3,1.3.6,1.3,1.3,1.3M158.3,157v-11h-2.3v11h2.3ZM157.2,93c.7,0,1.3-.6,1.3-1.3s-.6-1.3-1.3-1.3-1.3.6-1.3,1.3.6,1.3,1.3,1.3M158.3,105.7v-11h-2.3v11h2.3ZM157.2,75.9c.7,0,1.3-.6,1.3-1.3s-.6-1.3-1.3-1.3-1.3.6-1.3,1.3.6,1.3,1.3,1.3M158.3,88.6v-11h-2.3v11h2.3ZM157.2,58.8c.7,0,1.3-.6,1.3-1.3s-.6-1.3-1.3-1.3-1.3.6-1.3,1.3.6,1.3,1.3,1.3M158.3,71.5v-11h-2.3v11h2.3ZM156.1,43.4v11h2.3v-11h-2.3ZM157.2,39.1c-.7,0-1.3.6-1.3,1.3s.6,1.3,1.3,1.3,1.3-.6,1.3-1.3-.6-1.3-1.3-1.3M152,81.9c-.7,0-1.3.6-1.3,1.3s.6,1.3,1.3,1.3,1.3-.6,1.3-1.3-.6-1.3-1.3-1.3M150.9,69.1v11h2.3v-11h-2.3ZM152,64.7c-.7,0-1.3.6-1.3,1.3s.6,1.3,1.3,1.3,1.3-.6,1.3-1.3-.6-1.3-1.3-1.3M150.9,52v11h2.3v-11h-2.3ZM153.1,80.1v-11h-2.3v11h2.3ZM152,98.9c-.7,0-1.3.6-1.3,1.3s.6,1.3,1.3,1.3,1.3-.6,1.3-1.3-.6-1.3-1.3-1.3M150.9,86.2v11h2.3v-11h-2.3ZM152,116.1c-.7,0-1.3.6-1.3,1.3s.6,1.3,1.3,1.3,1.3-.6,1.3-1.3-.6-1.3-1.3-1.3M150.9,103.3v11h2.3v-11h-2.3ZM152,133.1c-.7,0-1.3.6-1.3,1.3s.6,1.3,1.3,1.3,1.3-.6,1.3-1.3-.6-1.3-1.3-1.3M150.9,120.4v11h2.3v-11h-2.3ZM153.1,148.5v-11h-2.3v11h2.3ZM152,152.8c.7,0,1.3-.6,1.3-1.3s-.6-1.3-1.3-1.3-1.3.6-1.3,1.3.6,1.3,1.3,1.3M146.8,110.1c.7,0,1.3-.6,1.3-1.3s-.6-1.3-1.3-1.3-1.3.6-1.3,1.3.6,1.3,1.3,1.3M147.9,122.8v-11h-2.3v11h2.3ZM146.8,127.2c.7,0,1.3-.6,1.3-1.3s-.6-1.3-1.3-1.3-1.3.6-1.3,1.3.6,1.3,1.3,1.3M147.9,139.9v-11h-2.3v11h2.3ZM145.6,111.9v11h2.3v-11h-2.3ZM146.8,144.3c.7,0,1.3-.6,1.3-1.3s-.6-1.3-1.3-1.3-1.3.6-1.3,1.3.6,1.3,1.3,1.3M147.9,157v-11h-2.3v11h2.3ZM146.8,93c.7,0,1.3-.6,1.3-1.3s-.6-1.3-1.3-1.3-1.3.6-1.3,1.3.6,1.3,1.3,1.3M147.9,105.7v-11h-2.3v11h2.3ZM146.8,75.9c.7,0,1.3-.6,1.3-1.3s-.6-1.3-1.3-1.3-1.3.6-1.3,1.3.6,1.3,1.3,1.3M147.9,88.6v-11h-2.3v11h2.3ZM146.8,58.8c.7,0,1.3-.6,1.3-1.3s-.6-1.3-1.3-1.3-1.3.6-1.3,1.3.6,1.3,1.3,1.3M147.9,71.5v-11h-2.3v11h2.3ZM145.6,43.4v11h2.3v-11h-2.3ZM146.8,39.1c-.7,0-1.3.6-1.3,1.3s.6,1.3,1.3,1.3,1.3-.6,1.3-1.3-.6-1.3-1.3-1.3M177.2,110.1c.7,0,1.3-.6,1.3-1.3s-.6-1.3-1.3-1.3-1.3.6-1.3,1.3.6,1.3,1.3,1.3M178.3,122.8v-11h-2.3v11h2.3ZM177.2,127.2c.7,0,1.3-.6,1.3-1.3s-.6-1.3-1.3-1.3-1.3.6-1.3,1.3.6,1.3,1.3,1.3M178.3,139.9v-11h-2.3v11h2.3ZM176.1,111.9v11h2.3v-11h-2.3ZM177.2,144.3c.7,0,1.3-.6,1.3-1.3s-.6-1.3-1.3-1.3-1.3.6-1.3,1.3.6,1.3,1.3,1.3M178.3,157v-11h-2.3v11h2.3ZM177.2,93c.7,0,1.3-.6,1.3-1.3s-.6-1.3-1.3-1.3-1.3.6-1.3,1.3.6,1.3,1.3,1.3M178.3,105.7v-11h-2.3v11h2.3ZM177.2,75.9c.7,0,1.3-.6,1.3-1.3s-.6-1.3-1.3-1.3-1.3.6-1.3,1.3.6,1.3,1.3,1.3M178.3,88.6v-11h-2.3v11h2.3ZM177.3,58.8c.7,0,1.3-.6,1.3-1.3s-.6-1.3-1.3-1.3-1.3.6-1.3,1.3.6,1.3,1.3,1.3M178.4,71.5v-11h-2.3v11h2.3ZM176.1,43.4v11h2.3v-11h-2.3ZM177.2,39.1c-.7,0-1.3.6-1.3,1.3s.6,1.3,1.3,1.3,1.3-.6,1.3-1.3-.6-1.3-1.3-1.3M192.9,81.9c-.7,0-1.3.6-1.3,1.3s.6,1.3,1.3,1.3,1.3-.6,1.3-1.3-.6-1.3-1.3-1.3M191.7,69.1v11h2.3v-11h-2.3ZM192.9,64.7c-.7,0-1.3.6-1.3,1.3s.6,1.3,1.3,1.3,1.3-.6,1.3-1.3-.6-1.3-1.3-1.3M191.7,52v11h2.3v-11h-2.3ZM194,80.1v-11h-2.3v11h2.3ZM192.9,98.9c-.7,0-1.3.6-1.3,1.3s.6,1.3,1.3,1.3,1.3-.6,1.3-1.3-.6-1.3-1.3-1.3M191.7,86.2v11h2.3v-11h-2.3ZM192.9,116.1c-.7,0-1.3.6-1.3,1.3s.6,1.3,1.3,1.3,1.3-.6,1.3-1.3-.6-1.3-1.3-1.3M191.7,103.3v11h2.3v-11h-2.3ZM192.9,133.1c-.7,0-1.3.6-1.3,1.3s.6,1.3,1.3,1.3,1.3-.6,1.3-1.3-.6-1.3-1.3-1.3M191.7,120.4v11h2.3v-11h-2.3ZM194,148.5v-11h-2.3v11h2.3ZM192.9,152.8c.7,0,1.3-.6,1.3-1.3s-.6-1.3-1.3-1.3-1.3.6-1.3,1.3.6,1.3,1.3,1.3M187.6,110.1c.7,0,1.3-.6,1.3-1.3s-.6-1.3-1.3-1.3-1.3.6-1.3,1.3.6,1.3,1.3,1.3M188.8,122.8v-11h-2.3v11h2.3ZM187.6,127.2c.7,0,1.3-.6,1.3-1.3s-.6-1.3-1.3-1.3-1.3.6-1.3,1.3.6,1.3,1.3,1.3M188.8,139.9v-11h-2.3v11h2.3ZM186.5,111.9v11h2.3v-11h-2.3ZM187.6,144.3c.7,0,1.3-.6,1.3-1.3s-.6-1.3-1.3-1.3-1.3.6-1.3,1.3.6,1.3,1.3,1.3M188.8,157v-11h-2.3v11h2.3ZM187.6,93c.7,0,1.3-.6,1.3-1.3s-.6-1.3-1.3-1.3-1.3.6-1.3,1.3.6,1.3,1.3,1.3M188.8,105.7v-11h-2.3v11h2.3ZM187.6,75.9c.7,0,1.3-.6,1.3-1.3s-.6-1.3-1.3-1.3-1.3.6-1.3,1.3.6,1.3,1.3,1.3M188.8,88.6v-11h-2.3v11h2.3ZM187.6,58.8c.7,0,1.3-.6,1.3-1.3s-.6-1.3-1.3-1.3-1.3.6-1.3,1.3.6,1.3,1.3,1.3M188.8,71.5v-11h-2.3v11h2.3ZM186.5,43.4v11h2.3v-11h-2.3ZM187.6,39.1c-.7,0-1.3.6-1.3,1.3s.6,1.3,1.3,1.3,1.3-.6,1.3-1.3-.6-1.3-1.3-1.3M182.6,81.9c-.7,0-1.3.6-1.3,1.3s.6,1.3,1.3,1.3,1.3-.6,1.3-1.3-.6-1.3-1.3-1.3M181.5,69.1v11h2.3v-11h-2.3ZM182.6,64.7c-.7,0-1.3.6-1.3,1.3s.6,1.3,1.3,1.3,1.3-.6,1.3-1.3-.6-1.3-1.3-1.3M192.9,48.1c-.7,0-1.3.6-1.3,1.3s.6,1.3,1.3,1.3,1.3-.6,1.3-1.3-.6-1.3-1.3-1.3M182.6,48.1c-.7,0-1.3.6-1.3,1.3s.6,1.3,1.3,1.3,1.3-.6,1.3-1.3-.6-1.3-1.3-1.3M181.5,52v11h2.3v-11h-2.3ZM183.7,80.1v-11h-2.3v11h2.3ZM182.6,98.9c-.7,0-1.3.6-1.3,1.3s.6,1.3,1.3,1.3,1.3-.6,1.3-1.3-.6-1.3-1.3-1.3M181.5,86.2v11h2.3v-11h-2.3ZM182.6,116.1c-.7,0-1.3.6-1.3,1.3s.6,1.3,1.3,1.3,1.3-.6,1.3-1.3-.6-1.3-1.3-1.3M181.4,103.3v11h2.3v-11h-2.3ZM182.6,133.1c-.7,0-1.3.6-1.3,1.3s.6,1.3,1.3,1.3,1.3-.6,1.3-1.3-.6-1.3-1.3-1.3M181.4,120.4v11h2.3v-11h-2.3ZM183.7,148.5v-11h-2.3v11h2.3ZM182.6,152.8c.7,0,1.3-.6,1.3-1.3s-.6-1.3-1.3-1.3-1.3.6-1.3,1.3.6,1.3,1.3,1.3M224.7,81.9c-.7,0-1.3.6-1.3,1.3s.6,1.3,1.3,1.3,1.3-.6,1.3-1.3-.6-1.3-1.3-1.3M223.6,69.1v11h2.3v-11h-2.3ZM224.7,64.7c-.7,0-1.3.6-1.3,1.3s.6,1.3,1.3,1.3,1.3-.6,1.3-1.3-.6-1.3-1.3-1.3M223.6,52v11h2.3v-11h-2.3ZM225.9,80.1v-11h-2.3v11h2.3ZM224.7,98.9c-.7,0-1.3.6-1.3,1.3s.6,1.3,1.3,1.3,1.3-.6,1.3-1.3-.6-1.3-1.3-1.3M223.6,86.2v11h2.3v-11h-2.3ZM224.7,116.1c-.7,0-1.3.6-1.3,1.3s.6,1.3,1.3,1.3,1.3-.6,1.3-1.3-.6-1.3-1.3-1.3M223.6,103.3v11h2.3v-11h-2.3ZM224.7,133.1c-.7,0-1.3.6-1.3,1.3s.6,1.3,1.3,1.3,1.3-.6,1.3-1.3-.6-1.3-1.3-1.3M223.6,120.4v11h2.3v-11h-2.3ZM225.8,148.5v-11h-2.3v11h2.3ZM224.7,152.8c.7,0,1.3-.6,1.3-1.3s-.6-1.3-1.3-1.3-1.3.6-1.3,1.3.6,1.3,1.3,1.3M219.5,110.1c.7,0,1.3-.6,1.3-1.3s-.6-1.3-1.3-1.3-1.3.6-1.3,1.3.6,1.3,1.3,1.3M220.6,122.8v-11h-2.3v11h2.3ZM219.5,127.2c.7,0,1.3-.6,1.3-1.3s-.6-1.3-1.3-1.3-1.3.6-1.3,1.3.6,1.3,1.3,1.3M220.6,139.9v-11h-2.3v11h2.3ZM218.4,111.9v11h2.3v-11h-2.3ZM219.5,144.3c.7,0,1.3-.6,1.3-1.3s-.6-1.3-1.3-1.3-1.3.6-1.3,1.3.6,1.3,1.3,1.3M220.6,157v-11h-2.3v11h2.3ZM219.5,93c.7,0,1.3-.6,1.3-1.3s-.6-1.3-1.3-1.3-1.3.6-1.3,1.3.6,1.3,1.3,1.3M220.6,105.7v-11h-2.3v11h2.3ZM219.5,75.9c.7,0,1.3-.6,1.3-1.3s-.6-1.3-1.3-1.3-1.3.6-1.3,1.3.6,1.3,1.3,1.3M220.6,88.6v-11h-2.3v11h2.3ZM219.5,58.8c.7,0,1.3-.6,1.3-1.3s-.6-1.3-1.3-1.3-1.3.6-1.3,1.3.6,1.3,1.3,1.3M220.6,71.5v-11h-2.3v11h2.3ZM218.4,43.4v11h2.3v-11h-2.3ZM219.5,39.1c-.7,0-1.3.6-1.3,1.3s.6,1.3,1.3,1.3,1.3-.6,1.3-1.3-.6-1.3-1.3-1.3M214.5,81.9c-.7,0-1.3.6-1.3,1.3s.6,1.3,1.3,1.3,1.3-.6,1.3-1.3-.6-1.3-1.3-1.3M213.3,69.1v11h2.3v-11h-2.3ZM214.5,64.7c-.7,0-1.3.6-1.3,1.3s.6,1.3,1.3,1.3,1.3-.6,1.3-1.3-.6-1.3-1.3-1.3M224.7,48.1c-.7,0-1.3.6-1.3,1.3s.6,1.3,1.3,1.3,1.3-.6,1.3-1.3-.6-1.3-1.3-1.3M214.5,48.1c-.7,0-1.3.6-1.3,1.3s.6,1.3,1.3,1.3,1.3-.6,1.3-1.3-.6-1.3-1.3-1.3M204,48.1c-.7,0-1.3.6-1.3,1.3s.6,1.3,1.3,1.3,1.3-.6,1.3-1.3-.6-1.3-1.3-1.3M213.3,52v11h2.3v-11h-2.3ZM215.6,80.1v-11h-2.3v11h2.3ZM214.5,98.9c-.7,0-1.3.6-1.3,1.3s.6,1.3,1.3,1.3,1.3-.6,1.3-1.3-.6-1.3-1.3-1.3M213.3,86.2v11h2.3v-11h-2.3ZM214.5,116.1c-.7,0-1.3.6-1.3,1.3s.6,1.3,1.3,1.3,1.3-.6,1.3-1.3-.6-1.3-1.3-1.3M213.3,103.3v11h2.3v-11h-2.3ZM214.4,133.1c-.7,0-1.3.6-1.3,1.3s.6,1.3,1.3,1.3,1.3-.6,1.3-1.3-.6-1.3-1.3-1.3M213.3,120.4v11h2.3v-11h-2.3ZM215.6,148.5v-11h-2.3v11h2.3ZM214.5,152.8c.7,0,1.3-.6,1.3-1.3s-.6-1.3-1.3-1.3-1.3.6-1.3,1.3.6,1.3,1.3,1.3M209.2,110.1c.7,0,1.3-.6,1.3-1.3s-.6-1.3-1.3-1.3-1.3.6-1.3,1.3.6,1.3,1.3,1.3M210.4,122.8v-11h-2.3v11h2.3ZM209.2,127.2c.7,0,1.3-.6,1.3-1.3s-.6-1.3-1.3-1.3-1.3.6-1.3,1.3.6,1.3,1.3,1.3M210.3,139.9v-11h-2.3v11h2.3ZM208,111.9v11h2.3v-11h-2.3ZM209.2,144.3c.7,0,1.3-.6,1.3-1.3s-.6-1.3-1.3-1.3-1.3.6-1.3,1.3.6,1.3,1.3,1.3M210.3,157v-11h-2.3v11h2.3ZM209.2,93c.7,0,1.3-.6,1.3-1.3s-.6-1.3-1.3-1.3-1.3.6-1.3,1.3.6,1.3,1.3,1.3M210.4,105.7v-11h-2.3v11h2.3ZM209.2,75.9c.7,0,1.3-.6,1.3-1.3s-.6-1.3-1.3-1.3-1.3.6-1.3,1.3.6,1.3,1.3,1.3M210.4,88.6v-11h-2.3v11h2.3ZM209.2,58.8c.7,0,1.3-.6,1.3-1.3s-.6-1.3-1.3-1.3-1.3.6-1.3,1.3.6,1.3,1.3,1.3M210.4,71.5v-11h-2.3v11h2.3ZM208.1,43.4v11h2.3v-11h-2.3ZM209.2,39.1c-.7,0-1.3.6-1.3,1.3s.6,1.3,1.3,1.3,1.3-.6,1.3-1.3-.6-1.3-1.3-1.3M204,81.9c-.7,0-1.3.6-1.3,1.3s.6,1.3,1.3,1.3,1.3-.6,1.3-1.3-.6-1.3-1.3-1.3M202.9,69.1v11h2.3v-11h-2.3ZM204,64.7c-.7,0-1.3.6-1.3,1.3s.6,1.3,1.3,1.3,1.3-.6,1.3-1.3-.6-1.3-1.3-1.3M202.9,52v11h2.3v-11h-2.3ZM205.1,80.1v-11h-2.3v11h2.3ZM204,98.9c-.7,0-1.3.6-1.3,1.3s.6,1.3,1.3,1.3,1.3-.6,1.3-1.3-.6-1.3-1.3-1.3M202.9,86.2v11h2.3v-11h-2.3ZM204,116.1c-.7,0-1.3.6-1.3,1.3s.6,1.3,1.3,1.3,1.3-.6,1.3-1.3-.6-1.3-1.3-1.3M202.9,103.3v11h2.3v-11h-2.3ZM204,133.1c-.7,0-1.3.6-1.3,1.3s.6,1.3,1.3,1.3,1.3-.6,1.3-1.3-.6-1.3-1.3-1.3M202.9,120.4v11h2.3v-11h-2.3ZM205.1,148.5v-11h-2.3v11h2.3ZM204,152.8c.7,0,1.3-.6,1.3-1.3s-.6-1.3-1.3-1.3-1.3.6-1.3,1.3.6,1.3,1.3,1.3M198.8,110.1c.7,0,1.3-.6,1.3-1.3s-.6-1.3-1.3-1.3-1.3.6-1.3,1.3.6,1.3,1.3,1.3M199.9,122.8v-11h-2.3v11h2.3ZM198.8,127.2c.7,0,1.3-.6,1.3-1.3s-.6-1.3-1.3-1.3-1.3.6-1.3,1.3.6,1.3,1.3,1.3M199.9,139.9v-11h-2.3v11h2.3ZM197.6,111.9v11h2.3v-11h-2.3ZM198.8,144.3c.7,0,1.3-.6,1.3-1.3s-.6-1.3-1.3-1.3-1.3.6-1.3,1.3.6,1.3,1.3,1.3M199.9,157v-11h-2.3v11h2.3ZM198.8,93c.7,0,1.3-.6,1.3-1.3s-.6-1.3-1.3-1.3-1.3.6-1.3,1.3.6,1.3,1.3,1.3M199.9,105.7v-11h-2.3v11h2.3ZM198.8,75.9c.7,0,1.3-.6,1.3-1.3s-.6-1.3-1.3-1.3-1.3.6-1.3,1.3.6,1.3,1.3,1.3M199.9,88.6v-11h-2.3v11h2.3ZM198.8,58.8c.7,0,1.3-.6,1.3-1.3s-.6-1.3-1.3-1.3-1.3.6-1.3,1.3.6,1.3,1.3,1.3M199.9,71.5v-11h-2.3v11h2.3ZM197.6,43.4v11h2.3v-11h-2.3ZM198.8,39.1c-.7,0-1.3.6-1.3,1.3s.6,1.3,1.3,1.3,1.3-.6,1.3-1.3-.6-1.3-1.3-1.3M229.2,110.1c.7,0,1.3-.6,1.3-1.3s-.6-1.3-1.3-1.3-1.3.6-1.3,1.3.6,1.3,1.3,1.3M230.4,122.8v-11h-2.3v11h2.3ZM229.2,127.2c.7,0,1.3-.6,1.3-1.3s-.6-1.3-1.3-1.3-1.3.6-1.3,1.3.6,1.3,1.3,1.3M230.4,139.9v-11h-2.3v11h2.3ZM228.1,111.9v11h2.3v-11h-2.3ZM229.2,144.3c.7,0,1.3-.6,1.3-1.3s-.6-1.3-1.3-1.3-1.3.6-1.3,1.3.6,1.3,1.3,1.3M230.4,157v-11h-2.3v11h2.3ZM229.2,93c.7,0,1.3-.6,1.3-1.3s-.6-1.3-1.3-1.3-1.3.6-1.3,1.3.6,1.3,1.3,1.3M230.4,105.7v-11h-2.3v11h2.3ZM229.2,75.9c.7,0,1.3-.6,1.3-1.3s-.6-1.3-1.3-1.3-1.3.6-1.3,1.3.6,1.3,1.3,1.3M230.4,88.6v-11h-2.3v11h2.3ZM229.3,58.8c.7,0,1.3-.6,1.3-1.3s-.6-1.3-1.3-1.3-1.3.6-1.3,1.3.6,1.3,1.3,1.3M230.4,71.5v-11h-2.3v11h2.3ZM228.1,43.4v11h2.3v-11h-2.3ZM229.2,39.1c-.7,0-1.3.6-1.3,1.3s.6,1.3,1.3,1.3,1.3-.6,1.3-1.3-.6-1.3-1.3-1.3M244.9,81.9c-.7,0-1.3.6-1.3,1.3s.6,1.3,1.3,1.3,1.3-.6,1.3-1.3-.6-1.3-1.3-1.3M243.8,69.1v11h2.3v-11h-2.3ZM244.9,64.7c-.7,0-1.3.6-1.3,1.3s.6,1.3,1.3,1.3,1.3-.6,1.3-1.3-.6-1.3-1.3-1.3M243.8,52v11h2.3v-11h-2.3ZM246.1,80.1v-11h-2.3v11h2.3ZM244.9,98.9c-.7,0-1.3.6-1.3,1.3s.6,1.3,1.3,1.3,1.3-.6,1.3-1.3-.6-1.3-1.3-1.3M243.8,86.2v11h2.3v-11h-2.3ZM244.9,116.1c-.7,0-1.3.6-1.3,1.3s.6,1.3,1.3,1.3,1.3-.6,1.3-1.3-.6-1.3-1.3-1.3M243.8,103.3v11h2.3v-11h-2.3ZM244.9,133.1c-.7,0-1.3.6-1.3,1.3s.6,1.3,1.3,1.3,1.3-.6,1.3-1.3-.6-1.3-1.3-1.3M243.8,120.4v11h2.3v-11h-2.3ZM246,148.5v-11h-2.3v11h2.3ZM244.9,152.8c.7,0,1.3-.6,1.3-1.3s-.6-1.3-1.3-1.3-1.3.6-1.3,1.3.6,1.3,1.3,1.3M239.6,110.1c.7,0,1.3-.6,1.3-1.3s-.6-1.3-1.3-1.3-1.3.6-1.3,1.3.6,1.3,1.3,1.3M240.8,122.8v-11h-2.3v11h2.3ZM239.6,127.2c.7,0,1.3-.6,1.3-1.3s-.6-1.3-1.3-1.3-1.3.6-1.3,1.3.6,1.3,1.3,1.3M240.8,139.9v-11h-2.3v11h2.3ZM238.5,111.9v11h2.3v-11h-2.3ZM239.6,144.3c.7,0,1.3-.6,1.3-1.3s-.6-1.3-1.3-1.3-1.3.6-1.3,1.3.6,1.3,1.3,1.3M240.8,157v-11h-2.3v11h2.3ZM239.6,93c.7,0,1.3-.6,1.3-1.3s-.6-1.3-1.3-1.3-1.3.6-1.3,1.3.6,1.3,1.3,1.3M240.8,105.7v-11h-2.3v11h2.3ZM239.6,75.9c.7,0,1.3-.6,1.3-1.3s-.6-1.3-1.3-1.3-1.3.6-1.3,1.3.6,1.3,1.3,1.3M240.8,88.6v-11h-2.3v11h2.3ZM239.6,58.8c.7,0,1.3-.6,1.3-1.3s-.6-1.3-1.3-1.3-1.3.6-1.3,1.3.6,1.3,1.3,1.3M240.8,71.5v-11h-2.3v11h2.3ZM238.5,43.4v11h2.3v-11h-2.3ZM239.6,39.1c-.7,0-1.3.6-1.3,1.3s.6,1.3,1.3,1.3,1.3-.6,1.3-1.3-.6-1.3-1.3-1.3M234.6,81.9c-.7,0-1.3.6-1.3,1.3s.6,1.3,1.3,1.3,1.3-.6,1.3-1.3-.6-1.3-1.3-1.3M233.5,69.1v11h2.3v-11h-2.3ZM234.6,64.7c-.7,0-1.3.6-1.3,1.3s.6,1.3,1.3,1.3,1.3-.6,1.3-1.3-.6-1.3-1.3-1.3M244.9,48.1c-.7,0-1.3.6-1.3,1.3s.6,1.3,1.3,1.3,1.3-.6,1.3-1.3-.6-1.3-1.3-1.3M234.6,48.1c-.7,0-1.3.6-1.3,1.3s.6,1.3,1.3,1.3,1.3-.6,1.3-1.3-.6-1.3-1.3-1.3M233.5,52v11h2.3v-11h-2.3ZM235.8,80.1v-11h-2.3v11h2.3ZM234.6,98.9c-.7,0-1.3.6-1.3,1.3s.6,1.3,1.3,1.3,1.3-.6,1.3-1.3-.6-1.3-1.3-1.3M233.5,86.2v11h2.3v-11h-2.3ZM234.6,116.1c-.7,0-1.3.6-1.3,1.3s.6,1.3,1.3,1.3,1.3-.6,1.3-1.3-.6-1.3-1.3-1.3M233.4,103.3v11h2.3v-11h-2.3ZM234.6,133.1c-.7,0-1.3.6-1.3,1.3s.6,1.3,1.3,1.3,1.3-.6,1.3-1.3-.6-1.3-1.3-1.3M233.4,120.4v11h2.3v-11h-2.3ZM235.7,148.5v-11h-2.3v11h2.3ZM234.6,152.8c.7,0,1.3-.6,1.3-1.3s-.6-1.3-1.3-1.3-1.3.6-1.3,1.3.6,1.3,1.3,1.3M276.7,81.9c-.7,0-1.3.6-1.3,1.3s.6,1.3,1.3,1.3,1.3-.6,1.3-1.3-.6-1.3-1.3-1.3M275.6,69.1v11h2.3v-11h-2.3ZM276.7,64.7c-.7,0-1.3.6-1.3,1.3s.6,1.3,1.3,1.3,1.3-.6,1.3-1.3-.6-1.3-1.3-1.3M275.6,52v11h2.3v-11h-2.3ZM277.9,80.1v-11h-2.3v11h2.3ZM276.7,98.9c-.7,0-1.3.6-1.3,1.3s.6,1.3,1.3,1.3,1.3-.6,1.3-1.3-.6-1.3-1.3-1.3M275.6,86.2v11h2.3v-11h-2.3ZM276.7,116.1c-.7,0-1.3.6-1.3,1.3s.6,1.3,1.3,1.3,1.3-.6,1.3-1.3-.6-1.3-1.3-1.3M275.6,103.3v11h2.3v-11h-2.3ZM276.7,133.1c-.7,0-1.3.6-1.3,1.3s.6,1.3,1.3,1.3,1.3-.6,1.3-1.3-.6-1.3-1.3-1.3M275.6,120.4v11h2.3v-11h-2.3ZM277.9,148.5v-11h-2.3v11h2.3ZM276.7,152.8c.7,0,1.3-.6,1.3-1.3s-.6-1.3-1.3-1.3-1.3.6-1.3,1.3.6,1.3,1.3,1.3M271.5,110.1c.7,0,1.3-.6,1.3-1.3s-.6-1.3-1.3-1.3-1.3.6-1.3,1.3.6,1.3,1.3,1.3M272.6,122.8v-11h-2.3v11h2.3ZM271.5,127.2c.7,0,1.3-.6,1.3-1.3s-.6-1.3-1.3-1.3-1.3.6-1.3,1.3.6,1.3,1.3,1.3M272.6,139.9v-11h-2.3v11h2.3ZM270.4,111.9v11h2.3v-11h-2.3ZM271.5,144.3c.7,0,1.3-.6,1.3-1.3s-.6-1.3-1.3-1.3-1.3.6-1.3,1.3.6,1.3,1.3,1.3M272.6,157v-11h-2.3v11h2.3ZM271.5,93c.7,0,1.3-.6,1.3-1.3s-.6-1.3-1.3-1.3-1.3.6-1.3,1.3.6,1.3,1.3,1.3M272.6,105.7v-11h-2.3v11h2.3ZM271.5,75.9c.7,0,1.3-.6,1.3-1.3s-.6-1.3-1.3-1.3-1.3.6-1.3,1.3.6,1.3,1.3,1.3M272.6,88.6v-11h-2.3v11h2.3ZM271.6,58.8c.7,0,1.3-.6,1.3-1.3s-.6-1.3-1.3-1.3-1.3.6-1.3,1.3.6,1.3,1.3,1.3M272.6,71.5v-11h-2.3v11h2.3ZM270.4,43.4v11h2.3v-11h-2.3ZM271.5,39.1c-.7,0-1.3.6-1.3,1.3s.6,1.3,1.3,1.3,1.3-.6,1.3-1.3-.6-1.3-1.3-1.3M266.5,81.9c-.7,0-1.3.6-1.3,1.3s.6,1.3,1.3,1.3,1.3-.6,1.3-1.3-.6-1.3-1.3-1.3M265.3,69.1v11h2.3v-11h-2.3ZM266.5,64.7c-.7,0-1.3.6-1.3,1.3s.6,1.3,1.3,1.3,1.3-.6,1.3-1.3-.6-1.3-1.3-1.3M276.7,48.1c-.7,0-1.3.6-1.3,1.3s.6,1.3,1.3,1.3,1.3-.6,1.3-1.3-.6-1.3-1.3-1.3M266.5,48.1c-.7,0-1.3.6-1.3,1.3s.6,1.3,1.3,1.3,1.3-.6,1.3-1.3-.6-1.3-1.3-1.3M256,48.1c-.7,0-1.3.6-1.3,1.3s.6,1.3,1.3,1.3,1.3-.6,1.3-1.3-.6-1.3-1.3-1.3M265.3,52v11h2.3v-11h-2.3ZM267.6,80.1v-11h-2.3v11h2.3ZM266.5,98.9c-.7,0-1.3.6-1.3,1.3s.6,1.3,1.3,1.3,1.3-.6,1.3-1.3-.6-1.3-1.3-1.3M265.3,86.2v11h2.3v-11h-2.3ZM266.5,116.1c-.7,0-1.3.6-1.3,1.3s.6,1.3,1.3,1.3,1.3-.6,1.3-1.3-.6-1.3-1.3-1.3M265.3,103.3v11h2.3v-11h-2.3ZM266.4,133.1c-.7,0-1.3.6-1.3,1.3s.6,1.3,1.3,1.3,1.3-.6,1.3-1.3-.6-1.3-1.3-1.3M265.3,120.4v11h2.3v-11h-2.3ZM267.6,148.5v-11h-2.3v11h2.3ZM266.5,152.8c.7,0,1.3-.6,1.3-1.3s-.6-1.3-1.3-1.3-1.3.6-1.3,1.3.6,1.3,1.3,1.3M261.2,110.1c.7,0,1.3-.6,1.3-1.3s-.6-1.3-1.3-1.3-1.3.6-1.3,1.3.6,1.3,1.3,1.3M262.4,122.8v-11h-2.3v11h2.3ZM261.2,127.2c.7,0,1.3-.6,1.3-1.3s-.6-1.3-1.3-1.3-1.3.6-1.3,1.3.6,1.3,1.3,1.3M262.3,139.9v-11h-2.3v11h2.3ZM260.1,111.9v11h2.3v-11h-2.3ZM261.2,144.3c.7,0,1.3-.6,1.3-1.3s-.6-1.3-1.3-1.3-1.3.6-1.3,1.3.6,1.3,1.3,1.3M262.3,157v-11h-2.3v11h2.3ZM261.2,93c.7,0,1.3-.6,1.3-1.3s-.6-1.3-1.3-1.3-1.3.6-1.3,1.3.6,1.3,1.3,1.3M262.4,105.7v-11h-2.3v11h2.3ZM261.2,75.9c.7,0,1.3-.6,1.3-1.3s-.6-1.3-1.3-1.3-1.3.6-1.3,1.3.6,1.3,1.3,1.3M262.4,88.6v-11h-2.3v11h2.3ZM261.2,58.8c.7,0,1.3-.6,1.3-1.3s-.6-1.3-1.3-1.3-1.3.6-1.3,1.3.6,1.3,1.3,1.3M262.4,71.5v-11h-2.3v11h2.3ZM260.1,43.4v11h2.3v-11h-2.3ZM261.2,39.1c-.7,0-1.3.6-1.3,1.3s.6,1.3,1.3,1.3,1.3-.6,1.3-1.3-.6-1.3-1.3-1.3M256,81.9c-.7,0-1.3.6-1.3,1.3s.6,1.3,1.3,1.3,1.3-.6,1.3-1.3-.6-1.3-1.3-1.3M254.9,69.1v11h2.3v-11h-2.3ZM256,64.7c-.7,0-1.3.6-1.3,1.3s.6,1.3,1.3,1.3,1.3-.6,1.3-1.3-.6-1.3-1.3-1.3M254.9,52v11h2.3v-11h-2.3ZM257.1,80.1v-11h-2.3v11h2.3ZM256,98.9c-.7,0-1.3.6-1.3,1.3s.6,1.3,1.3,1.3,1.3-.6,1.3-1.3-.6-1.3-1.3-1.3M254.9,86.2v11h2.3v-11h-2.3ZM256,116.1c-.7,0-1.3.6-1.3,1.3s.6,1.3,1.3,1.3,1.3-.6,1.3-1.3-.6-1.3-1.3-1.3M254.9,103.3v11h2.3v-11h-2.3ZM256,133.1c-.7,0-1.3.6-1.3,1.3s.6,1.3,1.3,1.3,1.3-.6,1.3-1.3-.6-1.3-1.3-1.3M254.9,120.4v11h2.3v-11h-2.3ZM257.1,148.5v-11h-2.3v11h2.3ZM256,152.8c.7,0,1.3-.6,1.3-1.3s-.6-1.3-1.3-1.3-1.3.6-1.3,1.3.6,1.3,1.3,1.3M250.8,110.1c.7,0,1.3-.6,1.3-1.3s-.6-1.3-1.3-1.3-1.3.6-1.3,1.3.6,1.3,1.3,1.3M251.9,122.8v-11h-2.3v11h2.3ZM250.8,127.2c.7,0,1.3-.6,1.3-1.3s-.6-1.3-1.3-1.3-1.3.6-1.3,1.3.6,1.3,1.3,1.3M251.9,139.9v-11h-2.3v11h2.3ZM249.7,111.9v11h2.3v-11h-2.3ZM250.8,144.3c.7,0,1.3-.6,1.3-1.3s-.6-1.3-1.3-1.3-1.3.6-1.3,1.3.6,1.3,1.3,1.3M251.9,157v-11h-2.3v11h2.3ZM250.8,93c.7,0,1.3-.6,1.3-1.3s-.6-1.3-1.3-1.3-1.3.6-1.3,1.3.6,1.3,1.3,1.3M251.9,105.7v-11h-2.3v11h2.3ZM250.8,75.9c.7,0,1.3-.6,1.3-1.3s-.6-1.3-1.3-1.3-1.3.6-1.3,1.3.6,1.3,1.3,1.3M251.9,88.6v-11h-2.3v11h2.3ZM250.8,58.8c.7,0,1.3-.6,1.3-1.3s-.6-1.3-1.3-1.3-1.3.6-1.3,1.3.6,1.3,1.3,1.3M251.9,71.5v-11h-2.3v11h2.3ZM249.7,43.4v11h2.3v-11h-2.3ZM250.8,39.1c-.7,0-1.3.6-1.3,1.3s.6,1.3,1.3,1.3,1.3-.6,1.3-1.3-.6-1.3-1.3-1.3M281.2,110.1c.7,0,1.3-.6,1.3-1.3s-.6-1.3-1.3-1.3-1.3.6-1.3,1.3.6,1.3,1.3,1.3M282.4,122.8v-11h-2.3v11h2.3ZM281.2,127.2c.7,0,1.3-.6,1.3-1.3s-.6-1.3-1.3-1.3-1.3.6-1.3,1.3.6,1.3,1.3,1.3M282.4,139.9v-11h-2.3v11h2.3ZM280.1,111.9v11h2.3v-11h-2.3ZM281.2,144.3c.7,0,1.3-.6,1.3-1.3s-.6-1.3-1.3-1.3-1.3.6-1.3,1.3.6,1.3,1.3,1.3M282.4,157v-11h-2.3v11h2.3ZM281.2,93c.7,0,1.3-.6,1.3-1.3s-.6-1.3-1.3-1.3-1.3.6-1.3,1.3.6,1.3,1.3,1.3M282.4,105.7v-11h-2.3v11h2.3ZM281.2,75.9c.7,0,1.3-.6,1.3-1.3s-.6-1.3-1.3-1.3-1.3.6-1.3,1.3.6,1.3,1.3,1.3M282.4,88.6v-11h-2.3v11h2.3ZM281.3,58.8c.7,0,1.3-.6,1.3-1.3s-.6-1.3-1.3-1.3-1.3.6-1.3,1.3.6,1.3,1.3,1.3M282.4,71.5v-11h-2.3v11h2.3ZM280.1,43.4v11h2.3v-11h-2.3ZM281.2,39.1c-.7,0-1.3.6-1.3,1.3s.6,1.3,1.3,1.3,1.3-.6,1.3-1.3-.6-1.3-1.3-1.3M296.9,81.9c-.7,0-1.3.6-1.3,1.3s.6,1.3,1.3,1.3,1.3-.6,1.3-1.3-.6-1.3-1.3-1.3M295.8,69.1v11h2.3v-11h-2.3ZM296.9,64.7c-.7,0-1.3.6-1.3,1.3s.6,1.3,1.3,1.3,1.3-.6,1.3-1.3-.6-1.3-1.3-1.3M295.8,52v11h2.3v-11h-2.3ZM298.1,80.1v-11h-2.3v11h2.3ZM296.9,98.9c-.7,0-1.3.6-1.3,1.3s.6,1.3,1.3,1.3,1.3-.6,1.3-1.3-.6-1.3-1.3-1.3M295.8,86.2v11h2.3v-11h-2.3ZM296.9,116.1c-.7,0-1.3.6-1.3,1.3s.6,1.3,1.3,1.3,1.3-.6,1.3-1.3-.6-1.3-1.3-1.3M295.8,103.3v11h2.3v-11h-2.3ZM296.9,133.1c-.7,0-1.3.6-1.3,1.3s.6,1.3,1.3,1.3,1.3-.6,1.3-1.3-.6-1.3-1.3-1.3M295.8,120.4v11h2.3v-11h-2.3ZM298,148.5v-11h-2.3v11h2.3ZM296.9,152.8c.7,0,1.3-.6,1.3-1.3s-.6-1.3-1.3-1.3-1.3.6-1.3,1.3.6,1.3,1.3,1.3M291.7,110.1c.7,0,1.3-.6,1.3-1.3s-.6-1.3-1.3-1.3-1.3.6-1.3,1.3.6,1.3,1.3,1.3M292.8,122.8v-11h-2.3v11h2.3ZM291.7,127.2c.7,0,1.3-.6,1.3-1.3s-.6-1.3-1.3-1.3-1.3.6-1.3,1.3.6,1.3,1.3,1.3M292.8,139.9v-11h-2.3v11h2.3ZM290.5,111.9v11h2.3v-11h-2.3ZM291.7,144.3c.7,0,1.3-.6,1.3-1.3s-.6-1.3-1.3-1.3-1.3.6-1.3,1.3.6,1.3,1.3,1.3M292.8,157v-11h-2.3v11h2.3ZM291.7,93c.7,0,1.3-.6,1.3-1.3s-.6-1.3-1.3-1.3-1.3.6-1.3,1.3.6,1.3,1.3,1.3M292.8,105.7v-11h-2.3v11h2.3ZM291.7,75.9c.7,0,1.3-.6,1.3-1.3s-.6-1.3-1.3-1.3-1.3.6-1.3,1.3.6,1.3,1.3,1.3M292.8,88.6v-11h-2.3v11h2.3ZM291.7,58.8c.7,0,1.3-.6,1.3-1.3s-.6-1.3-1.3-1.3-1.3.6-1.3,1.3.6,1.3,1.3,1.3M292.8,71.5v-11h-2.3v11h2.3ZM290.5,43.4v11h2.3v-11h-2.3ZM291.7,39.1c-.7,0-1.3.6-1.3,1.3s.6,1.3,1.3,1.3,1.3-.6,1.3-1.3-.6-1.3-1.3-1.3M286.6,81.9c-.7,0-1.3.6-1.3,1.3s.6,1.3,1.3,1.3,1.3-.6,1.3-1.3-.6-1.3-1.3-1.3M285.5,69.1v11h2.3v-11h-2.3ZM286.6,64.7c-.7,0-1.3.6-1.3,1.3s.6,1.3,1.3,1.3,1.3-.6,1.3-1.3-.6-1.3-1.3-1.3M296.9,48.1c-.7,0-1.3.6-1.3,1.3s.6,1.3,1.3,1.3,1.3-.6,1.3-1.3-.6-1.3-1.3-1.3M286.6,48.1c-.7,0-1.3.6-1.3,1.3s.6,1.3,1.3,1.3,1.3-.6,1.3-1.3-.6-1.3-1.3-1.3M285.5,52v11h2.3v-11h-2.3ZM287.8,80.1v-11h-2.3v11h2.3ZM286.6,98.9c-.7,0-1.3.6-1.3,1.3s.6,1.3,1.3,1.3,1.3-.6,1.3-1.3-.6-1.3-1.3-1.3M285.5,86.2v11h2.3v-11h-2.3ZM286.6,116.1c-.7,0-1.3.6-1.3,1.3s.6,1.3,1.3,1.3,1.3-.6,1.3-1.3-.6-1.3-1.3-1.3M285.5,103.3v11h2.3v-11h-2.3ZM286.6,133.1c-.7,0-1.3.6-1.3,1.3s.6,1.3,1.3,1.3,1.3-.6,1.3-1.3-.6-1.3-1.3-1.3M285.5,120.4v11h2.3v-11h-2.3ZM287.7,148.5v-11h-2.3v11h2.3ZM286.6,152.8c.7,0,1.3-.6,1.3-1.3s-.6-1.3-1.3-1.3-1.3.6-1.3,1.3.6,1.3,1.3,1.3M328.7,81.9c-.7,0-1.3.6-1.3,1.3s.6,1.3,1.3,1.3,1.3-.6,1.3-1.3-.6-1.3-1.3-1.3M327.6,69.1v11h2.3v-11h-2.3ZM328.7,64.7c-.7,0-1.3.6-1.3,1.3s.6,1.3,1.3,1.3,1.3-.6,1.3-1.3-.6-1.3-1.3-1.3M327.6,52v11h2.3v-11h-2.3ZM329.9,80.1v-11h-2.3v11h2.3ZM328.7,98.9c-.7,0-1.3.6-1.3,1.3s.6,1.3,1.3,1.3,1.3-.6,1.3-1.3-.6-1.3-1.3-1.3M327.6,86.2v11h2.3v-11h-2.3ZM328.7,116.1c-.7,0-1.3.6-1.3,1.3s.6,1.3,1.3,1.3,1.3-.6,1.3-1.3-.6-1.3-1.3-1.3M327.6,103.3v11h2.3v-11h-2.3ZM328.7,133.1c-.7,0-1.3.6-1.3,1.3s.6,1.3,1.3,1.3,1.3-.6,1.3-1.3-.6-1.3-1.3-1.3M327.6,120.4v11h2.3v-11h-2.3ZM329.9,148.5v-11h-2.3v11h2.3ZM328.7,152.8c.7,0,1.3-.6,1.3-1.3s-.6-1.3-1.3-1.3-1.3.6-1.3,1.3.6,1.3,1.3,1.3M323.5,110.1c.7,0,1.3-.6,1.3-1.3s-.6-1.3-1.3-1.3-1.3.6-1.3,1.3.6,1.3,1.3,1.3M324.6,122.8v-11h-2.3v11h2.3ZM323.5,127.2c.7,0,1.3-.6,1.3-1.3s-.6-1.3-1.3-1.3-1.3.6-1.3,1.3.6,1.3,1.3,1.3M324.6,139.9v-11h-2.3v11h2.3ZM322.4,111.9v11h2.3v-11h-2.3ZM323.5,144.3c.7,0,1.3-.6,1.3-1.3s-.6-1.3-1.3-1.3-1.3.6-1.3,1.3.6,1.3,1.3,1.3M324.6,157v-11h-2.3v11h2.3ZM323.5,93c.7,0,1.3-.6,1.3-1.3s-.6-1.3-1.3-1.3-1.3.6-1.3,1.3.6,1.3,1.3,1.3M324.6,105.7v-11h-2.3v11h2.3ZM323.5,75.9c.7,0,1.3-.6,1.3-1.3s-.6-1.3-1.3-1.3-1.3.6-1.3,1.3.6,1.3,1.3,1.3M324.6,88.6v-11h-2.3v11h2.3ZM323.6,58.8c.7,0,1.3-.6,1.3-1.3s-.6-1.3-1.3-1.3-1.3.6-1.3,1.3.6,1.3,1.3,1.3M324.6,71.5v-11h-2.3v11h2.3ZM322.4,43.4v11h2.3v-11h-2.3ZM323.5,39.1c-.7,0-1.3.6-1.3,1.3s.6,1.3,1.3,1.3,1.3-.6,1.3-1.3-.6-1.3-1.3-1.3M318.5,81.9c-.7,0-1.3.6-1.3,1.3s.6,1.3,1.3,1.3,1.3-.6,1.3-1.3-.6-1.3-1.3-1.3M317.4,69.1v11h2.3v-11h-2.3ZM318.5,64.7c-.7,0-1.3.6-1.3,1.3s.6,1.3,1.3,1.3,1.3-.6,1.3-1.3-.6-1.3-1.3-1.3M328.7,48.1c-.7,0-1.3.6-1.3,1.3s.6,1.3,1.3,1.3,1.3-.6,1.3-1.3-.6-1.3-1.3-1.3M318.5,48.1c-.7,0-1.3.6-1.3,1.3s.6,1.3,1.3,1.3,1.3-.6,1.3-1.3-.6-1.3-1.3-1.3M308,48.1c-.7,0-1.3.6-1.3,1.3s.6,1.3,1.3,1.3,1.3-.6,1.3-1.3-.6-1.3-1.3-1.3M317.4,52v11h2.3v-11h-2.3ZM319.6,80.1v-11h-2.3v11h2.3ZM318.5,98.9c-.7,0-1.3.6-1.3,1.3s.6,1.3,1.3,1.3,1.3-.6,1.3-1.3-.6-1.3-1.3-1.3M317.4,86.2v11h2.3v-11h-2.3ZM318.5,116.1c-.7,0-1.3.6-1.3,1.3s.6,1.3,1.3,1.3,1.3-.6,1.3-1.3-.6-1.3-1.3-1.3M317.4,103.3v11h2.3v-11h-2.3ZM318.4,133.1c-.7,0-1.3.6-1.3,1.3s.6,1.3,1.3,1.3,1.3-.6,1.3-1.3-.6-1.3-1.3-1.3M317.3,120.4v11h2.3v-11h-2.3ZM319.6,148.5v-11h-2.3v11h2.3ZM318.5,152.8c.7,0,1.3-.6,1.3-1.3s-.6-1.3-1.3-1.3-1.3.6-1.3,1.3.6,1.3,1.3,1.3M313.3,110.1c.7,0,1.3-.6,1.3-1.3s-.6-1.3-1.3-1.3-1.3.6-1.3,1.3.6,1.3,1.3,1.3M314.4,122.8v-11h-2.3v11h2.3ZM313.3,127.2c.7,0,1.3-.6,1.3-1.3s-.6-1.3-1.3-1.3-1.3.6-1.3,1.3.6,1.3,1.3,1.3M314.3,139.9v-11h-2.3v11h2.3ZM312.1,111.9v11h2.3v-11h-2.3ZM313.3,144.3c.7,0,1.3-.6,1.3-1.3s-.6-1.3-1.3-1.3-1.3.6-1.3,1.3.6,1.3,1.3,1.3M314.3,157v-11h-2.3v11h2.3ZM313.3,93c.7,0,1.3-.6,1.3-1.3s-.6-1.3-1.3-1.3-1.3.6-1.3,1.3.6,1.3,1.3,1.3M314.4,105.7v-11h-2.3v11h2.3ZM313.3,75.9c.7,0,1.3-.6,1.3-1.3s-.6-1.3-1.3-1.3-1.3.6-1.3,1.3.6,1.3,1.3,1.3M314.4,88.6v-11h-2.3v11h2.3ZM313.3,58.8c.7,0,1.3-.6,1.3-1.3s-.6-1.3-1.3-1.3-1.3.6-1.3,1.3.6,1.3,1.3,1.3M314.4,71.5v-11h-2.3v11h2.3ZM312.1,43.4v11h2.3v-11h-2.3ZM313.3,39.1c-.7,0-1.3.6-1.3,1.3s.6,1.3,1.3,1.3,1.3-.6,1.3-1.3-.6-1.3-1.3-1.3M308,81.9c-.7,0-1.3.6-1.3,1.3s.6,1.3,1.3,1.3,1.3-.6,1.3-1.3-.6-1.3-1.3-1.3M306.9,69.1v11h2.3v-11h-2.3ZM308,64.7c-.7,0-1.3.6-1.3,1.3s.6,1.3,1.3,1.3,1.3-.6,1.3-1.3-.6-1.3-1.3-1.3M306.9,52v11h2.3v-11h-2.3ZM309.2,80.1v-11h-2.3v11h2.3ZM308,98.9c-.7,0-1.3.6-1.3,1.3s.6,1.3,1.3,1.3,1.3-.6,1.3-1.3-.6-1.3-1.3-1.3M306.9,86.2v11h2.3v-11h-2.3ZM308,116.1c-.7,0-1.3.6-1.3,1.3s.6,1.3,1.3,1.3,1.3-.6,1.3-1.3-.6-1.3-1.3-1.3M306.9,103.3v11h2.3v-11h-2.3ZM308,133.1c-.7,0-1.3.6-1.3,1.3s.6,1.3,1.3,1.3,1.3-.6,1.3-1.3-.6-1.3-1.3-1.3M306.9,120.4v11h2.3v-11h-2.3ZM309.2,148.5v-11h-2.3v11h2.3ZM308,152.8c.7,0,1.3-.6,1.3-1.3s-.6-1.3-1.3-1.3-1.3.6-1.3,1.3.6,1.3,1.3,1.3M302.8,110.1c.7,0,1.3-.6,1.3-1.3s-.6-1.3-1.3-1.3-1.3.6-1.3,1.3.6,1.3,1.3,1.3M303.9,122.8v-11h-2.3v11h2.3ZM302.8,127.2c.7,0,1.3-.6,1.3-1.3s-.6-1.3-1.3-1.3-1.3.6-1.3,1.3.6,1.3,1.3,1.3M303.9,139.9v-11h-2.3v11h2.3ZM301.7,111.9v11h2.3v-11h-2.3ZM302.8,144.3c.7,0,1.3-.6,1.3-1.3s-.6-1.3-1.3-1.3-1.3.6-1.3,1.3.6,1.3,1.3,1.3M303.9,157v-11h-2.3v11h2.3ZM302.8,93c.7,0,1.3-.6,1.3-1.3s-.6-1.3-1.3-1.3-1.3.6-1.3,1.3.6,1.3,1.3,1.3M303.9,105.7v-11h-2.3v11h2.3ZM302.8,75.9c.7,0,1.3-.6,1.3-1.3s-.6-1.3-1.3-1.3-1.3.6-1.3,1.3.6,1.3,1.3,1.3M303.9,88.6v-11h-2.3v11h2.3ZM302.8,58.8c.7,0,1.3-.6,1.3-1.3s-.6-1.3-1.3-1.3-1.3.6-1.3,1.3.6,1.3,1.3,1.3M303.9,71.5v-11h-2.3v11h2.3ZM301.7,43.4v11h2.3v-11h-2.3ZM302.8,39.1c-.7,0-1.3.6-1.3,1.3s.6,1.3,1.3,1.3,1.3-.6,1.3-1.3-.6-1.3-1.3-1.3M333.3,110.1c.7,0,1.3-.6,1.3-1.3s-.6-1.3-1.3-1.3-1.3.6-1.3,1.3.6,1.3,1.3,1.3M334.4,122.8v-11h-2.3v11h2.3ZM333.3,127.2c.7,0,1.3-.6,1.3-1.3s-.6-1.3-1.3-1.3-1.3.6-1.3,1.3.6,1.3,1.3,1.3M334.4,139.9v-11h-2.3v11h2.3ZM332.1,111.9v11h2.3v-11h-2.3ZM333.3,144.3c.7,0,1.3-.6,1.3-1.3s-.6-1.3-1.3-1.3-1.3.6-1.3,1.3.6,1.3,1.3,1.3M334.4,157v-11h-2.3v11h2.3ZM333.3,93c.7,0,1.3-.6,1.3-1.3s-.6-1.3-1.3-1.3-1.3.6-1.3,1.3.6,1.3,1.3,1.3M334.4,105.7v-11h-2.3v11h2.3ZM333.3,75.9c.7,0,1.3-.6,1.3-1.3s-.6-1.3-1.3-1.3-1.3.6-1.3,1.3.6,1.3,1.3,1.3M334.4,88.6v-11h-2.3v11h2.3ZM333.3,58.8c.7,0,1.3-.6,1.3-1.3s-.6-1.3-1.3-1.3-1.3.6-1.3,1.3.6,1.3,1.3,1.3M334.4,71.5v-11h-2.3v11h2.3ZM332.1,43.4v11h2.3v-11h-2.3ZM333.3,39.1c-.7,0-1.3.6-1.3,1.3s.6,1.3,1.3,1.3,1.3-.6,1.3-1.3-.6-1.3-1.3-1.3"/>
              </g>
              <g>
                <g class="cls-13">
                  <path class="cls-10" d="M423.9,83.1c0,.7-.6,1.3-1.3,1.3s-1.3-.6-1.3-1.3.6-1.3,1.3-1.3,1.3.6,1.3,1.3M421.5,69.1v11h2.3v-11h-2.3ZM422.6,64.7c-.7,0-1.3.6-1.3,1.3s.6,1.3,1.3,1.3,1.3-.6,1.3-1.3-.6-1.3-1.3-1.3M423.7,80.1v-11h-2.3v11h2.3ZM422.6,98.9c-.7,0-1.3.6-1.3,1.3s.6,1.3,1.3,1.3,1.3-.6,1.3-1.3-.6-1.3-1.3-1.3M421.5,86.2v11h2.3v-11h-2.3ZM422.6,116.1c-.7,0-1.3.6-1.3,1.3s.6,1.3,1.3,1.3,1.3-.6,1.3-1.3-.6-1.3-1.3-1.3M421.4,103.3v11h2.3v-11h-2.3ZM422.6,133.1c-.7,0-1.3.6-1.3,1.3s.6,1.3,1.3,1.3,1.3-.6,1.3-1.3-.6-1.3-1.3-1.3M421.4,120.4v11h2.3v-11h-2.3ZM423.7,148.5v-11h-2.3v11h2.3ZM422.6,152.8c.7,0,1.3-.6,1.3-1.3s-.6-1.3-1.3-1.3-1.3.6-1.3,1.3.6,1.3,1.3,1.3M417.3,110.1c.7,0,1.3-.6,1.3-1.3s-.6-1.3-1.3-1.3-1.3.6-1.3,1.3.6,1.3,1.3,1.3M418.5,122.8v-11h-2.3v11h2.3ZM417.3,127.2c.7,0,1.3-.6,1.3-1.3s-.6-1.3-1.3-1.3-1.3.6-1.3,1.3.6,1.3,1.3,1.3M418.5,139.9v-11h-2.3v11h2.3ZM416.2,111.9v11h2.3v-11h-2.3ZM417.3,144.3c.7,0,1.3-.6,1.3-1.3s-.6-1.3-1.3-1.3-1.3.6-1.3,1.3.6,1.3,1.3,1.3M418.5,157v-11h-2.3v11h2.3ZM417.4,93c.7,0,1.3-.6,1.3-1.3s-.6-1.3-1.3-1.3-1.3.6-1.3,1.3.6,1.3,1.3,1.3M418.5,105.7v-11h-2.3v11h2.3ZM417.4,75.9c.7,0,1.3-.6,1.3-1.3s-.6-1.3-1.3-1.3-1.3.6-1.3,1.3.6,1.3,1.3,1.3M418.5,88.6v-11h-2.3v11h2.3ZM418.5,71.5v-11h-2.3v11h2.3ZM412.3,81.9c-.7,0-1.3.6-1.3,1.3s.6,1.3,1.3,1.3,1.3-.6,1.3-1.3-.6-1.3-1.3-1.3M411.2,69.1v11h2.3v-11h-2.3ZM407.1,56.2c-.7,0-1.3.6-1.3,1.3s.6,1.3,1.3,1.3,1.3-.6,1.3-1.3-.6-1.3-1.3-1.3M411.2,52v11h2.3v-11h-2.3ZM413.4,80.1v-11h-2.3v11h2.3ZM412.3,98.9c-.7,0-1.3.6-1.3,1.3s.6,1.3,1.3,1.3,1.3-.6,1.3-1.3-.6-1.3-1.3-1.3M411.2,86.2v11h2.3v-11h-2.3ZM412.3,116.1c-.7,0-1.3.6-1.3,1.3s.6,1.3,1.3,1.3,1.3-.6,1.3-1.3-.6-1.3-1.3-1.3M411.2,103.3v11h2.3v-11h-2.3ZM412.3,133.1c-.7,0-1.3.6-1.3,1.3s.6,1.3,1.3,1.3,1.3-.6,1.3-1.3-.6-1.3-1.3-1.3M411.2,120.4v11h2.3v-11h-2.3ZM413.4,148.5v-11h-2.3v11h2.3ZM412.3,152.8c.7,0,1.3-.6,1.3-1.3s-.6-1.3-1.3-1.3-1.3.6-1.3,1.3.6,1.3,1.3,1.3M407.1,110.1c.7,0,1.3-.6,1.3-1.3s-.6-1.3-1.3-1.3-1.3.6-1.3,1.3.6,1.3,1.3,1.3M408.2,122.8v-11h-2.3v11h2.3ZM407.1,127.2c.7,0,1.3-.6,1.3-1.3s-.6-1.3-1.3-1.3-1.3.6-1.3,1.3.6,1.3,1.3,1.3M408.2,139.9v-11h-2.3v11h2.3ZM405.9,111.9v11h2.3v-11h-2.3ZM407.1,144.3c.7,0,1.3-.6,1.3-1.3s-.6-1.3-1.3-1.3-1.3.6-1.3,1.3.6,1.3,1.3,1.3M408.2,157v-11h-2.3v11h2.3ZM407.1,93c.7,0,1.3-.6,1.3-1.3s-.6-1.3-1.3-1.3-1.3.6-1.3,1.3.6,1.3,1.3,1.3M408.2,105.7v-11h-2.3v11h2.3ZM407.1,75.9c.7,0,1.3-.6,1.3-1.3s-.6-1.3-1.3-1.3-1.3.6-1.3,1.3.6,1.3,1.3,1.3M408.2,88.6v-11h-2.3v11h2.3ZM417.2,58.8c.7,0,1.3-.6,1.3-1.3s-.6-1.3-1.3-1.3-1.3.6-1.3,1.3.6,1.3,1.3,1.3M408.2,71.5v-11h-2.3v11h2.3ZM405.9,43.4v11h2.3v-11h-2.3ZM407.1,39.1c-.7,0-1.3.6-1.3,1.3s.6,1.3,1.3,1.3,1.3-.6,1.3-1.3-.6-1.3-1.3-1.3M401.9,81.9c-.7,0-1.3.6-1.3,1.3s.6,1.3,1.3,1.3,1.3-.6,1.3-1.3-.6-1.3-1.3-1.3M400.8,69.1v11h2.3v-11h-2.3ZM401.9,64.7c-.7,0-1.3.6-1.3,1.3s.6,1.3,1.3,1.3,1.3-.6,1.3-1.3-.6-1.3-1.3-1.3M400.8,52v11h2.3v-11h-2.3ZM403,80.1v-11h-2.3v11h2.3ZM401.9,98.9c-.7,0-1.3.6-1.3,1.3s.6,1.3,1.3,1.3,1.3-.6,1.3-1.3-.6-1.3-1.3-1.3M400.8,86.2v11h2.3v-11h-2.3ZM401.9,116.1c-.7,0-1.3.6-1.3,1.3s.6,1.3,1.3,1.3,1.3-.6,1.3-1.3-.6-1.3-1.3-1.3M400.8,103.3v11h2.3v-11h-2.3ZM401.9,133.1c-.7,0-1.3.6-1.3,1.3s.6,1.3,1.3,1.3,1.3-.6,1.3-1.3-.6-1.3-1.3-1.3M400.8,120.4v11h2.3v-11h-2.3ZM403,148.5v-11h-2.3v11h2.3ZM401.9,152.8c.7,0,1.3-.6,1.3-1.3s-.6-1.3-1.3-1.3-1.3.6-1.3,1.3.6,1.3,1.3,1.3M396.7,110.1c.7,0,1.3-.6,1.3-1.3s-.6-1.3-1.3-1.3-1.3.6-1.3,1.3.6,1.3,1.3,1.3M397.8,122.8v-11h-2.3v11h2.3ZM396.7,127.2c.7,0,1.3-.6,1.3-1.3s-.6-1.3-1.3-1.3-1.3.6-1.3,1.3.6,1.3,1.3,1.3M397.8,139.9v-11h-2.3v11h2.3ZM395.5,111.9v11h2.3v-11h-2.3ZM396.7,144.3c.7,0,1.3-.6,1.3-1.3s-.6-1.3-1.3-1.3-1.3.6-1.3,1.3.6,1.3,1.3,1.3M397.8,157v-11h-2.3v11h2.3ZM396.7,93c.7,0,1.3-.6,1.3-1.3s-.6-1.3-1.3-1.3-1.3.6-1.3,1.3.6,1.3,1.3,1.3M397.8,105.7v-11h-2.3v11h2.3ZM396.7,75.9c.7,0,1.3-.6,1.3-1.3s-.6-1.3-1.3-1.3-1.3.6-1.3,1.3.6,1.3,1.3,1.3M397.8,88.6v-11h-2.3v11h2.3ZM396.7,58.8c.7,0,1.3-.6,1.3-1.3s-.6-1.3-1.3-1.3-1.3.6-1.3,1.3.6,1.3,1.3,1.3M397.8,71.5v-11h-2.3v11h2.3ZM395.5,43.4v11h2.3v-11h-2.3ZM396.7,39.1c-.7,0-1.3.6-1.3,1.3s.6,1.3,1.3,1.3,1.3-.6,1.3-1.3-.6-1.3-1.3-1.3M391.6,81.9c-.7,0-1.3.6-1.3,1.3s.6,1.3,1.3,1.3,1.3-.6,1.3-1.3-.6-1.3-1.3-1.3M390.5,69.1v11h2.3v-11h-2.3ZM391.6,64.7c-.7,0-1.3.6-1.3,1.3s.6,1.3,1.3,1.3,1.3-.6,1.3-1.3-.6-1.3-1.3-1.3M401.9,48.1c-.7,0-1.3.6-1.3,1.3s.6,1.3,1.3,1.3,1.3-.6,1.3-1.3-.6-1.3-1.3-1.3M412.3,48.1c-.7,0-1.3.6-1.3,1.3s.6,1.3,1.3,1.3,1.3-.6,1.3-1.3-.6-1.3-1.3-1.3M391.6,48.1c-.7,0-1.3.6-1.3,1.3s.6,1.3,1.3,1.3,1.3-.6,1.3-1.3-.6-1.3-1.3-1.3M370.8,48.1c-.7,0-1.3.6-1.3,1.3s.6,1.3,1.3,1.3,1.3-.6,1.3-1.3-.6-1.3-1.3-1.3M381.2,48.1c-.7,0-1.3.6-1.3,1.3s.6,1.3,1.3,1.3,1.3-.6,1.3-1.3-.6-1.3-1.3-1.3M390.5,52v11h2.3v-11h-2.3ZM392.8,80.1v-11h-2.3v11h2.3ZM391.6,98.9c-.7,0-1.3.6-1.3,1.3s.6,1.3,1.3,1.3,1.3-.6,1.3-1.3-.6-1.3-1.3-1.3M390.4,86.2v11h2.3v-11h-2.3ZM391.6,116.1c-.7,0-1.3.6-1.3,1.3s.6,1.3,1.3,1.3,1.3-.6,1.3-1.3-.6-1.3-1.3-1.3M390.4,103.3v11h2.3v-11h-2.3ZM391.6,133.1c-.7,0-1.3.6-1.3,1.3s.6,1.3,1.3,1.3,1.3-.6,1.3-1.3-.6-1.3-1.3-1.3M390.4,120.4v11h2.3v-11h-2.3ZM392.7,148.5v-11h-2.3v11h2.3ZM391.6,152.8c.7,0,1.3-.6,1.3-1.3s-.6-1.3-1.3-1.3-1.3.6-1.3,1.3.6,1.3,1.3,1.3M386.3,110.1c.7,0,1.3-.6,1.3-1.3s-.6-1.3-1.3-1.3-1.3.6-1.3,1.3.6,1.3,1.3,1.3M387.5,122.8v-11h-2.3v11h2.3ZM386.3,127.2c.7,0,1.3-.6,1.3-1.3s-.6-1.3-1.3-1.3-1.3.6-1.3,1.3.6,1.3,1.3,1.3M387.5,139.9v-11h-2.3v11h2.3ZM385.2,111.9v11h2.3v-11h-2.3ZM386.3,144.3c.7,0,1.3-.6,1.3-1.3s-.6-1.3-1.3-1.3-1.3.6-1.3,1.3.6,1.3,1.3,1.3M387.5,157v-11h-2.3v11h2.3ZM386.4,93c.7,0,1.3-.6,1.3-1.3s-.6-1.3-1.3-1.3-1.3.6-1.3,1.3.6,1.3,1.3,1.3M387.5,105.7v-11h-2.3v11h2.3ZM386.4,75.9c.7,0,1.3-.6,1.3-1.3s-.6-1.3-1.3-1.3-1.3.6-1.3,1.3.6,1.3,1.3,1.3M387.5,88.6v-11h-2.3v11h2.3ZM386.4,58.8c.7,0,1.3-.6,1.3-1.3s-.6-1.3-1.3-1.3-1.3.6-1.3,1.3.6,1.3,1.3,1.3M387.5,71.5v-11h-2.3v11h2.3ZM385.3,43.4v11h2.3v-11h-2.3ZM386.4,39.1c-.7,0-1.3.6-1.3,1.3s.6,1.3,1.3,1.3,1.3-.6,1.3-1.3-.6-1.3-1.3-1.3M381.2,81.9c-.7,0-1.3.6-1.3,1.3s.6,1.3,1.3,1.3,1.3-.6,1.3-1.3-.6-1.3-1.3-1.3M380,69.1v11h2.3v-11h-2.3ZM381.2,64.7c-.7,0-1.3.6-1.3,1.3s.6,1.3,1.3,1.3,1.3-.6,1.3-1.3-.6-1.3-1.3-1.3M380,52v11h2.3v-11h-2.3ZM382.3,80.1v-11h-2.3v11h2.3ZM381.2,98.9c-.7,0-1.3.6-1.3,1.3s.6,1.3,1.3,1.3,1.3-.6,1.3-1.3-.6-1.3-1.3-1.3M380,86.2v11h2.3v-11h-2.3ZM381.2,116.1c-.7,0-1.3.6-1.3,1.3s.6,1.3,1.3,1.3,1.3-.6,1.3-1.3-.6-1.3-1.3-1.3M380,103.3v11h2.3v-11h-2.3ZM381.1,133.1c-.7,0-1.3.6-1.3,1.3s.6,1.3,1.3,1.3,1.3-.6,1.3-1.3-.6-1.3-1.3-1.3M380,120.4v11h2.3v-11h-2.3ZM382.3,148.5v-11h-2.3v11h2.3ZM381.2,152.8c.7,0,1.3-.6,1.3-1.3s-.6-1.3-1.3-1.3-1.3.6-1.3,1.3.6,1.3,1.3,1.3M375.9,110.1c.7,0,1.3-.6,1.3-1.3s-.6-1.3-1.3-1.3-1.3.6-1.3,1.3.6,1.3,1.3,1.3M377.1,122.8v-11h-2.3v11h2.3ZM375.9,127.2c.7,0,1.3-.6,1.3-1.3s-.6-1.3-1.3-1.3-1.3.6-1.3,1.3.6,1.3,1.3,1.3M377.1,139.9v-11h-2.3v11h2.3ZM374.8,111.9v11h2.3v-11h-2.3ZM375.9,144.3c.7,0,1.3-.6,1.3-1.3s-.6-1.3-1.3-1.3-1.3.6-1.3,1.3.6,1.3,1.3,1.3M377.1,157v-11h-2.3v11h2.3ZM375.9,93c.7,0,1.3-.6,1.3-1.3s-.6-1.3-1.3-1.3-1.3.6-1.3,1.3.6,1.3,1.3,1.3M377.1,105.7v-11h-2.3v11h2.3ZM375.9,75.9c.7,0,1.3-.6,1.3-1.3s-.6-1.3-1.3-1.3-1.3.6-1.3,1.3.6,1.3,1.3,1.3M377.1,88.6v-11h-2.3v11h2.3ZM375.9,58.8c.7,0,1.3-.6,1.3-1.3s-.6-1.3-1.3-1.3-1.3.6-1.3,1.3.6,1.3,1.3,1.3M377.1,71.5v-11h-2.3v11h2.3ZM374.8,43.4v11h2.3v-11h-2.3ZM375.9,39.1c-.7,0-1.3.6-1.3,1.3s.6,1.3,1.3,1.3,1.3-.6,1.3-1.3-.6-1.3-1.3-1.3M370.9,81.9c-.7,0-1.3.6-1.3,1.3s.6,1.3,1.3,1.3,1.3-.6,1.3-1.3-.6-1.3-1.3-1.3M369.7,69.1v11h2.3v-11h-2.3ZM370.9,64.7c-.7,0-1.3.6-1.3,1.3s.6,1.3,1.3,1.3,1.3-.6,1.3-1.3-.6-1.3-1.3-1.3M369.7,52v11h2.3v-11h-2.3ZM372,80.1v-11h-2.3v11h2.3ZM370.9,98.9c-.7,0-1.3.6-1.3,1.3s.6,1.3,1.3,1.3,1.3-.6,1.3-1.3-.6-1.3-1.3-1.3M369.7,86.2v11h2.3v-11h-2.3ZM370.9,116.1c-.7,0-1.3.6-1.3,1.3s.6,1.3,1.3,1.3,1.3-.6,1.3-1.3-.6-1.3-1.3-1.3M369.7,103.3v11h2.3v-11h-2.3ZM370.9,133.1c-.7,0-1.3.6-1.3,1.3s.6,1.3,1.3,1.3,1.3-.6,1.3-1.3-.6-1.3-1.3-1.3M369.7,120.4v11h2.3v-11h-2.3ZM372,148.5v-11h-2.3v11h2.3ZM370.9,152.8c.7,0,1.3-.6,1.3-1.3s-.6-1.3-1.3-1.3-1.3.6-1.3,1.3.6,1.3,1.3,1.3M365.6,110.1c.7,0,1.3-.6,1.3-1.3s-.6-1.3-1.3-1.3-1.3.6-1.3,1.3.6,1.3,1.3,1.3M366.7,122.8v-11h-2.3v11h2.3ZM365.6,127.2c.7,0,1.3-.6,1.3-1.3s-.6-1.3-1.3-1.3-1.3.6-1.3,1.3.6,1.3,1.3,1.3M366.7,139.9v-11h-2.3v11h2.3ZM364.5,111.9v11h2.3v-11h-2.3ZM365.6,144.3c.7,0,1.3-.6,1.3-1.3s-.6-1.3-1.3-1.3-1.3.6-1.3,1.3.6,1.3,1.3,1.3M366.7,157v-11h-2.3v11h2.3ZM365.6,93c.7,0,1.3-.6,1.3-1.3s-.6-1.3-1.3-1.3-1.3.6-1.3,1.3.6,1.3,1.3,1.3M366.7,105.7v-11h-2.3v11h2.3ZM365.6,75.9c.7,0,1.3-.6,1.3-1.3s-.6-1.3-1.3-1.3-1.3.6-1.3,1.3.6,1.3,1.3,1.3M366.7,88.6v-11h-2.3v11h2.3ZM365.6,58.8c.7,0,1.3-.6,1.3-1.3s-.6-1.3-1.3-1.3-1.3.6-1.3,1.3.6,1.3,1.3,1.3M366.7,71.5v-11h-2.3v11h2.3ZM364.5,43.4v11h2.3v-11h-2.3ZM365.6,39.1c-.7,0-1.3.6-1.3,1.3s.6,1.3,1.3,1.3,1.3-.6,1.3-1.3-.6-1.3-1.3-1.3M413.1,65c-.7,0-1.3.6-1.3,1.3s.6,1.3,1.3,1.3,1.3-.6,1.3-1.3-.6-1.3-1.3-1.3"/>
                </g>
                <g class="cls-13">
                  <path class="cls-8" d="M429.1,90.4c0,.7-.6,1.3-1.3,1.3s-1.3-.6-1.3-1.3.6-1.3,1.3-1.3,1.3.6,1.3,1.3M426.7,76.4v11h2.3v-11h-2.3ZM427.8,72c-.7,0-1.3.6-1.3,1.3s.6,1.3,1.3,1.3,1.3-.6,1.3-1.3-.6-1.3-1.3-1.3M429,87.3v-11h-2.3v11h2.3ZM427.8,106.2c-.7,0-1.3.6-1.3,1.3s.6,1.3,1.3,1.3,1.3-.6,1.3-1.3-.6-1.3-1.3-1.3M426.7,93.4v11h2.3v-11h-2.3ZM427.8,123.3c-.7,0-1.3.6-1.3,1.3s.6,1.3,1.3,1.3,1.3-.6,1.3-1.3-.6-1.3-1.3-1.3M426.7,110.6v11h2.3v-11h-2.3ZM427.8,140.4c-.7,0-1.3.6-1.3,1.3s.6,1.3,1.3,1.3,1.3-.6,1.3-1.3-.6-1.3-1.3-1.3M426.7,127.7v11h2.3v-11h-2.3ZM428.9,155.8v-11h-2.3v11h2.3ZM427.8,160.1c.7,0,1.3-.6,1.3-1.3s-.6-1.3-1.3-1.3-1.3.6-1.3,1.3.6,1.3,1.3,1.3"/>
                </g>
              </g>
              <g class="cls-13">
                <path class="cls-7" d="M2.6,90.4c0,.7-.6,1.3-1.3,1.3s-1.3-.6-1.3-1.3.6-1.3,1.3-1.3,1.3.6,1.3,1.3M.2,76.4v11h2.3v-11H.2ZM1.3,72c-.7,0-1.3.6-1.3,1.3s.6,1.3,1.3,1.3,1.3-.6,1.3-1.3-.6-1.3-1.3-1.3M2.5,87.3v-11H.2v11h2.3ZM1.3,106.2c-.7,0-1.3.6-1.3,1.3s.6,1.3,1.3,1.3,1.3-.6,1.3-1.3-.6-1.3-1.3-1.3M.2,93.4v11h2.3v-11H.2ZM1.3,123.3c-.7,0-1.3.6-1.3,1.3s.6,1.3,1.3,1.3,1.3-.6,1.3-1.3-.6-1.3-1.3-1.3M.2,110.6v11h2.3v-11H.2ZM1.3,140.4c-.7,0-1.3.6-1.3,1.3s.6,1.3,1.3,1.3,1.3-.6,1.3-1.3-.6-1.3-1.3-1.3M.2,127.7v11h2.3v-11H.2ZM2.4,155.8v-11H.2v11h2.3ZM1.3,160.1c.7,0,1.3-.6,1.3-1.3s-.6-1.3-1.3-1.3-1.3.6-1.3,1.3.6,1.3,1.3,1.3"/>
              </g>
            </g>
          </g>
        </g>
      </g>
    </g>
  </g>
</svg>