<svg width="24" height="24" viewBox="0 0 24 24" fill="none" xmlns="http://www.w3.org/2000/svg">
    <path d="M6.615 22.005c-.46 0-.844-.154-1.152-.463A1.565 1.565 0 0 1 5 20.39V10.62c0-.46.154-.844.463-1.153a1.565 1.565 0 0 1 1.152-.462h1.616c.142 0 .261.048.357.143a.484.484 0 0 1 .143.357.484.484 0 0 1-.143.357.484.484 0 0 1-.357.143H6.616a.588.588 0 0 0-.424.192.588.588 0 0 0-.192.423v9.77c0 .153.064.294.192.422.128.129.27.193.423.193h10.77a.588.588 0 0 0 .423-.192.588.588 0 0 0 .192-.424V10.62a.588.588 0 0 0-.192-.423.588.588 0 0 0-.424-.192H15.77a.484.484 0 0 1-.357-.143.484.484 0 0 1-.143-.357c0-.143.048-.261.143-.357a.484.484 0 0 1 .357-.143h1.615c.46 0 .845.154 1.154.462.308.309.462.693.462 1.153v9.77c0 .46-.154.844-.462 1.152a1.565 1.565 0 0 1-1.154.463H6.616zM11.5 4.618 9.754 6.364a.48.48 0 0 1-.707-.006.515.515 0 0 1-.163-.353.484.484 0 0 1 .162-.354l2.389-2.388A.775.775 0 0 1 12 3.02c.215 0 .404.08.566.243l2.388 2.388a.5.5 0 0 1 .15.341.48.48 0 0 1-.15.367.499.499 0 0 1-.357.165.498.498 0 0 1-.356-.165L12.5 4.619v10.386a.484.484 0 0 1-.143.356.484.484 0 0 1-.357.144.484.484 0 0 1-.357-.144.484.484 0 0 1-.143-.356V4.618z" fill="#333"/>
</svg>
