<svg width="16" height="16" viewBox="0 0 16 16" fill="none" xmlns="http://www.w3.org/2000/svg">
    <path d="M6.36 10.154c-1.066 0-1.97-.37-2.71-1.111-.74-.74-1.11-1.644-1.11-2.71 0-1.065.37-1.969 1.11-2.71.74-.74 1.644-1.11 2.71-1.11 1.065 0 1.969.37 2.71 1.11.74.741 1.11 1.645 1.11 2.71 0 .464-.082.912-.246 1.345-.164.433-.38.804-.646 1.112l3.938 3.938a.336.336 0 0 1 .1.23.312.312 0 0 1-.1.242.327.327 0 0 1-.236.106.327.327 0 0 1-.236-.106L8.816 9.261a3.667 3.667 0 0 1-1.15.66 3.844 3.844 0 0 1-1.306.233zm0-.667c.884 0 1.63-.304 2.24-.913.609-.61.913-1.356.913-2.24 0-.885-.304-1.632-.913-2.241-.61-.609-1.356-.914-2.24-.914-.885 0-1.632.305-2.24.914-.61.609-.914 1.356-.914 2.24 0 .885.304 1.632.913 2.24.61.61 1.356.914 2.24.914z" fill="#666"/>
</svg>
